G04 #@! TF.GenerationSoftware,KiCad,Pcbnew,7.0.8*
G04 #@! TF.CreationDate,2024-02-17T11:27:20+01:00*
G04 #@! TF.ProjectId,PCB_V2,5043425f-5632-42e6-9b69-6361645f7063,rev?*
G04 #@! TF.SameCoordinates,Original*
G04 #@! TF.FileFunction,Copper,L1,Top*
G04 #@! TF.FilePolarity,Positive*
%FSLAX46Y46*%
G04 Gerber Fmt 4.6, Leading zero omitted, Abs format (unit mm)*
G04 Created by KiCad (PCBNEW 7.0.8) date 2024-02-17 11:27:20*
%MOMM*%
%LPD*%
G01*
G04 APERTURE LIST*
G04 #@! TA.AperFunction,ComponentPad*
%ADD10O,1.700000X1.700000*%
G04 #@! TD*
G04 #@! TA.AperFunction,ComponentPad*
%ADD11R,1.700000X1.700000*%
G04 #@! TD*
G04 #@! TA.AperFunction,ConnectorPad*
%ADD12C,5.400000*%
G04 #@! TD*
G04 #@! TA.AperFunction,ComponentPad*
%ADD13C,3.100000*%
G04 #@! TD*
G04 #@! TA.AperFunction,ComponentPad*
%ADD14R,1.524000X1.524000*%
G04 #@! TD*
G04 #@! TA.AperFunction,ComponentPad*
%ADD15C,1.524000*%
G04 #@! TD*
G04 #@! TA.AperFunction,ComponentPad*
%ADD16C,2.600000*%
G04 #@! TD*
G04 #@! TA.AperFunction,ComponentPad*
%ADD17R,2.600000X2.600000*%
G04 #@! TD*
G04 #@! TA.AperFunction,ViaPad*
%ADD18C,0.800000*%
G04 #@! TD*
G04 #@! TA.AperFunction,Conductor*
%ADD19C,0.750000*%
G04 #@! TD*
G04 #@! TA.AperFunction,Conductor*
%ADD20C,0.250000*%
G04 #@! TD*
G04 #@! TA.AperFunction,Conductor*
%ADD21C,1.000000*%
G04 #@! TD*
G04 APERTURE END LIST*
D10*
X206375000Y-93345000D03*
X206375000Y-90805000D03*
X203835000Y-93345000D03*
X203835000Y-90805000D03*
X201295000Y-93345000D03*
X201295000Y-90805000D03*
X198755000Y-93345000D03*
X198755000Y-90805000D03*
X196215000Y-93345000D03*
X196215000Y-90805000D03*
X193675000Y-93345000D03*
D11*
X193675000Y-90805000D03*
D12*
X227965000Y-70485000D03*
D13*
X227965000Y-70485000D03*
X172085000Y-70485000D03*
D12*
X172085000Y-70485000D03*
D13*
X227965000Y-34290000D03*
D12*
X227965000Y-34290000D03*
D14*
X184785000Y-46990000D03*
D15*
X184785000Y-49530000D03*
X184785000Y-52070000D03*
X184785000Y-54610000D03*
X184785000Y-57150000D03*
X184785000Y-59690000D03*
X184785000Y-62230000D03*
X184785000Y-64770000D03*
D14*
X172085000Y-64770000D03*
D15*
X172085000Y-62230000D03*
X172085000Y-59690000D03*
X172085000Y-57150000D03*
X172085000Y-54610000D03*
X172085000Y-52070000D03*
X172085000Y-49530000D03*
X172085000Y-46990000D03*
D10*
X187960000Y-80264000D03*
X187960000Y-77724000D03*
X185420000Y-80264000D03*
X185420000Y-77724000D03*
X182880000Y-80264000D03*
X182880000Y-77724000D03*
X180340000Y-80264000D03*
X180340000Y-77724000D03*
X177800000Y-80264000D03*
X177800000Y-77724000D03*
X175260000Y-80264000D03*
D11*
X175260000Y-77724000D03*
D16*
X173355000Y-37465000D03*
D17*
X178435000Y-37465000D03*
D10*
X224790000Y-80264000D03*
X224790000Y-77724000D03*
X222250000Y-80264000D03*
X222250000Y-77724000D03*
X219710000Y-80264000D03*
X219710000Y-77724000D03*
X217170000Y-80264000D03*
X217170000Y-77724000D03*
X214630000Y-80264000D03*
X214630000Y-77724000D03*
X212090000Y-80264000D03*
D11*
X212090000Y-77724000D03*
X196215000Y-70485000D03*
D10*
X198755000Y-70485000D03*
X201295000Y-70485000D03*
X203835000Y-70485000D03*
X211328000Y-35560000D03*
X208788000Y-35560000D03*
X206248000Y-35560000D03*
X203708000Y-35560000D03*
X201168000Y-35560000D03*
X198628000Y-35560000D03*
X196088000Y-35560000D03*
X193548000Y-35560000D03*
X191008000Y-35560000D03*
D11*
X188468000Y-35560000D03*
D14*
X227965000Y-46990000D03*
D15*
X227965000Y-49530000D03*
X227965000Y-52070000D03*
X227965000Y-54610000D03*
X227965000Y-57150000D03*
X227965000Y-59690000D03*
X227965000Y-62230000D03*
X227965000Y-64770000D03*
D14*
X215265000Y-64770000D03*
D15*
X215265000Y-62230000D03*
X215265000Y-59690000D03*
X215265000Y-57150000D03*
X215265000Y-54610000D03*
X215265000Y-52070000D03*
X215265000Y-49530000D03*
X215265000Y-46990000D03*
D11*
X182245000Y-70485000D03*
D10*
X184785000Y-70485000D03*
X187325000Y-70485000D03*
X189865000Y-70485000D03*
X206375000Y-80264000D03*
X206375000Y-77724000D03*
X203835000Y-80264000D03*
X203835000Y-77724000D03*
X201295000Y-80264000D03*
X201295000Y-77724000D03*
X198755000Y-80264000D03*
X198755000Y-77724000D03*
X196215000Y-80264000D03*
X196215000Y-77724000D03*
X193675000Y-80264000D03*
D11*
X193675000Y-77724000D03*
X210185000Y-70485000D03*
D10*
X212725000Y-70485000D03*
X215265000Y-70485000D03*
X217805000Y-70485000D03*
D14*
X206375000Y-46990000D03*
D15*
X206375000Y-49530000D03*
X206375000Y-52070000D03*
X206375000Y-54610000D03*
X206375000Y-57150000D03*
X206375000Y-59690000D03*
X206375000Y-62230000D03*
X206375000Y-64770000D03*
D14*
X193675000Y-64770000D03*
D15*
X193675000Y-62230000D03*
X193675000Y-59690000D03*
X193675000Y-57150000D03*
X193675000Y-54610000D03*
X193675000Y-52070000D03*
X193675000Y-49530000D03*
X193675000Y-46990000D03*
D18*
X206375000Y-82804000D03*
X186690000Y-84074000D03*
X205105000Y-84074000D03*
X220980000Y-84074000D03*
X206375000Y-87630000D03*
X184150000Y-85344000D03*
X202565000Y-85344000D03*
X218440000Y-85344000D03*
X193040000Y-87884000D03*
X181610000Y-85090000D03*
X215900000Y-86614000D03*
X200025000Y-86614000D03*
D19*
X180303249Y-70485000D02*
X182245000Y-70485000D01*
X173990000Y-64171751D02*
X180303249Y-70485000D01*
X173990000Y-59055000D02*
X173990000Y-64171751D01*
X172085000Y-57150000D02*
X173990000Y-59055000D01*
X183360000Y-71910000D02*
X184785000Y-70485000D01*
X173355000Y-66675000D02*
X178590000Y-71910000D01*
X170815000Y-66675000D02*
X173355000Y-66675000D01*
X170180000Y-66040000D02*
X170815000Y-66675000D01*
X172085000Y-59690000D02*
X170180000Y-61595000D01*
X170180000Y-61595000D02*
X170180000Y-66040000D01*
X178590000Y-71910000D02*
X183360000Y-71910000D01*
X186055000Y-66675000D02*
X189865000Y-70485000D01*
X180975000Y-66675000D02*
X186055000Y-66675000D01*
X176530000Y-56515000D02*
X176530000Y-62230000D01*
X176530000Y-62230000D02*
X180975000Y-66675000D01*
X172085000Y-52070000D02*
X176530000Y-56515000D01*
X184785000Y-67945000D02*
X187325000Y-70485000D01*
X175260000Y-63500000D02*
X179705000Y-67945000D01*
X175260000Y-57785000D02*
X175260000Y-63500000D01*
X179705000Y-67945000D02*
X184785000Y-67945000D01*
X172085000Y-54610000D02*
X175260000Y-57785000D01*
D20*
X210185000Y-76200000D02*
X223266000Y-76200000D01*
X208915000Y-77470000D02*
X210185000Y-76200000D01*
X208915000Y-86360000D02*
X208915000Y-77470000D01*
X206375000Y-88900000D02*
X208915000Y-86360000D01*
X206375000Y-90805000D02*
X206375000Y-88900000D01*
X223266000Y-76200000D02*
X224790000Y-77724000D01*
X181610000Y-78994000D02*
X180340000Y-77724000D01*
X181610000Y-85090000D02*
X181610000Y-78994000D01*
X207645000Y-86360000D02*
X207645000Y-78994000D01*
X207645000Y-78994000D02*
X206375000Y-77724000D01*
X206375000Y-87630000D02*
X207645000Y-86360000D01*
X205200000Y-86265000D02*
X205200000Y-92170000D01*
X205200000Y-92170000D02*
X206375000Y-93345000D01*
X206375000Y-82804000D02*
X206375000Y-85090000D01*
X206375000Y-85090000D02*
X205200000Y-86265000D01*
X203835000Y-85344000D02*
X203835000Y-90805000D01*
X205105000Y-84074000D02*
X203835000Y-85344000D01*
X191135000Y-80899000D02*
X187960000Y-77724000D01*
X193040000Y-87884000D02*
X191135000Y-85979000D01*
X191135000Y-85979000D02*
X191135000Y-80899000D01*
X201295000Y-88265000D02*
X201295000Y-90805000D01*
X202565000Y-85344000D02*
X202565000Y-86995000D01*
X202565000Y-86995000D02*
X201295000Y-88265000D01*
X200025000Y-87630000D02*
X198755000Y-88900000D01*
X198755000Y-88900000D02*
X198755000Y-90805000D01*
X200025000Y-86614000D02*
X200025000Y-87630000D01*
X226695000Y-64770000D02*
X227965000Y-64770000D01*
X225425000Y-63500000D02*
X226695000Y-64770000D01*
X225425000Y-53975000D02*
X225425000Y-63500000D01*
X208915000Y-38735000D02*
X210185000Y-38735000D01*
X207613000Y-37433000D02*
X208915000Y-38735000D01*
X206375000Y-33655000D02*
X207613000Y-34893000D01*
X210185000Y-38735000D02*
X225425000Y-53975000D01*
X195453000Y-33655000D02*
X206375000Y-33655000D01*
X193548000Y-35560000D02*
X195453000Y-33655000D01*
X207613000Y-34893000D02*
X207613000Y-37433000D01*
X222758000Y-49530000D02*
X227965000Y-49530000D01*
X208788000Y-35560000D02*
X222758000Y-49530000D01*
D19*
X220980000Y-67310000D02*
X217805000Y-70485000D01*
X220980000Y-57785000D02*
X220980000Y-67310000D01*
X215265000Y-52070000D02*
X220980000Y-57785000D01*
X219075000Y-66675000D02*
X215265000Y-70485000D01*
X219075000Y-58420000D02*
X219075000Y-66675000D01*
X215265000Y-54610000D02*
X219075000Y-58420000D01*
X217170000Y-61595000D02*
X217170000Y-66040000D01*
X215265000Y-59690000D02*
X217170000Y-61595000D01*
X217170000Y-66040000D02*
X212725000Y-70485000D01*
X213360000Y-67310000D02*
X210185000Y-70485000D01*
X213360000Y-59055000D02*
X213360000Y-67310000D01*
X215265000Y-57150000D02*
X213360000Y-59055000D01*
D21*
X196215000Y-90805000D02*
X196215000Y-80264000D01*
D19*
X191770000Y-59055000D02*
X191770000Y-66040000D01*
X193675000Y-57150000D02*
X191770000Y-59055000D01*
X191770000Y-66040000D02*
X196215000Y-70485000D01*
D20*
X203200000Y-37592000D02*
X203200000Y-61595000D01*
X203200000Y-61595000D02*
X206375000Y-64770000D01*
X201168000Y-35560000D02*
X203200000Y-37592000D01*
X204470000Y-36322000D02*
X204470000Y-47625000D01*
X204470000Y-47625000D02*
X206375000Y-49530000D01*
X203708000Y-35560000D02*
X204470000Y-36322000D01*
X206375000Y-35687000D02*
X206375000Y-46990000D01*
X206248000Y-35560000D02*
X206375000Y-35687000D01*
X222758000Y-46990000D02*
X227965000Y-46990000D01*
X211328000Y-35560000D02*
X222758000Y-46990000D01*
D19*
X195580000Y-67310000D02*
X198755000Y-70485000D01*
X195580000Y-61595000D02*
X195580000Y-67310000D01*
X193675000Y-59690000D02*
X195580000Y-61595000D01*
X197485000Y-66675000D02*
X201295000Y-70485000D01*
X197485000Y-58420000D02*
X197485000Y-66675000D01*
X193675000Y-54610000D02*
X197485000Y-58420000D01*
X193675000Y-52133500D02*
X199390000Y-57848500D01*
X193675000Y-52070000D02*
X193675000Y-52133500D01*
X199390000Y-57848500D02*
X199390000Y-66040000D01*
X199390000Y-66040000D02*
X203835000Y-70485000D01*
D20*
X193675000Y-80264000D02*
X193585000Y-80354000D01*
X212090000Y-78360396D02*
X212090000Y-77724000D01*
X184785000Y-46355000D02*
X184785000Y-46990000D01*
X206375000Y-82804000D02*
X206375000Y-80264000D01*
X185420000Y-77724000D02*
X186690000Y-78994000D01*
X220980000Y-78994000D02*
X220980000Y-84074000D01*
X186690000Y-78994000D02*
X186690000Y-84074000D01*
X205105000Y-84074000D02*
X205105000Y-78994000D01*
X222250000Y-77724000D02*
X220980000Y-78994000D01*
X205105000Y-78994000D02*
X203835000Y-77724000D01*
X218440000Y-78994000D02*
X218440000Y-85344000D01*
X219710000Y-77724000D02*
X218440000Y-78994000D01*
X202565000Y-85344000D02*
X202565000Y-78994000D01*
X184150000Y-78994000D02*
X184150000Y-85344000D01*
X182880000Y-77724000D02*
X184150000Y-78994000D01*
X202565000Y-78994000D02*
X201295000Y-77724000D01*
X200025000Y-78994000D02*
X198755000Y-77724000D01*
X215900000Y-78994000D02*
X215900000Y-86614000D01*
X217170000Y-77724000D02*
X215900000Y-78994000D01*
X200025000Y-86614000D02*
X200025000Y-78994000D01*
G04 #@! TA.AperFunction,Conductor*
G36*
X193925000Y-92909498D02*
G01*
X193817315Y-92860320D01*
X193710763Y-92845000D01*
X193639237Y-92845000D01*
X193532685Y-92860320D01*
X193425000Y-92909498D01*
X193425000Y-91240501D01*
X193532685Y-91289680D01*
X193639237Y-91305000D01*
X193710763Y-91305000D01*
X193817315Y-91289680D01*
X193925000Y-91240501D01*
X193925000Y-92909498D01*
G37*
G04 #@! TD.AperFunction*
G04 #@! TA.AperFunction,Conductor*
G36*
X193925000Y-79828498D02*
G01*
X193817315Y-79779320D01*
X193710763Y-79764000D01*
X193639237Y-79764000D01*
X193532685Y-79779320D01*
X193425000Y-79828498D01*
X193425000Y-78159501D01*
X193532685Y-78208680D01*
X193639237Y-78224000D01*
X193710763Y-78224000D01*
X193817315Y-78208680D01*
X193925000Y-78159501D01*
X193925000Y-79828498D01*
G37*
G04 #@! TD.AperFunction*
G04 #@! TA.AperFunction,Conductor*
G36*
X212340000Y-79828498D02*
G01*
X212232315Y-79779320D01*
X212125763Y-79764000D01*
X212054237Y-79764000D01*
X211947685Y-79779320D01*
X211840000Y-79828498D01*
X211840000Y-78159501D01*
X211947685Y-78208680D01*
X212054237Y-78224000D01*
X212125763Y-78224000D01*
X212232315Y-78208680D01*
X212340000Y-78159501D01*
X212340000Y-79828498D01*
G37*
G04 #@! TD.AperFunction*
G04 #@! TA.AperFunction,Conductor*
G36*
X175510000Y-79828498D02*
G01*
X175402315Y-79779320D01*
X175295763Y-79764000D01*
X175224237Y-79764000D01*
X175117685Y-79779320D01*
X175010000Y-79828498D01*
X175010000Y-78159501D01*
X175117685Y-78208680D01*
X175224237Y-78224000D01*
X175295763Y-78224000D01*
X175402315Y-78208680D01*
X175510000Y-78159501D01*
X175510000Y-79828498D01*
G37*
G04 #@! TD.AperFunction*
G04 #@! TA.AperFunction,Conductor*
G36*
X180639338Y-75184340D02*
G01*
X180640857Y-75184499D01*
X180640858Y-75184500D01*
X180640859Y-75184500D01*
X186389141Y-75184500D01*
X186389142Y-75184500D01*
X186389142Y-75184499D01*
X186390662Y-75184340D01*
X186397149Y-75184000D01*
X188887851Y-75184000D01*
X188894338Y-75184340D01*
X188895857Y-75184499D01*
X188895858Y-75184500D01*
X188895859Y-75184500D01*
X194644141Y-75184500D01*
X194644142Y-75184500D01*
X194644142Y-75184499D01*
X194645662Y-75184340D01*
X194652149Y-75184000D01*
X197142851Y-75184000D01*
X197149338Y-75184340D01*
X197150857Y-75184499D01*
X197150858Y-75184500D01*
X197150859Y-75184500D01*
X202899141Y-75184500D01*
X202899142Y-75184500D01*
X202899142Y-75184499D01*
X202900662Y-75184340D01*
X202907149Y-75184000D01*
X205397851Y-75184000D01*
X205404338Y-75184340D01*
X205405857Y-75184499D01*
X205405858Y-75184500D01*
X205405859Y-75184500D01*
X211154141Y-75184500D01*
X211154142Y-75184500D01*
X211154142Y-75184499D01*
X211155662Y-75184340D01*
X211162149Y-75184000D01*
X213652851Y-75184000D01*
X213659338Y-75184340D01*
X213660857Y-75184499D01*
X213660858Y-75184500D01*
X213660859Y-75184500D01*
X219409141Y-75184500D01*
X219409142Y-75184500D01*
X219409142Y-75184499D01*
X219410662Y-75184340D01*
X219417149Y-75184000D01*
X221907851Y-75184000D01*
X221914338Y-75184340D01*
X221915857Y-75184499D01*
X221915858Y-75184500D01*
X221995901Y-75184500D01*
X226057562Y-75184500D01*
X226062426Y-75184690D01*
X226116977Y-75188984D01*
X226257579Y-75201285D01*
X226275696Y-75204235D01*
X226356020Y-75223520D01*
X226401511Y-75235709D01*
X226466713Y-75253181D01*
X226474400Y-75255790D01*
X226511685Y-75271233D01*
X226560959Y-75291643D01*
X226659955Y-75337806D01*
X226666154Y-75341136D01*
X226746778Y-75390543D01*
X226749926Y-75392608D01*
X226836606Y-75453302D01*
X226841285Y-75456924D01*
X226913840Y-75518892D01*
X226917389Y-75522173D01*
X226991824Y-75596608D01*
X226995109Y-75600162D01*
X227057070Y-75672708D01*
X227060702Y-75677399D01*
X227091813Y-75721830D01*
X227121385Y-75764064D01*
X227123462Y-75767231D01*
X227172862Y-75847845D01*
X227176192Y-75854042D01*
X227222358Y-75953043D01*
X227258208Y-76039598D01*
X227260817Y-76047284D01*
X227290485Y-76158002D01*
X227309760Y-76238290D01*
X227312714Y-76256429D01*
X227325020Y-76397083D01*
X227329309Y-76451575D01*
X227329500Y-76456441D01*
X227329500Y-86992558D01*
X227329309Y-86997424D01*
X227325020Y-87051916D01*
X227312714Y-87192569D01*
X227309760Y-87210707D01*
X227290485Y-87290997D01*
X227260817Y-87401714D01*
X227258208Y-87409399D01*
X227222358Y-87495956D01*
X227176192Y-87594956D01*
X227172862Y-87601153D01*
X227123462Y-87681767D01*
X227121385Y-87684934D01*
X227060707Y-87771592D01*
X227057062Y-87776300D01*
X226995118Y-87848827D01*
X226991812Y-87852403D01*
X226917403Y-87926812D01*
X226913827Y-87930118D01*
X226841300Y-87992062D01*
X226836592Y-87995707D01*
X226749934Y-88056385D01*
X226746767Y-88058462D01*
X226666153Y-88107862D01*
X226659956Y-88111192D01*
X226560956Y-88157358D01*
X226474399Y-88193208D01*
X226466714Y-88195817D01*
X226355997Y-88225485D01*
X226275707Y-88244760D01*
X226257569Y-88247714D01*
X226116916Y-88260020D01*
X226062425Y-88264309D01*
X226057559Y-88264500D01*
X210820500Y-88264500D01*
X210820000Y-88264500D01*
X210720009Y-88264500D01*
X210654169Y-88274928D01*
X210522488Y-88295784D01*
X210332299Y-88357579D01*
X210154112Y-88448371D01*
X210071472Y-88508413D01*
X209992325Y-88565917D01*
X209992323Y-88565919D01*
X209992322Y-88565919D01*
X209850919Y-88707322D01*
X209850919Y-88707323D01*
X209850917Y-88707325D01*
X209823440Y-88745144D01*
X209733371Y-88869112D01*
X209642579Y-89047299D01*
X209580784Y-89237488D01*
X209549500Y-89435009D01*
X209549500Y-94612558D01*
X209549309Y-94617424D01*
X209545020Y-94671916D01*
X209532714Y-94812569D01*
X209529760Y-94830707D01*
X209510485Y-94910997D01*
X209480817Y-95021714D01*
X209478208Y-95029399D01*
X209442358Y-95115956D01*
X209396192Y-95214956D01*
X209392862Y-95221153D01*
X209343462Y-95301767D01*
X209341385Y-95304934D01*
X209280707Y-95391592D01*
X209277062Y-95396300D01*
X209215118Y-95468827D01*
X209211812Y-95472403D01*
X209137403Y-95546812D01*
X209133827Y-95550118D01*
X209061300Y-95612062D01*
X209056592Y-95615707D01*
X208969934Y-95676385D01*
X208966767Y-95678462D01*
X208886153Y-95727862D01*
X208879956Y-95731192D01*
X208780956Y-95777358D01*
X208694399Y-95813208D01*
X208686714Y-95815817D01*
X208575997Y-95845485D01*
X208495707Y-95864760D01*
X208477569Y-95867714D01*
X208336916Y-95880020D01*
X208282425Y-95884309D01*
X208277559Y-95884500D01*
X191772441Y-95884500D01*
X191767575Y-95884309D01*
X191713083Y-95880020D01*
X191572429Y-95867714D01*
X191554290Y-95864760D01*
X191474002Y-95845485D01*
X191363284Y-95815817D01*
X191355598Y-95813208D01*
X191269043Y-95777358D01*
X191170042Y-95731192D01*
X191163845Y-95727862D01*
X191083231Y-95678462D01*
X191080064Y-95676385D01*
X191047182Y-95653361D01*
X190993399Y-95615702D01*
X190988708Y-95612070D01*
X190916162Y-95550109D01*
X190912608Y-95546824D01*
X190838173Y-95472389D01*
X190834892Y-95468840D01*
X190772924Y-95396285D01*
X190769302Y-95391606D01*
X190708608Y-95304926D01*
X190706543Y-95301778D01*
X190657136Y-95221153D01*
X190653806Y-95214955D01*
X190607642Y-95115956D01*
X190587233Y-95066685D01*
X190571790Y-95029400D01*
X190569181Y-95021713D01*
X190539514Y-94910997D01*
X190520235Y-94830696D01*
X190517285Y-94812579D01*
X190504979Y-94671916D01*
X190500691Y-94617424D01*
X190500500Y-94612561D01*
X190500500Y-91702844D01*
X192325000Y-91702844D01*
X192331401Y-91762372D01*
X192331403Y-91762379D01*
X192381645Y-91897086D01*
X192381649Y-91897093D01*
X192467809Y-92012187D01*
X192467812Y-92012190D01*
X192582906Y-92098350D01*
X192582913Y-92098354D01*
X192714986Y-92147614D01*
X192770920Y-92189485D01*
X192795337Y-92254949D01*
X192780486Y-92323222D01*
X192759335Y-92351477D01*
X192636886Y-92473926D01*
X192501400Y-92667420D01*
X192501399Y-92667422D01*
X192401570Y-92881507D01*
X192401567Y-92881513D01*
X192344364Y-93094999D01*
X192344364Y-93095000D01*
X193241314Y-93095000D01*
X193215507Y-93135156D01*
X193175000Y-93273111D01*
X193175000Y-93416889D01*
X193215507Y-93554844D01*
X193241314Y-93595000D01*
X192344364Y-93595000D01*
X192401567Y-93808486D01*
X192401570Y-93808492D01*
X192501399Y-94022578D01*
X192636894Y-94216082D01*
X192803917Y-94383105D01*
X192997421Y-94518600D01*
X193211507Y-94618429D01*
X193211516Y-94618433D01*
X193425000Y-94675634D01*
X193425000Y-93780501D01*
X193532685Y-93829680D01*
X193639237Y-93845000D01*
X193710763Y-93845000D01*
X193817315Y-93829680D01*
X193925000Y-93780501D01*
X193925000Y-94675633D01*
X194138483Y-94618433D01*
X194138492Y-94618429D01*
X194352578Y-94518600D01*
X194546082Y-94383105D01*
X194713105Y-94216082D01*
X194843119Y-94030405D01*
X194897696Y-93986781D01*
X194967195Y-93979588D01*
X195029549Y-94011110D01*
X195046269Y-94030405D01*
X195176505Y-94216401D01*
X195343599Y-94383495D01*
X195440384Y-94451265D01*
X195537165Y-94519032D01*
X195537167Y-94519033D01*
X195537170Y-94519035D01*
X195751337Y-94618903D01*
X195979592Y-94680063D01*
X196167918Y-94696539D01*
X196214999Y-94700659D01*
X196215000Y-94700659D01*
X196215001Y-94700659D01*
X196254234Y-94697226D01*
X196450408Y-94680063D01*
X196678663Y-94618903D01*
X196892830Y-94519035D01*
X197086401Y-94383495D01*
X197253495Y-94216401D01*
X197383425Y-94030842D01*
X197438002Y-93987217D01*
X197507500Y-93980023D01*
X197569855Y-94011546D01*
X197586575Y-94030842D01*
X197716500Y-94216395D01*
X197716505Y-94216401D01*
X197883599Y-94383495D01*
X197980384Y-94451265D01*
X198077165Y-94519032D01*
X198077167Y-94519033D01*
X198077170Y-94519035D01*
X198291337Y-94618903D01*
X198519592Y-94680063D01*
X198707918Y-94696539D01*
X198754999Y-94700659D01*
X198755000Y-94700659D01*
X198755001Y-94700659D01*
X198794234Y-94697226D01*
X198990408Y-94680063D01*
X199218663Y-94618903D01*
X199432830Y-94519035D01*
X199626401Y-94383495D01*
X199793495Y-94216401D01*
X199923425Y-94030842D01*
X199978002Y-93987217D01*
X200047500Y-93980023D01*
X200109855Y-94011546D01*
X200126575Y-94030842D01*
X200256500Y-94216395D01*
X200256505Y-94216401D01*
X200423599Y-94383495D01*
X200520384Y-94451265D01*
X200617165Y-94519032D01*
X200617167Y-94519033D01*
X200617170Y-94519035D01*
X200831337Y-94618903D01*
X201059592Y-94680063D01*
X201247918Y-94696539D01*
X201294999Y-94700659D01*
X201295000Y-94700659D01*
X201295001Y-94700659D01*
X201334234Y-94697226D01*
X201530408Y-94680063D01*
X201758663Y-94618903D01*
X201972830Y-94519035D01*
X202166401Y-94383495D01*
X202333495Y-94216401D01*
X202463425Y-94030842D01*
X202518002Y-93987217D01*
X202587500Y-93980023D01*
X202649855Y-94011546D01*
X202666575Y-94030842D01*
X202796500Y-94216395D01*
X202796505Y-94216401D01*
X202963599Y-94383495D01*
X203060384Y-94451265D01*
X203157165Y-94519032D01*
X203157167Y-94519033D01*
X203157170Y-94519035D01*
X203371337Y-94618903D01*
X203599592Y-94680063D01*
X203787918Y-94696539D01*
X203834999Y-94700659D01*
X203835000Y-94700659D01*
X203835001Y-94700659D01*
X203874234Y-94697226D01*
X204070408Y-94680063D01*
X204298663Y-94618903D01*
X204512830Y-94519035D01*
X204706401Y-94383495D01*
X204873495Y-94216401D01*
X205003425Y-94030842D01*
X205058002Y-93987217D01*
X205127500Y-93980023D01*
X205189855Y-94011546D01*
X205206575Y-94030842D01*
X205336500Y-94216395D01*
X205336505Y-94216401D01*
X205503599Y-94383495D01*
X205600384Y-94451265D01*
X205697165Y-94519032D01*
X205697167Y-94519033D01*
X205697170Y-94519035D01*
X205911337Y-94618903D01*
X206139592Y-94680063D01*
X206327918Y-94696539D01*
X206374999Y-94700659D01*
X206375000Y-94700659D01*
X206375001Y-94700659D01*
X206414234Y-94697226D01*
X206610408Y-94680063D01*
X206838663Y-94618903D01*
X207052830Y-94519035D01*
X207246401Y-94383495D01*
X207413495Y-94216401D01*
X207549035Y-94022830D01*
X207648903Y-93808663D01*
X207710063Y-93580408D01*
X207730659Y-93345000D01*
X207710063Y-93109592D01*
X207648903Y-92881337D01*
X207549035Y-92667171D01*
X207543731Y-92659595D01*
X207413494Y-92473597D01*
X207246402Y-92306506D01*
X207246396Y-92306501D01*
X207060842Y-92176575D01*
X207017217Y-92121998D01*
X207010023Y-92052500D01*
X207041546Y-91990145D01*
X207060842Y-91973425D01*
X207169865Y-91897086D01*
X207246401Y-91843495D01*
X207413495Y-91676401D01*
X207549035Y-91482830D01*
X207648903Y-91268663D01*
X207710063Y-91040408D01*
X207730659Y-90805000D01*
X207710063Y-90569592D01*
X207648903Y-90341337D01*
X207549035Y-90127171D01*
X207543425Y-90119158D01*
X207413494Y-89933597D01*
X207246402Y-89766506D01*
X207246401Y-89766505D01*
X207053376Y-89631347D01*
X207009751Y-89576770D01*
X207000500Y-89529772D01*
X207000500Y-89210452D01*
X207020185Y-89143413D01*
X207036819Y-89122771D01*
X208167528Y-87992062D01*
X209298788Y-86860801D01*
X209311042Y-86850986D01*
X209310859Y-86850764D01*
X209316866Y-86845792D01*
X209316877Y-86845786D01*
X209349290Y-86811269D01*
X209364227Y-86795364D01*
X209374671Y-86784918D01*
X209385120Y-86774471D01*
X209389379Y-86768978D01*
X209393152Y-86764561D01*
X209425062Y-86730582D01*
X209434713Y-86713024D01*
X209445396Y-86696761D01*
X209457673Y-86680936D01*
X209476185Y-86638153D01*
X209478738Y-86632941D01*
X209501197Y-86592092D01*
X209506180Y-86572680D01*
X209512481Y-86554280D01*
X209520437Y-86535896D01*
X209527729Y-86489852D01*
X209528906Y-86484171D01*
X209540500Y-86439019D01*
X209540500Y-86418983D01*
X209542027Y-86399582D01*
X209545160Y-86379804D01*
X209540775Y-86333415D01*
X209540500Y-86327577D01*
X209540500Y-77780452D01*
X209560185Y-77713413D01*
X209576819Y-77692771D01*
X210407772Y-76861819D01*
X210469095Y-76828334D01*
X210495453Y-76825500D01*
X210616000Y-76825500D01*
X210683039Y-76845185D01*
X210728794Y-76897989D01*
X210740000Y-76949500D01*
X210740000Y-77474000D01*
X211656314Y-77474000D01*
X211630507Y-77514156D01*
X211590000Y-77652111D01*
X211590000Y-77795889D01*
X211630507Y-77933844D01*
X211656314Y-77974000D01*
X210740000Y-77974000D01*
X210740000Y-78621844D01*
X210746401Y-78681372D01*
X210746403Y-78681379D01*
X210796645Y-78816086D01*
X210796649Y-78816093D01*
X210882809Y-78931187D01*
X210882812Y-78931190D01*
X210997906Y-79017350D01*
X210997913Y-79017354D01*
X211129986Y-79066614D01*
X211185920Y-79108485D01*
X211210337Y-79173949D01*
X211195486Y-79242222D01*
X211174335Y-79270477D01*
X211051886Y-79392926D01*
X210916400Y-79586420D01*
X210916399Y-79586422D01*
X210816570Y-79800507D01*
X210816567Y-79800513D01*
X210759364Y-80013999D01*
X210759364Y-80014000D01*
X211656314Y-80014000D01*
X211630507Y-80054156D01*
X211590000Y-80192111D01*
X211590000Y-80335889D01*
X211630507Y-80473844D01*
X211656314Y-80514000D01*
X210759364Y-80514000D01*
X210816567Y-80727486D01*
X210816570Y-80727492D01*
X210916399Y-80941578D01*
X211051894Y-81135082D01*
X211218917Y-81302105D01*
X211412421Y-81437600D01*
X211626507Y-81537429D01*
X211626516Y-81537433D01*
X211840000Y-81594634D01*
X211840000Y-80699501D01*
X211947685Y-80748680D01*
X212054237Y-80764000D01*
X212125763Y-80764000D01*
X212232315Y-80748680D01*
X212340000Y-80699501D01*
X212340000Y-81594633D01*
X212553483Y-81537433D01*
X212553492Y-81537429D01*
X212767578Y-81437600D01*
X212961082Y-81302105D01*
X213128105Y-81135082D01*
X213258119Y-80949405D01*
X213312696Y-80905781D01*
X213382195Y-80898588D01*
X213444549Y-80930110D01*
X213461269Y-80949405D01*
X213467521Y-80958334D01*
X213591505Y-81135401D01*
X213758599Y-81302495D01*
X213855384Y-81370265D01*
X213952165Y-81438032D01*
X213952167Y-81438033D01*
X213952170Y-81438035D01*
X214166337Y-81537903D01*
X214394592Y-81599063D01*
X214582918Y-81615539D01*
X214629999Y-81619659D01*
X214630000Y-81619659D01*
X214630001Y-81619659D01*
X214669234Y-81616226D01*
X214865408Y-81599063D01*
X215093663Y-81537903D01*
X215098094Y-81535837D01*
X215167171Y-81525344D01*
X215230955Y-81553863D01*
X215269196Y-81612339D01*
X215274500Y-81648218D01*
X215274500Y-85915312D01*
X215254815Y-85982351D01*
X215242650Y-85998284D01*
X215167466Y-86081784D01*
X215072821Y-86245715D01*
X215072818Y-86245722D01*
X215014327Y-86425740D01*
X215014326Y-86425744D01*
X214994540Y-86614000D01*
X215014326Y-86802256D01*
X215014327Y-86802259D01*
X215072818Y-86982277D01*
X215072821Y-86982284D01*
X215167467Y-87146216D01*
X215242650Y-87229715D01*
X215294129Y-87286888D01*
X215447265Y-87398148D01*
X215447270Y-87398151D01*
X215620192Y-87475142D01*
X215620197Y-87475144D01*
X215805354Y-87514500D01*
X215805355Y-87514500D01*
X215994644Y-87514500D01*
X215994646Y-87514500D01*
X216179803Y-87475144D01*
X216352730Y-87398151D01*
X216505871Y-87286888D01*
X216632533Y-87146216D01*
X216727179Y-86982284D01*
X216785674Y-86802256D01*
X216805460Y-86614000D01*
X216785674Y-86425744D01*
X216727179Y-86245716D01*
X216632533Y-86081784D01*
X216628787Y-86077624D01*
X216557350Y-85998284D01*
X216527120Y-85935292D01*
X216525500Y-85915312D01*
X216525500Y-81648218D01*
X216545185Y-81581179D01*
X216597989Y-81535424D01*
X216667147Y-81525480D01*
X216701906Y-81535837D01*
X216706330Y-81537900D01*
X216706332Y-81537900D01*
X216706337Y-81537903D01*
X216934592Y-81599063D01*
X217122918Y-81615539D01*
X217169999Y-81619659D01*
X217170000Y-81619659D01*
X217170001Y-81619659D01*
X217209234Y-81616226D01*
X217405408Y-81599063D01*
X217633663Y-81537903D01*
X217638094Y-81535837D01*
X217707171Y-81525344D01*
X217770955Y-81553863D01*
X217809196Y-81612339D01*
X217814500Y-81648218D01*
X217814500Y-84645312D01*
X217794815Y-84712351D01*
X217782650Y-84728284D01*
X217707466Y-84811784D01*
X217612821Y-84975715D01*
X217612818Y-84975722D01*
X217561682Y-85133105D01*
X217554326Y-85155744D01*
X217534540Y-85344000D01*
X217554326Y-85532256D01*
X217554327Y-85532259D01*
X217612818Y-85712277D01*
X217612821Y-85712284D01*
X217707467Y-85876216D01*
X217782650Y-85959715D01*
X217834129Y-86016888D01*
X217987265Y-86128148D01*
X217987270Y-86128151D01*
X218160192Y-86205142D01*
X218160197Y-86205144D01*
X218345354Y-86244500D01*
X218345355Y-86244500D01*
X218534644Y-86244500D01*
X218534646Y-86244500D01*
X218719803Y-86205144D01*
X218892730Y-86128151D01*
X219045871Y-86016888D01*
X219172533Y-85876216D01*
X219267179Y-85712284D01*
X219325674Y-85532256D01*
X219345460Y-85344000D01*
X219325674Y-85155744D01*
X219267179Y-84975716D01*
X219172533Y-84811784D01*
X219097350Y-84728284D01*
X219067120Y-84665292D01*
X219065500Y-84645312D01*
X219065500Y-81648218D01*
X219085185Y-81581179D01*
X219137989Y-81535424D01*
X219207147Y-81525480D01*
X219241906Y-81535837D01*
X219246330Y-81537900D01*
X219246332Y-81537900D01*
X219246337Y-81537903D01*
X219474592Y-81599063D01*
X219662918Y-81615539D01*
X219709999Y-81619659D01*
X219710000Y-81619659D01*
X219710001Y-81619659D01*
X219749234Y-81616226D01*
X219945408Y-81599063D01*
X220173663Y-81537903D01*
X220178094Y-81535837D01*
X220247171Y-81525344D01*
X220310955Y-81553863D01*
X220349196Y-81612339D01*
X220354500Y-81648218D01*
X220354500Y-83375312D01*
X220334815Y-83442351D01*
X220322650Y-83458284D01*
X220247466Y-83541784D01*
X220152821Y-83705715D01*
X220152818Y-83705722D01*
X220094327Y-83885740D01*
X220094326Y-83885744D01*
X220074540Y-84074000D01*
X220094326Y-84262256D01*
X220094327Y-84262259D01*
X220152818Y-84442277D01*
X220152821Y-84442284D01*
X220247467Y-84606216D01*
X220357378Y-84728284D01*
X220374129Y-84746888D01*
X220527265Y-84858148D01*
X220527270Y-84858151D01*
X220700192Y-84935142D01*
X220700197Y-84935144D01*
X220885354Y-84974500D01*
X220885355Y-84974500D01*
X221074644Y-84974500D01*
X221074646Y-84974500D01*
X221259803Y-84935144D01*
X221432730Y-84858151D01*
X221585871Y-84746888D01*
X221712533Y-84606216D01*
X221807179Y-84442284D01*
X221865674Y-84262256D01*
X221885460Y-84074000D01*
X221865674Y-83885744D01*
X221807179Y-83705716D01*
X221712533Y-83541784D01*
X221637350Y-83458284D01*
X221607120Y-83395292D01*
X221605500Y-83375312D01*
X221605500Y-81648218D01*
X221625185Y-81581179D01*
X221677989Y-81535424D01*
X221747147Y-81525480D01*
X221781906Y-81535837D01*
X221786330Y-81537900D01*
X221786332Y-81537900D01*
X221786337Y-81537903D01*
X222014592Y-81599063D01*
X222202918Y-81615539D01*
X222249999Y-81619659D01*
X222250000Y-81619659D01*
X222250001Y-81619659D01*
X222289234Y-81616226D01*
X222485408Y-81599063D01*
X222713663Y-81537903D01*
X222927830Y-81438035D01*
X223121401Y-81302495D01*
X223288495Y-81135401D01*
X223412479Y-80958334D01*
X223418425Y-80949842D01*
X223473002Y-80906217D01*
X223542500Y-80899023D01*
X223604855Y-80930546D01*
X223621575Y-80949842D01*
X223751500Y-81135395D01*
X223751505Y-81135401D01*
X223918599Y-81302495D01*
X224015384Y-81370265D01*
X224112165Y-81438032D01*
X224112167Y-81438033D01*
X224112170Y-81438035D01*
X224326337Y-81537903D01*
X224554592Y-81599063D01*
X224742918Y-81615539D01*
X224789999Y-81619659D01*
X224790000Y-81619659D01*
X224790001Y-81619659D01*
X224829234Y-81616226D01*
X225025408Y-81599063D01*
X225253663Y-81537903D01*
X225467830Y-81438035D01*
X225661401Y-81302495D01*
X225828495Y-81135401D01*
X225964035Y-80941830D01*
X226063903Y-80727663D01*
X226125063Y-80499408D01*
X226145659Y-80264000D01*
X226145610Y-80263445D01*
X226137426Y-80169898D01*
X226125063Y-80028592D01*
X226063903Y-79800337D01*
X225964035Y-79586171D01*
X225958731Y-79578595D01*
X225828494Y-79392597D01*
X225661402Y-79225506D01*
X225661396Y-79225501D01*
X225475842Y-79095575D01*
X225432217Y-79040998D01*
X225425023Y-78971500D01*
X225456546Y-78909145D01*
X225475842Y-78892425D01*
X225620460Y-78791162D01*
X225661401Y-78762495D01*
X225828495Y-78595401D01*
X225964035Y-78401830D01*
X226063903Y-78187663D01*
X226125063Y-77959408D01*
X226145659Y-77724000D01*
X226125063Y-77488592D01*
X226063903Y-77260337D01*
X225964035Y-77046171D01*
X225958425Y-77038158D01*
X225828494Y-76852597D01*
X225661402Y-76685506D01*
X225661395Y-76685501D01*
X225467834Y-76549967D01*
X225467830Y-76549965D01*
X225396727Y-76516809D01*
X225253663Y-76450097D01*
X225253659Y-76450096D01*
X225253655Y-76450094D01*
X225025413Y-76388938D01*
X225025403Y-76388936D01*
X224790001Y-76368341D01*
X224789999Y-76368341D01*
X224554590Y-76388937D01*
X224554589Y-76388937D01*
X224454124Y-76415855D01*
X224384274Y-76414191D01*
X224334352Y-76383761D01*
X223766803Y-75816212D01*
X223756980Y-75803950D01*
X223756759Y-75804134D01*
X223751786Y-75798123D01*
X223701364Y-75750773D01*
X223690919Y-75740328D01*
X223680475Y-75729883D01*
X223674986Y-75725625D01*
X223670561Y-75721847D01*
X223636582Y-75689938D01*
X223636580Y-75689936D01*
X223636577Y-75689935D01*
X223619029Y-75680288D01*
X223602763Y-75669604D01*
X223586933Y-75657325D01*
X223544168Y-75638818D01*
X223538922Y-75636248D01*
X223498093Y-75613803D01*
X223498092Y-75613802D01*
X223478693Y-75608822D01*
X223460281Y-75602518D01*
X223441898Y-75594562D01*
X223441892Y-75594560D01*
X223395874Y-75587272D01*
X223390152Y-75586087D01*
X223345021Y-75574500D01*
X223345019Y-75574500D01*
X223324984Y-75574500D01*
X223305586Y-75572973D01*
X223298162Y-75571797D01*
X223285805Y-75569840D01*
X223285804Y-75569840D01*
X223239416Y-75574225D01*
X223233578Y-75574500D01*
X210267737Y-75574500D01*
X210252120Y-75572776D01*
X210252093Y-75573062D01*
X210244331Y-75572327D01*
X210175203Y-75574500D01*
X210145650Y-75574500D01*
X210144929Y-75574590D01*
X210138757Y-75575369D01*
X210132945Y-75575826D01*
X210086373Y-75577290D01*
X210086372Y-75577290D01*
X210067129Y-75582881D01*
X210048079Y-75586825D01*
X210028211Y-75589334D01*
X210028209Y-75589335D01*
X209984884Y-75606488D01*
X209979357Y-75608380D01*
X209934610Y-75621381D01*
X209934609Y-75621382D01*
X209917367Y-75631579D01*
X209899899Y-75640137D01*
X209881269Y-75647513D01*
X209881267Y-75647514D01*
X209843576Y-75674898D01*
X209838694Y-75678105D01*
X209798579Y-75701830D01*
X209784408Y-75716000D01*
X209769623Y-75728628D01*
X209753412Y-75740407D01*
X209723709Y-75776310D01*
X209719777Y-75780631D01*
X208531208Y-76969199D01*
X208518951Y-76979020D01*
X208519134Y-76979241D01*
X208513123Y-76984213D01*
X208465772Y-77034636D01*
X208444889Y-77055519D01*
X208444877Y-77055532D01*
X208440621Y-77061017D01*
X208436837Y-77065447D01*
X208404937Y-77099418D01*
X208404936Y-77099420D01*
X208395284Y-77116976D01*
X208384610Y-77133226D01*
X208372329Y-77149061D01*
X208372324Y-77149068D01*
X208353815Y-77191838D01*
X208351245Y-77197084D01*
X208328803Y-77237906D01*
X208323822Y-77257307D01*
X208317521Y-77275710D01*
X208309562Y-77294102D01*
X208309561Y-77294105D01*
X208302271Y-77340127D01*
X208301087Y-77345846D01*
X208289501Y-77390972D01*
X208289500Y-77390982D01*
X208289500Y-77411016D01*
X208287973Y-77430415D01*
X208284840Y-77450194D01*
X208284840Y-77450195D01*
X208289225Y-77496583D01*
X208289500Y-77502421D01*
X208289500Y-78451867D01*
X208269815Y-78518906D01*
X208217011Y-78564661D01*
X208147853Y-78574605D01*
X208086460Y-78547411D01*
X208068693Y-78532713D01*
X208064381Y-78528790D01*
X207715237Y-78179646D01*
X207681752Y-78118323D01*
X207683142Y-78059876D01*
X207710063Y-77959408D01*
X207730659Y-77724000D01*
X207710063Y-77488592D01*
X207648903Y-77260337D01*
X207549035Y-77046171D01*
X207543425Y-77038158D01*
X207413494Y-76852597D01*
X207246402Y-76685506D01*
X207246395Y-76685501D01*
X207052834Y-76549967D01*
X207052830Y-76549965D01*
X206981727Y-76516809D01*
X206838663Y-76450097D01*
X206838659Y-76450096D01*
X206838655Y-76450094D01*
X206610413Y-76388938D01*
X206610403Y-76388936D01*
X206375001Y-76368341D01*
X206374999Y-76368341D01*
X206139596Y-76388936D01*
X206139586Y-76388938D01*
X205911344Y-76450094D01*
X205911337Y-76450096D01*
X205911337Y-76450097D01*
X205903179Y-76453901D01*
X205697171Y-76549964D01*
X205697169Y-76549965D01*
X205503597Y-76685505D01*
X205336505Y-76852597D01*
X205206575Y-77038158D01*
X205151998Y-77081783D01*
X205082500Y-77088977D01*
X205020145Y-77057454D01*
X205003425Y-77038158D01*
X204873494Y-76852597D01*
X204706402Y-76685506D01*
X204706395Y-76685501D01*
X204512834Y-76549967D01*
X204512830Y-76549965D01*
X204441727Y-76516809D01*
X204298663Y-76450097D01*
X204298659Y-76450096D01*
X204298655Y-76450094D01*
X204070413Y-76388938D01*
X204070403Y-76388936D01*
X203835001Y-76368341D01*
X203834999Y-76368341D01*
X203599596Y-76388936D01*
X203599586Y-76388938D01*
X203371344Y-76450094D01*
X203371337Y-76450096D01*
X203371337Y-76450097D01*
X203363179Y-76453901D01*
X203157171Y-76549964D01*
X203157169Y-76549965D01*
X202963597Y-76685505D01*
X202796505Y-76852597D01*
X202666575Y-77038158D01*
X202611998Y-77081783D01*
X202542500Y-77088977D01*
X202480145Y-77057454D01*
X202463425Y-77038158D01*
X202333494Y-76852597D01*
X202166402Y-76685506D01*
X202166395Y-76685501D01*
X201972834Y-76549967D01*
X201972830Y-76549965D01*
X201901727Y-76516809D01*
X201758663Y-76450097D01*
X201758659Y-76450096D01*
X201758655Y-76450094D01*
X201530413Y-76388938D01*
X201530403Y-76388936D01*
X201295001Y-76368341D01*
X201294999Y-76368341D01*
X201059596Y-76388936D01*
X201059586Y-76388938D01*
X200831344Y-76450094D01*
X200831337Y-76450096D01*
X200831337Y-76450097D01*
X200823179Y-76453901D01*
X200617171Y-76549964D01*
X200617169Y-76549965D01*
X200423597Y-76685505D01*
X200256505Y-76852597D01*
X200126575Y-77038158D01*
X200071998Y-77081783D01*
X200002500Y-77088977D01*
X199940145Y-77057454D01*
X199923425Y-77038158D01*
X199793494Y-76852597D01*
X199626402Y-76685506D01*
X199626395Y-76685501D01*
X199432834Y-76549967D01*
X199432830Y-76549965D01*
X199361727Y-76516809D01*
X199218663Y-76450097D01*
X199218659Y-76450096D01*
X199218655Y-76450094D01*
X198990413Y-76388938D01*
X198990403Y-76388936D01*
X198755001Y-76368341D01*
X198754999Y-76368341D01*
X198519596Y-76388936D01*
X198519586Y-76388938D01*
X198291344Y-76450094D01*
X198291337Y-76450096D01*
X198291337Y-76450097D01*
X198283179Y-76453901D01*
X198077171Y-76549964D01*
X198077169Y-76549965D01*
X197883597Y-76685505D01*
X197716505Y-76852597D01*
X197586575Y-77038158D01*
X197531998Y-77081783D01*
X197462500Y-77088977D01*
X197400145Y-77057454D01*
X197383425Y-77038158D01*
X197253494Y-76852597D01*
X197086402Y-76685506D01*
X197086395Y-76685501D01*
X196892834Y-76549967D01*
X196892830Y-76549965D01*
X196821727Y-76516809D01*
X196678663Y-76450097D01*
X196678659Y-76450096D01*
X196678655Y-76450094D01*
X196450413Y-76388938D01*
X196450403Y-76388936D01*
X196215001Y-76368341D01*
X196214999Y-76368341D01*
X195979596Y-76388936D01*
X195979586Y-76388938D01*
X195751344Y-76450094D01*
X195751337Y-76450096D01*
X195751337Y-76450097D01*
X195743179Y-76453901D01*
X195537171Y-76549964D01*
X195537169Y-76549965D01*
X195343600Y-76685503D01*
X195221284Y-76807819D01*
X195159961Y-76841303D01*
X195090269Y-76836319D01*
X195034336Y-76794447D01*
X195017421Y-76763470D01*
X194968354Y-76631913D01*
X194968350Y-76631906D01*
X194882190Y-76516812D01*
X194882187Y-76516809D01*
X194767093Y-76430649D01*
X194767086Y-76430645D01*
X194632379Y-76380403D01*
X194632372Y-76380401D01*
X194572844Y-76374000D01*
X193925000Y-76374000D01*
X193925000Y-77288498D01*
X193817315Y-77239320D01*
X193710763Y-77224000D01*
X193639237Y-77224000D01*
X193532685Y-77239320D01*
X193425000Y-77288498D01*
X193425000Y-76374000D01*
X192777155Y-76374000D01*
X192717627Y-76380401D01*
X192717620Y-76380403D01*
X192582913Y-76430645D01*
X192582906Y-76430649D01*
X192467812Y-76516809D01*
X192467809Y-76516812D01*
X192381649Y-76631906D01*
X192381645Y-76631913D01*
X192331403Y-76766620D01*
X192331401Y-76766627D01*
X192325000Y-76826155D01*
X192325000Y-77474000D01*
X193241314Y-77474000D01*
X193215507Y-77514156D01*
X193175000Y-77652111D01*
X193175000Y-77795889D01*
X193215507Y-77933844D01*
X193241314Y-77974000D01*
X192325000Y-77974000D01*
X192325000Y-78621844D01*
X192331401Y-78681372D01*
X192331403Y-78681379D01*
X192381645Y-78816086D01*
X192381649Y-78816093D01*
X192467809Y-78931187D01*
X192467812Y-78931190D01*
X192582906Y-79017350D01*
X192582913Y-79017354D01*
X192714986Y-79066614D01*
X192770920Y-79108485D01*
X192795337Y-79173949D01*
X192780486Y-79242222D01*
X192759335Y-79270477D01*
X192636886Y-79392926D01*
X192501400Y-79586420D01*
X192501399Y-79586422D01*
X192401570Y-79800507D01*
X192401567Y-79800513D01*
X192344364Y-80013999D01*
X192344364Y-80014000D01*
X193241314Y-80014000D01*
X193215507Y-80054156D01*
X193175000Y-80192111D01*
X193175000Y-80335889D01*
X193215507Y-80473844D01*
X193241314Y-80514000D01*
X192344364Y-80514000D01*
X192401567Y-80727486D01*
X192401570Y-80727492D01*
X192501399Y-80941578D01*
X192636894Y-81135082D01*
X192803917Y-81302105D01*
X192997421Y-81437600D01*
X193211507Y-81537429D01*
X193211516Y-81537433D01*
X193425000Y-81594634D01*
X193425000Y-80699501D01*
X193532685Y-80748680D01*
X193639237Y-80764000D01*
X193710763Y-80764000D01*
X193817315Y-80748680D01*
X193925000Y-80699501D01*
X193925000Y-81594633D01*
X194138483Y-81537433D01*
X194138492Y-81537429D01*
X194352578Y-81437600D01*
X194546082Y-81302105D01*
X194713105Y-81135082D01*
X194843119Y-80949405D01*
X194897696Y-80905781D01*
X194967195Y-80898588D01*
X195029549Y-80930110D01*
X195046269Y-80949405D01*
X195052521Y-80958334D01*
X195176505Y-81135401D01*
X195176506Y-81135402D01*
X195178181Y-81137077D01*
X195178682Y-81137995D01*
X195179982Y-81139544D01*
X195179670Y-81139805D01*
X195211666Y-81198400D01*
X195214500Y-81224758D01*
X195214500Y-89685569D01*
X195194815Y-89752608D01*
X195142011Y-89798363D01*
X195072853Y-89808307D01*
X195009297Y-89779282D01*
X194974319Y-89728903D01*
X194968356Y-89712917D01*
X194968350Y-89712906D01*
X194882190Y-89597812D01*
X194882187Y-89597809D01*
X194767093Y-89511649D01*
X194767086Y-89511645D01*
X194632379Y-89461403D01*
X194632372Y-89461401D01*
X194572844Y-89455000D01*
X193925000Y-89455000D01*
X193925000Y-90369498D01*
X193817315Y-90320320D01*
X193710763Y-90305000D01*
X193639237Y-90305000D01*
X193532685Y-90320320D01*
X193425000Y-90369498D01*
X193425000Y-89455000D01*
X192777155Y-89455000D01*
X192717627Y-89461401D01*
X192717620Y-89461403D01*
X192582913Y-89511645D01*
X192582906Y-89511649D01*
X192467812Y-89597809D01*
X192467809Y-89597812D01*
X192381649Y-89712906D01*
X192381645Y-89712913D01*
X192331403Y-89847620D01*
X192331401Y-89847627D01*
X192325000Y-89907155D01*
X192325000Y-90555000D01*
X193241314Y-90555000D01*
X193215507Y-90595156D01*
X193175000Y-90733111D01*
X193175000Y-90876889D01*
X193215507Y-91014844D01*
X193241314Y-91055000D01*
X192325000Y-91055000D01*
X192325000Y-91702844D01*
X190500500Y-91702844D01*
X190500500Y-89435009D01*
X190469216Y-89237490D01*
X190407419Y-89047297D01*
X190316629Y-88869113D01*
X190199083Y-88707325D01*
X190057675Y-88565917D01*
X189895887Y-88448371D01*
X189818657Y-88409020D01*
X189717700Y-88357579D01*
X189527511Y-88295784D01*
X189428750Y-88280142D01*
X189329991Y-88264500D01*
X189329990Y-88264500D01*
X173992441Y-88264500D01*
X173987575Y-88264309D01*
X173933083Y-88260020D01*
X173792429Y-88247714D01*
X173774290Y-88244760D01*
X173694002Y-88225485D01*
X173583284Y-88195817D01*
X173575598Y-88193208D01*
X173489043Y-88157358D01*
X173390042Y-88111192D01*
X173383845Y-88107862D01*
X173303231Y-88058462D01*
X173300064Y-88056385D01*
X173267182Y-88033361D01*
X173213399Y-87995702D01*
X173208708Y-87992070D01*
X173136162Y-87930109D01*
X173132608Y-87926824D01*
X173058173Y-87852389D01*
X173054892Y-87848840D01*
X172992924Y-87776285D01*
X172989302Y-87771606D01*
X172928608Y-87684926D01*
X172926543Y-87681778D01*
X172877136Y-87601153D01*
X172873806Y-87594955D01*
X172840196Y-87522879D01*
X172827642Y-87495956D01*
X172800473Y-87430364D01*
X172791790Y-87409400D01*
X172789181Y-87401713D01*
X172759514Y-87290997D01*
X172740235Y-87210696D01*
X172737285Y-87192579D01*
X172724979Y-87051916D01*
X172720691Y-86997424D01*
X172720500Y-86992561D01*
X172720500Y-78621844D01*
X173910000Y-78621844D01*
X173916401Y-78681372D01*
X173916403Y-78681379D01*
X173966645Y-78816086D01*
X173966649Y-78816093D01*
X174052809Y-78931187D01*
X174052812Y-78931190D01*
X174167906Y-79017350D01*
X174167913Y-79017354D01*
X174299986Y-79066614D01*
X174355920Y-79108485D01*
X174380337Y-79173949D01*
X174365486Y-79242222D01*
X174344335Y-79270477D01*
X174221886Y-79392926D01*
X174086400Y-79586420D01*
X174086399Y-79586422D01*
X173986570Y-79800507D01*
X173986567Y-79800513D01*
X173929364Y-80013999D01*
X173929364Y-80014000D01*
X174826314Y-80014000D01*
X174800507Y-80054156D01*
X174760000Y-80192111D01*
X174760000Y-80335889D01*
X174800507Y-80473844D01*
X174826314Y-80514000D01*
X173929364Y-80514000D01*
X173986567Y-80727486D01*
X173986570Y-80727492D01*
X174086399Y-80941578D01*
X174221894Y-81135082D01*
X174388917Y-81302105D01*
X174582421Y-81437600D01*
X174796507Y-81537429D01*
X174796516Y-81537433D01*
X175010000Y-81594634D01*
X175010000Y-80699501D01*
X175117685Y-80748680D01*
X175224237Y-80764000D01*
X175295763Y-80764000D01*
X175402315Y-80748680D01*
X175510000Y-80699501D01*
X175510000Y-81594633D01*
X175723483Y-81537433D01*
X175723492Y-81537429D01*
X175937578Y-81437600D01*
X176131082Y-81302105D01*
X176298105Y-81135082D01*
X176428119Y-80949405D01*
X176482696Y-80905781D01*
X176552195Y-80898588D01*
X176614549Y-80930110D01*
X176631269Y-80949405D01*
X176637521Y-80958334D01*
X176761505Y-81135401D01*
X176928599Y-81302495D01*
X177025384Y-81370265D01*
X177122165Y-81438032D01*
X177122167Y-81438033D01*
X177122170Y-81438035D01*
X177336337Y-81537903D01*
X177564592Y-81599063D01*
X177752918Y-81615539D01*
X177799999Y-81619659D01*
X177800000Y-81619659D01*
X177800001Y-81619659D01*
X177839234Y-81616226D01*
X178035408Y-81599063D01*
X178263663Y-81537903D01*
X178477830Y-81438035D01*
X178671401Y-81302495D01*
X178838495Y-81135401D01*
X178962479Y-80958334D01*
X178968425Y-80949842D01*
X179023002Y-80906217D01*
X179092500Y-80899023D01*
X179154855Y-80930546D01*
X179171575Y-80949842D01*
X179301500Y-81135395D01*
X179301505Y-81135401D01*
X179468599Y-81302495D01*
X179565384Y-81370265D01*
X179662165Y-81438032D01*
X179662167Y-81438033D01*
X179662170Y-81438035D01*
X179876337Y-81537903D01*
X180104592Y-81599063D01*
X180292918Y-81615539D01*
X180339999Y-81619659D01*
X180340000Y-81619659D01*
X180340001Y-81619659D01*
X180379234Y-81616226D01*
X180575408Y-81599063D01*
X180803663Y-81537903D01*
X180808094Y-81535837D01*
X180877171Y-81525344D01*
X180940955Y-81553863D01*
X180979196Y-81612339D01*
X180984500Y-81648218D01*
X180984500Y-84391312D01*
X180964815Y-84458351D01*
X180952650Y-84474284D01*
X180877466Y-84557784D01*
X180782821Y-84721715D01*
X180782818Y-84721722D01*
X180724327Y-84901740D01*
X180724326Y-84901744D01*
X180704540Y-85090000D01*
X180724326Y-85278256D01*
X180724327Y-85278259D01*
X180782818Y-85458277D01*
X180782821Y-85458284D01*
X180877467Y-85622216D01*
X180998132Y-85756228D01*
X181004129Y-85762888D01*
X181157265Y-85874148D01*
X181157270Y-85874151D01*
X181330192Y-85951142D01*
X181330197Y-85951144D01*
X181515354Y-85990500D01*
X181515355Y-85990500D01*
X181704644Y-85990500D01*
X181704646Y-85990500D01*
X181889803Y-85951144D01*
X182062730Y-85874151D01*
X182215871Y-85762888D01*
X182342533Y-85622216D01*
X182437179Y-85458284D01*
X182495674Y-85278256D01*
X182515460Y-85090000D01*
X182495674Y-84901744D01*
X182437179Y-84721716D01*
X182342533Y-84557784D01*
X182267350Y-84474284D01*
X182237120Y-84411292D01*
X182235500Y-84391312D01*
X182235500Y-81648218D01*
X182255185Y-81581179D01*
X182307989Y-81535424D01*
X182377147Y-81525480D01*
X182411906Y-81535837D01*
X182416330Y-81537900D01*
X182416332Y-81537900D01*
X182416337Y-81537903D01*
X182644592Y-81599063D01*
X182832918Y-81615539D01*
X182879999Y-81619659D01*
X182880000Y-81619659D01*
X182880001Y-81619659D01*
X182919234Y-81616226D01*
X183115408Y-81599063D01*
X183343663Y-81537903D01*
X183348094Y-81535837D01*
X183417171Y-81525344D01*
X183480955Y-81553863D01*
X183519196Y-81612339D01*
X183524500Y-81648218D01*
X183524500Y-84645312D01*
X183504815Y-84712351D01*
X183492650Y-84728284D01*
X183417466Y-84811784D01*
X183322821Y-84975715D01*
X183322818Y-84975722D01*
X183271682Y-85133105D01*
X183264326Y-85155744D01*
X183244540Y-85344000D01*
X183264326Y-85532256D01*
X183264327Y-85532259D01*
X183322818Y-85712277D01*
X183322821Y-85712284D01*
X183417467Y-85876216D01*
X183492650Y-85959715D01*
X183544129Y-86016888D01*
X183697265Y-86128148D01*
X183697270Y-86128151D01*
X183870192Y-86205142D01*
X183870197Y-86205144D01*
X184055354Y-86244500D01*
X184055355Y-86244500D01*
X184244644Y-86244500D01*
X184244646Y-86244500D01*
X184429803Y-86205144D01*
X184602730Y-86128151D01*
X184755871Y-86016888D01*
X184882533Y-85876216D01*
X184977179Y-85712284D01*
X185035674Y-85532256D01*
X185055460Y-85344000D01*
X185035674Y-85155744D01*
X184977179Y-84975716D01*
X184882533Y-84811784D01*
X184807350Y-84728284D01*
X184777120Y-84665292D01*
X184775500Y-84645312D01*
X184775500Y-81648218D01*
X184795185Y-81581179D01*
X184847989Y-81535424D01*
X184917147Y-81525480D01*
X184951906Y-81535837D01*
X184956330Y-81537900D01*
X184956332Y-81537900D01*
X184956337Y-81537903D01*
X185184592Y-81599063D01*
X185372918Y-81615539D01*
X185419999Y-81619659D01*
X185420000Y-81619659D01*
X185420001Y-81619659D01*
X185459234Y-81616226D01*
X185655408Y-81599063D01*
X185883663Y-81537903D01*
X185888094Y-81535837D01*
X185957171Y-81525344D01*
X186020955Y-81553863D01*
X186059196Y-81612339D01*
X186064500Y-81648218D01*
X186064500Y-83375312D01*
X186044815Y-83442351D01*
X186032650Y-83458284D01*
X185957466Y-83541784D01*
X185862821Y-83705715D01*
X185862818Y-83705722D01*
X185804327Y-83885740D01*
X185804326Y-83885744D01*
X185784540Y-84074000D01*
X185804326Y-84262256D01*
X185804327Y-84262259D01*
X185862818Y-84442277D01*
X185862821Y-84442284D01*
X185957467Y-84606216D01*
X186067378Y-84728284D01*
X186084129Y-84746888D01*
X186237265Y-84858148D01*
X186237270Y-84858151D01*
X186410192Y-84935142D01*
X186410197Y-84935144D01*
X186595354Y-84974500D01*
X186595355Y-84974500D01*
X186784644Y-84974500D01*
X186784646Y-84974500D01*
X186969803Y-84935144D01*
X187142730Y-84858151D01*
X187295871Y-84746888D01*
X187422533Y-84606216D01*
X187517179Y-84442284D01*
X187575674Y-84262256D01*
X187595460Y-84074000D01*
X187575674Y-83885744D01*
X187517179Y-83705716D01*
X187422533Y-83541784D01*
X187347350Y-83458284D01*
X187317120Y-83395292D01*
X187315500Y-83375312D01*
X187315500Y-81648218D01*
X187335185Y-81581179D01*
X187387989Y-81535424D01*
X187457147Y-81525480D01*
X187491906Y-81535837D01*
X187496330Y-81537900D01*
X187496332Y-81537900D01*
X187496337Y-81537903D01*
X187724592Y-81599063D01*
X187912918Y-81615539D01*
X187959999Y-81619659D01*
X187960000Y-81619659D01*
X187960001Y-81619659D01*
X187999234Y-81616226D01*
X188195408Y-81599063D01*
X188423663Y-81537903D01*
X188637830Y-81438035D01*
X188831401Y-81302495D01*
X188998495Y-81135401D01*
X189134035Y-80941830D01*
X189233903Y-80727663D01*
X189295063Y-80499408D01*
X189315659Y-80264000D01*
X189315659Y-80263999D01*
X189315659Y-80263611D01*
X189315707Y-80263445D01*
X189316131Y-80258606D01*
X189317103Y-80258691D01*
X189335344Y-80196572D01*
X189388148Y-80150817D01*
X189457306Y-80140873D01*
X189520862Y-80169898D01*
X189527328Y-80175919D01*
X189904096Y-80552686D01*
X190473181Y-81121771D01*
X190506666Y-81183094D01*
X190509500Y-81209452D01*
X190509500Y-85896255D01*
X190507775Y-85911872D01*
X190508061Y-85911899D01*
X190507326Y-85919665D01*
X190509500Y-85988814D01*
X190509500Y-86018343D01*
X190509501Y-86018360D01*
X190510368Y-86025231D01*
X190510826Y-86031050D01*
X190512290Y-86077624D01*
X190512291Y-86077627D01*
X190517880Y-86096867D01*
X190521824Y-86115911D01*
X190524336Y-86135792D01*
X190541490Y-86179119D01*
X190543382Y-86184647D01*
X190552425Y-86215773D01*
X190556382Y-86229390D01*
X190566040Y-86245722D01*
X190566580Y-86246634D01*
X190575138Y-86264103D01*
X190582514Y-86282732D01*
X190609898Y-86320423D01*
X190613106Y-86325307D01*
X190636827Y-86365416D01*
X190636833Y-86365424D01*
X190650990Y-86379580D01*
X190663628Y-86394376D01*
X190675405Y-86410586D01*
X190675406Y-86410587D01*
X190711309Y-86440288D01*
X190715620Y-86444210D01*
X191757173Y-87485764D01*
X192101038Y-87829629D01*
X192134523Y-87890952D01*
X192136678Y-87904348D01*
X192139387Y-87930118D01*
X192154326Y-88072256D01*
X192154327Y-88072259D01*
X192212818Y-88252277D01*
X192212821Y-88252284D01*
X192307467Y-88416216D01*
X192409395Y-88529418D01*
X192434129Y-88556888D01*
X192587265Y-88668148D01*
X192587270Y-88668151D01*
X192760192Y-88745142D01*
X192760197Y-88745144D01*
X192945354Y-88784500D01*
X192945355Y-88784500D01*
X193134644Y-88784500D01*
X193134646Y-88784500D01*
X193319803Y-88745144D01*
X193492730Y-88668151D01*
X193645871Y-88556888D01*
X193772533Y-88416216D01*
X193867179Y-88252284D01*
X193925674Y-88072256D01*
X193945460Y-87884000D01*
X193925674Y-87695744D01*
X193867179Y-87515716D01*
X193772533Y-87351784D01*
X193645871Y-87211112D01*
X193645870Y-87211111D01*
X193492734Y-87099851D01*
X193492729Y-87099848D01*
X193319807Y-87022857D01*
X193319802Y-87022855D01*
X193174001Y-86991865D01*
X193134646Y-86983500D01*
X193134645Y-86983500D01*
X193075452Y-86983500D01*
X193008413Y-86963815D01*
X192987771Y-86947181D01*
X191796819Y-85756228D01*
X191763334Y-85694905D01*
X191760500Y-85668547D01*
X191760500Y-80981738D01*
X191762224Y-80966124D01*
X191761938Y-80966097D01*
X191762672Y-80958334D01*
X191760500Y-80889203D01*
X191760500Y-80859651D01*
X191760500Y-80859650D01*
X191759629Y-80852759D01*
X191759172Y-80846945D01*
X191757709Y-80800372D01*
X191752122Y-80781144D01*
X191748174Y-80762084D01*
X191745663Y-80742204D01*
X191728512Y-80698887D01*
X191726619Y-80693358D01*
X191713618Y-80648609D01*
X191713616Y-80648606D01*
X191703423Y-80631371D01*
X191694861Y-80613894D01*
X191687487Y-80595270D01*
X191687486Y-80595268D01*
X191660079Y-80557545D01*
X191656888Y-80552686D01*
X191633172Y-80512583D01*
X191633165Y-80512574D01*
X191619006Y-80498415D01*
X191606368Y-80483619D01*
X191599266Y-80473844D01*
X191594594Y-80467413D01*
X191558688Y-80437709D01*
X191554376Y-80433786D01*
X189300237Y-78179646D01*
X189266752Y-78118323D01*
X189268142Y-78059876D01*
X189295063Y-77959408D01*
X189315659Y-77724000D01*
X189295063Y-77488592D01*
X189233903Y-77260337D01*
X189134035Y-77046171D01*
X189128425Y-77038158D01*
X188998494Y-76852597D01*
X188831402Y-76685506D01*
X188831395Y-76685501D01*
X188637834Y-76549967D01*
X188637830Y-76549965D01*
X188566727Y-76516809D01*
X188423663Y-76450097D01*
X188423659Y-76450096D01*
X188423655Y-76450094D01*
X188195413Y-76388938D01*
X188195403Y-76388936D01*
X187960001Y-76368341D01*
X187959999Y-76368341D01*
X187724596Y-76388936D01*
X187724586Y-76388938D01*
X187496344Y-76450094D01*
X187496337Y-76450096D01*
X187496337Y-76450097D01*
X187488179Y-76453901D01*
X187282171Y-76549964D01*
X187282169Y-76549965D01*
X187088597Y-76685505D01*
X186921505Y-76852597D01*
X186791575Y-77038158D01*
X186736998Y-77081783D01*
X186667500Y-77088977D01*
X186605145Y-77057454D01*
X186588425Y-77038158D01*
X186458494Y-76852597D01*
X186291402Y-76685506D01*
X186291395Y-76685501D01*
X186097834Y-76549967D01*
X186097830Y-76549965D01*
X186026727Y-76516809D01*
X185883663Y-76450097D01*
X185883659Y-76450096D01*
X185883655Y-76450094D01*
X185655413Y-76388938D01*
X185655403Y-76388936D01*
X185420001Y-76368341D01*
X185419999Y-76368341D01*
X185184596Y-76388936D01*
X185184586Y-76388938D01*
X184956344Y-76450094D01*
X184956337Y-76450096D01*
X184956337Y-76450097D01*
X184948179Y-76453901D01*
X184742171Y-76549964D01*
X184742169Y-76549965D01*
X184548597Y-76685505D01*
X184381505Y-76852597D01*
X184251575Y-77038158D01*
X184196998Y-77081783D01*
X184127500Y-77088977D01*
X184065145Y-77057454D01*
X184048425Y-77038158D01*
X183918494Y-76852597D01*
X183751402Y-76685506D01*
X183751395Y-76685501D01*
X183557834Y-76549967D01*
X183557830Y-76549965D01*
X183486727Y-76516809D01*
X183343663Y-76450097D01*
X183343659Y-76450096D01*
X183343655Y-76450094D01*
X183115413Y-76388938D01*
X183115403Y-76388936D01*
X182880001Y-76368341D01*
X182879999Y-76368341D01*
X182644596Y-76388936D01*
X182644586Y-76388938D01*
X182416344Y-76450094D01*
X182416337Y-76450096D01*
X182416337Y-76450097D01*
X182408179Y-76453901D01*
X182202171Y-76549964D01*
X182202169Y-76549965D01*
X182008597Y-76685505D01*
X181841505Y-76852597D01*
X181711575Y-77038158D01*
X181656998Y-77081783D01*
X181587500Y-77088977D01*
X181525145Y-77057454D01*
X181508425Y-77038158D01*
X181378494Y-76852597D01*
X181211402Y-76685506D01*
X181211395Y-76685501D01*
X181017834Y-76549967D01*
X181017830Y-76549965D01*
X180946727Y-76516809D01*
X180803663Y-76450097D01*
X180803659Y-76450096D01*
X180803655Y-76450094D01*
X180575413Y-76388938D01*
X180575403Y-76388936D01*
X180340001Y-76368341D01*
X180339999Y-76368341D01*
X180104596Y-76388936D01*
X180104586Y-76388938D01*
X179876344Y-76450094D01*
X179876337Y-76450096D01*
X179876337Y-76450097D01*
X179868179Y-76453901D01*
X179662171Y-76549964D01*
X179662169Y-76549965D01*
X179468597Y-76685505D01*
X179301505Y-76852597D01*
X179171575Y-77038158D01*
X179116998Y-77081783D01*
X179047500Y-77088977D01*
X178985145Y-77057454D01*
X178968425Y-77038158D01*
X178838494Y-76852597D01*
X178671402Y-76685506D01*
X178671395Y-76685501D01*
X178477834Y-76549967D01*
X178477830Y-76549965D01*
X178406727Y-76516809D01*
X178263663Y-76450097D01*
X178263659Y-76450096D01*
X178263655Y-76450094D01*
X178035413Y-76388938D01*
X178035403Y-76388936D01*
X177800001Y-76368341D01*
X177799999Y-76368341D01*
X177564596Y-76388936D01*
X177564586Y-76388938D01*
X177336344Y-76450094D01*
X177336337Y-76450096D01*
X177336337Y-76450097D01*
X177328179Y-76453901D01*
X177122171Y-76549964D01*
X177122169Y-76549965D01*
X176928600Y-76685503D01*
X176806284Y-76807819D01*
X176744961Y-76841303D01*
X176675269Y-76836319D01*
X176619336Y-76794447D01*
X176602421Y-76763470D01*
X176553354Y-76631913D01*
X176553350Y-76631906D01*
X176467190Y-76516812D01*
X176467187Y-76516809D01*
X176352093Y-76430649D01*
X176352086Y-76430645D01*
X176217379Y-76380403D01*
X176217372Y-76380401D01*
X176157844Y-76374000D01*
X175510000Y-76374000D01*
X175510000Y-77288498D01*
X175402315Y-77239320D01*
X175295763Y-77224000D01*
X175224237Y-77224000D01*
X175117685Y-77239320D01*
X175010000Y-77288498D01*
X175010000Y-76374000D01*
X174362155Y-76374000D01*
X174302627Y-76380401D01*
X174302620Y-76380403D01*
X174167913Y-76430645D01*
X174167906Y-76430649D01*
X174052812Y-76516809D01*
X174052809Y-76516812D01*
X173966649Y-76631906D01*
X173966645Y-76631913D01*
X173916403Y-76766620D01*
X173916401Y-76766627D01*
X173910000Y-76826155D01*
X173910000Y-77474000D01*
X174826314Y-77474000D01*
X174800507Y-77514156D01*
X174760000Y-77652111D01*
X174760000Y-77795889D01*
X174800507Y-77933844D01*
X174826314Y-77974000D01*
X173910000Y-77974000D01*
X173910000Y-78621844D01*
X172720500Y-78621844D01*
X172720500Y-76456438D01*
X172720691Y-76451573D01*
X172724979Y-76397084D01*
X172724980Y-76397083D01*
X172724983Y-76397029D01*
X172737286Y-76256416D01*
X172740234Y-76238307D01*
X172759518Y-76157984D01*
X172789181Y-76047284D01*
X172791790Y-76039598D01*
X172827649Y-75953026D01*
X172873813Y-75854028D01*
X172877127Y-75847860D01*
X172926562Y-75767190D01*
X172928587Y-75764102D01*
X172989316Y-75677372D01*
X172992908Y-75672733D01*
X173054914Y-75600133D01*
X173058149Y-75596634D01*
X173132634Y-75522149D01*
X173136133Y-75518914D01*
X173208733Y-75456908D01*
X173213372Y-75453316D01*
X173300102Y-75392587D01*
X173303190Y-75390562D01*
X173383860Y-75341127D01*
X173390028Y-75337813D01*
X173489026Y-75291649D01*
X173575599Y-75255789D01*
X173583285Y-75253181D01*
X173585617Y-75252556D01*
X173693984Y-75223518D01*
X173774307Y-75204234D01*
X173792416Y-75201286D01*
X173932988Y-75188986D01*
X173987573Y-75184690D01*
X173992438Y-75184500D01*
X178134141Y-75184500D01*
X178134142Y-75184500D01*
X178134142Y-75184499D01*
X178135662Y-75184340D01*
X178142149Y-75184000D01*
X180632851Y-75184000D01*
X180639338Y-75184340D01*
G37*
G04 #@! TD.AperFunction*
G04 #@! TA.AperFunction,Conductor*
G36*
X226709260Y-31135185D02*
G01*
X226755015Y-31187989D01*
X226764959Y-31257147D01*
X226735934Y-31320703D01*
X226689674Y-31354061D01*
X226574168Y-31401905D01*
X226259545Y-31575790D01*
X225966377Y-31783805D01*
X225698339Y-32023339D01*
X225458805Y-32291377D01*
X225250790Y-32584545D01*
X225076905Y-32899168D01*
X224939339Y-33231281D01*
X224839828Y-33576694D01*
X224839826Y-33576703D01*
X224779614Y-33931085D01*
X224779612Y-33931097D01*
X224759457Y-34290000D01*
X224779612Y-34648902D01*
X224779614Y-34648914D01*
X224839826Y-35003296D01*
X224839828Y-35003305D01*
X224932390Y-35324596D01*
X224939341Y-35348724D01*
X224997388Y-35488860D01*
X225070140Y-35664500D01*
X225076906Y-35680833D01*
X225140226Y-35795403D01*
X225250790Y-35995454D01*
X225422113Y-36236910D01*
X225458806Y-36288623D01*
X225698339Y-36556661D01*
X225896334Y-36733600D01*
X225966377Y-36796194D01*
X226127472Y-36910498D01*
X226259548Y-37004211D01*
X226574167Y-37178094D01*
X226906276Y-37315659D01*
X227251700Y-37415173D01*
X227606093Y-37475387D01*
X227965000Y-37495543D01*
X228323907Y-37475387D01*
X228678300Y-37415173D01*
X229023724Y-37315659D01*
X229355833Y-37178094D01*
X229670452Y-37004211D01*
X229963623Y-36796194D01*
X230231661Y-36556661D01*
X230471194Y-36288623D01*
X230679211Y-35995452D01*
X230853094Y-35680833D01*
X230900938Y-35565327D01*
X230944779Y-35510925D01*
X231011073Y-35488860D01*
X231078772Y-35506139D01*
X231126383Y-35557276D01*
X231139499Y-35612781D01*
X231139499Y-69162218D01*
X231119814Y-69229257D01*
X231067010Y-69275012D01*
X230997852Y-69284956D01*
X230934296Y-69255931D01*
X230900938Y-69209671D01*
X230869801Y-69134501D01*
X230853094Y-69094167D01*
X230679211Y-68779548D01*
X230471194Y-68486377D01*
X230231661Y-68218339D01*
X229963623Y-67978806D01*
X229931498Y-67956012D01*
X229670454Y-67770790D01*
X229386207Y-67613693D01*
X229355833Y-67596906D01*
X229342050Y-67591197D01*
X229237322Y-67547817D01*
X229023724Y-67459341D01*
X229023720Y-67459339D01*
X229023718Y-67459339D01*
X228678305Y-67359828D01*
X228678296Y-67359826D01*
X228323914Y-67299614D01*
X228323902Y-67299612D01*
X227965000Y-67279457D01*
X227606097Y-67299612D01*
X227606085Y-67299614D01*
X227251703Y-67359826D01*
X227251694Y-67359828D01*
X226906281Y-67459339D01*
X226574168Y-67596905D01*
X226259545Y-67770790D01*
X225966377Y-67978805D01*
X225698339Y-68218339D01*
X225458805Y-68486377D01*
X225250790Y-68779545D01*
X225076905Y-69094168D01*
X224939339Y-69426281D01*
X224839828Y-69771694D01*
X224839826Y-69771703D01*
X224779614Y-70126085D01*
X224779612Y-70126097D01*
X224759457Y-70485000D01*
X224779612Y-70843902D01*
X224779614Y-70843914D01*
X224839826Y-71198296D01*
X224839828Y-71198305D01*
X224933513Y-71523495D01*
X224939341Y-71543724D01*
X224987105Y-71659035D01*
X225076905Y-71875831D01*
X225250790Y-72190454D01*
X225443373Y-72461873D01*
X225458806Y-72483623D01*
X225698339Y-72751661D01*
X225966377Y-72991194D01*
X226259548Y-73199211D01*
X226574167Y-73373094D01*
X226658461Y-73408010D01*
X226689672Y-73420938D01*
X226744075Y-73464779D01*
X226766140Y-73531073D01*
X226748861Y-73598772D01*
X226697724Y-73646383D01*
X226642219Y-73659499D01*
X221995901Y-73659500D01*
X221915858Y-73659500D01*
X221915857Y-73659500D01*
X221914338Y-73659660D01*
X221907851Y-73660000D01*
X219417149Y-73660000D01*
X219410662Y-73659660D01*
X219409142Y-73659500D01*
X219329099Y-73659500D01*
X213741500Y-73659500D01*
X213741000Y-73659500D01*
X213660858Y-73659500D01*
X213660857Y-73659500D01*
X213659338Y-73659660D01*
X213652851Y-73660000D01*
X211162149Y-73660000D01*
X211155662Y-73659660D01*
X211154142Y-73659500D01*
X211074099Y-73659500D01*
X205486500Y-73659500D01*
X205486000Y-73659500D01*
X205405858Y-73659500D01*
X205405857Y-73659500D01*
X205404338Y-73659660D01*
X205397851Y-73660000D01*
X202907149Y-73660000D01*
X202900662Y-73659660D01*
X202899142Y-73659500D01*
X202819099Y-73659500D01*
X197231500Y-73659500D01*
X197231000Y-73659500D01*
X197150858Y-73659500D01*
X197150857Y-73659500D01*
X197149338Y-73659660D01*
X197142851Y-73660000D01*
X194652149Y-73660000D01*
X194645662Y-73659660D01*
X194644142Y-73659500D01*
X194564099Y-73659500D01*
X188976500Y-73659500D01*
X188976000Y-73659500D01*
X188895858Y-73659500D01*
X188895857Y-73659500D01*
X188894338Y-73659660D01*
X188887851Y-73660000D01*
X186397149Y-73660000D01*
X186390662Y-73659660D01*
X186389142Y-73659500D01*
X186309099Y-73659500D01*
X180721500Y-73659500D01*
X180721000Y-73659500D01*
X180640858Y-73659500D01*
X180640857Y-73659500D01*
X180639338Y-73659660D01*
X180632851Y-73660000D01*
X178142149Y-73660000D01*
X178135662Y-73659660D01*
X178134142Y-73659500D01*
X178134141Y-73659500D01*
X173407779Y-73659500D01*
X173340740Y-73639815D01*
X173294985Y-73587011D01*
X173285041Y-73517853D01*
X173314066Y-73454297D01*
X173360326Y-73420939D01*
X173391539Y-73408010D01*
X173475833Y-73373094D01*
X173790452Y-73199211D01*
X174083623Y-72991194D01*
X174351661Y-72751661D01*
X174591194Y-72483623D01*
X174799211Y-72190452D01*
X174973094Y-71875833D01*
X175110659Y-71543724D01*
X175210173Y-71198300D01*
X175270387Y-70843907D01*
X175290543Y-70485000D01*
X175270896Y-70135159D01*
X175286791Y-70067122D01*
X175336946Y-70018478D01*
X175405438Y-70004673D01*
X175470521Y-70030088D01*
X175482382Y-70040526D01*
X177943992Y-72502136D01*
X177947396Y-72505829D01*
X177984362Y-72549350D01*
X177984363Y-72549351D01*
X177984365Y-72549352D01*
X177984369Y-72549357D01*
X178050737Y-72599808D01*
X178115699Y-72652027D01*
X178115701Y-72652029D01*
X178115872Y-72652114D01*
X178135814Y-72664483D01*
X178135971Y-72664602D01*
X178211640Y-72699610D01*
X178286307Y-72736641D01*
X178286481Y-72736684D01*
X178308626Y-72744480D01*
X178308803Y-72744562D01*
X178308806Y-72744562D01*
X178308807Y-72744563D01*
X178308806Y-72744563D01*
X178390228Y-72762485D01*
X178398850Y-72764629D01*
X178471111Y-72782600D01*
X178471284Y-72782604D01*
X178494602Y-72785460D01*
X178494784Y-72785500D01*
X178494787Y-72785500D01*
X178578160Y-72785500D01*
X178661473Y-72787757D01*
X178661655Y-72787721D01*
X178685023Y-72785500D01*
X183321898Y-72785500D01*
X183326932Y-72785705D01*
X183383844Y-72790339D01*
X183383845Y-72790338D01*
X183383848Y-72790339D01*
X183466441Y-72779085D01*
X183549316Y-72770073D01*
X183549481Y-72770017D01*
X183572357Y-72764655D01*
X183572537Y-72764631D01*
X183650793Y-72735880D01*
X183729780Y-72709267D01*
X183729928Y-72709178D01*
X183751116Y-72699024D01*
X183751288Y-72698961D01*
X183821536Y-72654059D01*
X183892954Y-72611089D01*
X183893083Y-72610966D01*
X183911597Y-72596494D01*
X183911607Y-72596487D01*
X183911744Y-72596400D01*
X183941219Y-72566923D01*
X183970696Y-72537448D01*
X184007987Y-72502124D01*
X184031207Y-72480129D01*
X184031306Y-72479983D01*
X184046264Y-72461878D01*
X184636053Y-71872089D01*
X184697374Y-71838606D01*
X184734540Y-71836244D01*
X184784999Y-71840659D01*
X184785000Y-71840659D01*
X184785001Y-71840659D01*
X184824234Y-71837226D01*
X185020408Y-71820063D01*
X185248663Y-71758903D01*
X185462830Y-71659035D01*
X185656401Y-71523495D01*
X185823495Y-71356401D01*
X185953425Y-71170842D01*
X186008002Y-71127217D01*
X186077500Y-71120023D01*
X186139855Y-71151546D01*
X186156575Y-71170842D01*
X186286500Y-71356395D01*
X186286505Y-71356401D01*
X186453599Y-71523495D01*
X186550384Y-71591265D01*
X186647165Y-71659032D01*
X186647167Y-71659033D01*
X186647170Y-71659035D01*
X186861337Y-71758903D01*
X187089592Y-71820063D01*
X187277918Y-71836539D01*
X187324999Y-71840659D01*
X187325000Y-71840659D01*
X187325001Y-71840659D01*
X187364234Y-71837226D01*
X187560408Y-71820063D01*
X187788663Y-71758903D01*
X188002830Y-71659035D01*
X188196401Y-71523495D01*
X188363495Y-71356401D01*
X188493425Y-71170842D01*
X188548002Y-71127217D01*
X188617500Y-71120023D01*
X188679855Y-71151546D01*
X188696575Y-71170842D01*
X188826500Y-71356395D01*
X188826505Y-71356401D01*
X188993599Y-71523495D01*
X189090384Y-71591265D01*
X189187165Y-71659032D01*
X189187167Y-71659033D01*
X189187170Y-71659035D01*
X189401337Y-71758903D01*
X189629592Y-71820063D01*
X189817918Y-71836539D01*
X189864999Y-71840659D01*
X189865000Y-71840659D01*
X189865001Y-71840659D01*
X189904234Y-71837226D01*
X190100408Y-71820063D01*
X190328663Y-71758903D01*
X190542830Y-71659035D01*
X190736401Y-71523495D01*
X190903495Y-71356401D01*
X191039035Y-71162830D01*
X191138903Y-70948663D01*
X191200063Y-70720408D01*
X191220659Y-70485000D01*
X191200063Y-70249592D01*
X191138903Y-70021337D01*
X191039035Y-69807171D01*
X191014201Y-69771703D01*
X190903494Y-69613597D01*
X190736402Y-69446506D01*
X190736395Y-69446501D01*
X190542834Y-69310967D01*
X190542830Y-69310965D01*
X190489597Y-69286142D01*
X190328663Y-69211097D01*
X190328659Y-69211096D01*
X190328655Y-69211094D01*
X190100413Y-69149938D01*
X190100403Y-69149936D01*
X189865001Y-69129341D01*
X189864996Y-69129341D01*
X189814539Y-69133755D01*
X189746039Y-69119988D01*
X189716052Y-69097908D01*
X188209333Y-67591189D01*
X186700999Y-66082855D01*
X186697608Y-66079176D01*
X186684584Y-66063843D01*
X190889660Y-66063843D01*
X190900914Y-66146441D01*
X190909927Y-66229316D01*
X190909929Y-66229327D01*
X190909990Y-66229506D01*
X190915340Y-66252331D01*
X190915366Y-66252525D01*
X190915369Y-66252536D01*
X190944119Y-66330794D01*
X190970730Y-66409774D01*
X190970734Y-66409782D01*
X190970832Y-66409945D01*
X190980969Y-66431099D01*
X190981036Y-66431283D01*
X190981038Y-66431286D01*
X191021141Y-66494029D01*
X191025940Y-66501536D01*
X191068911Y-66572954D01*
X191069042Y-66573092D01*
X191083495Y-66591579D01*
X191083602Y-66591747D01*
X191131275Y-66639419D01*
X191142552Y-66650696D01*
X191199871Y-66711207D01*
X191200028Y-66711314D01*
X191218121Y-66726265D01*
X194828181Y-70336325D01*
X194861666Y-70397648D01*
X194864500Y-70424006D01*
X194864500Y-71382870D01*
X194864501Y-71382876D01*
X194870908Y-71442483D01*
X194921202Y-71577328D01*
X194921206Y-71577335D01*
X195007452Y-71692544D01*
X195007455Y-71692547D01*
X195122664Y-71778793D01*
X195122671Y-71778797D01*
X195257517Y-71829091D01*
X195257516Y-71829091D01*
X195264444Y-71829835D01*
X195317127Y-71835500D01*
X197112872Y-71835499D01*
X197172483Y-71829091D01*
X197307331Y-71778796D01*
X197422546Y-71692546D01*
X197508796Y-71577331D01*
X197557810Y-71445916D01*
X197599681Y-71389984D01*
X197665145Y-71365566D01*
X197733418Y-71380417D01*
X197761673Y-71401569D01*
X197883599Y-71523495D01*
X197980384Y-71591265D01*
X198077165Y-71659032D01*
X198077167Y-71659033D01*
X198077170Y-71659035D01*
X198291337Y-71758903D01*
X198519592Y-71820063D01*
X198707918Y-71836539D01*
X198754999Y-71840659D01*
X198755000Y-71840659D01*
X198755001Y-71840659D01*
X198794234Y-71837226D01*
X198990408Y-71820063D01*
X199218663Y-71758903D01*
X199432830Y-71659035D01*
X199626401Y-71523495D01*
X199793495Y-71356401D01*
X199923425Y-71170842D01*
X199978002Y-71127217D01*
X200047500Y-71120023D01*
X200109855Y-71151546D01*
X200126575Y-71170842D01*
X200256500Y-71356395D01*
X200256505Y-71356401D01*
X200423599Y-71523495D01*
X200520384Y-71591265D01*
X200617165Y-71659032D01*
X200617167Y-71659033D01*
X200617170Y-71659035D01*
X200831337Y-71758903D01*
X201059592Y-71820063D01*
X201247918Y-71836539D01*
X201294999Y-71840659D01*
X201295000Y-71840659D01*
X201295001Y-71840659D01*
X201334234Y-71837226D01*
X201530408Y-71820063D01*
X201758663Y-71758903D01*
X201972830Y-71659035D01*
X202166401Y-71523495D01*
X202333495Y-71356401D01*
X202463425Y-71170842D01*
X202518002Y-71127217D01*
X202587500Y-71120023D01*
X202649855Y-71151546D01*
X202666575Y-71170842D01*
X202796500Y-71356395D01*
X202796505Y-71356401D01*
X202963599Y-71523495D01*
X203060384Y-71591265D01*
X203157165Y-71659032D01*
X203157167Y-71659033D01*
X203157170Y-71659035D01*
X203371337Y-71758903D01*
X203599592Y-71820063D01*
X203787918Y-71836539D01*
X203834999Y-71840659D01*
X203835000Y-71840659D01*
X203835001Y-71840659D01*
X203874234Y-71837226D01*
X204070408Y-71820063D01*
X204298663Y-71758903D01*
X204512830Y-71659035D01*
X204706401Y-71523495D01*
X204847026Y-71382870D01*
X208834500Y-71382870D01*
X208834501Y-71382876D01*
X208840908Y-71442483D01*
X208891202Y-71577328D01*
X208891206Y-71577335D01*
X208977452Y-71692544D01*
X208977455Y-71692547D01*
X209092664Y-71778793D01*
X209092671Y-71778797D01*
X209227517Y-71829091D01*
X209227516Y-71829091D01*
X209234444Y-71829835D01*
X209287127Y-71835500D01*
X211082872Y-71835499D01*
X211142483Y-71829091D01*
X211277331Y-71778796D01*
X211392546Y-71692546D01*
X211478796Y-71577331D01*
X211527810Y-71445916D01*
X211569681Y-71389984D01*
X211635145Y-71365566D01*
X211703418Y-71380417D01*
X211731673Y-71401569D01*
X211853599Y-71523495D01*
X211950384Y-71591265D01*
X212047165Y-71659032D01*
X212047167Y-71659033D01*
X212047170Y-71659035D01*
X212261337Y-71758903D01*
X212489592Y-71820063D01*
X212677918Y-71836539D01*
X212724999Y-71840659D01*
X212725000Y-71840659D01*
X212725001Y-71840659D01*
X212764234Y-71837226D01*
X212960408Y-71820063D01*
X213188663Y-71758903D01*
X213402830Y-71659035D01*
X213596401Y-71523495D01*
X213763495Y-71356401D01*
X213893425Y-71170842D01*
X213948002Y-71127217D01*
X214017500Y-71120023D01*
X214079855Y-71151546D01*
X214096575Y-71170842D01*
X214226500Y-71356395D01*
X214226505Y-71356401D01*
X214393599Y-71523495D01*
X214490384Y-71591265D01*
X214587165Y-71659032D01*
X214587167Y-71659033D01*
X214587170Y-71659035D01*
X214801337Y-71758903D01*
X215029592Y-71820063D01*
X215217918Y-71836539D01*
X215264999Y-71840659D01*
X215265000Y-71840659D01*
X215265001Y-71840659D01*
X215304234Y-71837226D01*
X215500408Y-71820063D01*
X215728663Y-71758903D01*
X215942830Y-71659035D01*
X216136401Y-71523495D01*
X216303495Y-71356401D01*
X216433425Y-71170842D01*
X216488002Y-71127217D01*
X216557500Y-71120023D01*
X216619855Y-71151546D01*
X216636575Y-71170842D01*
X216766500Y-71356395D01*
X216766505Y-71356401D01*
X216933599Y-71523495D01*
X217030384Y-71591265D01*
X217127165Y-71659032D01*
X217127167Y-71659033D01*
X217127170Y-71659035D01*
X217341337Y-71758903D01*
X217569592Y-71820063D01*
X217757918Y-71836539D01*
X217804999Y-71840659D01*
X217805000Y-71840659D01*
X217805001Y-71840659D01*
X217844234Y-71837226D01*
X218040408Y-71820063D01*
X218268663Y-71758903D01*
X218482830Y-71659035D01*
X218676401Y-71523495D01*
X218843495Y-71356401D01*
X218979035Y-71162830D01*
X219078903Y-70948663D01*
X219140063Y-70720408D01*
X219160659Y-70485000D01*
X219156244Y-70434540D01*
X219170010Y-70366040D01*
X219192088Y-70336054D01*
X221572142Y-67956000D01*
X221575810Y-67952618D01*
X221619357Y-67915631D01*
X221669808Y-67849262D01*
X221722030Y-67784297D01*
X221722109Y-67784138D01*
X221734489Y-67764177D01*
X221734602Y-67764029D01*
X221769610Y-67688359D01*
X221806641Y-67613693D01*
X221806685Y-67613514D01*
X221814484Y-67591363D01*
X221814562Y-67591197D01*
X221824111Y-67547817D01*
X221832485Y-67509771D01*
X221843716Y-67464609D01*
X221852600Y-67428889D01*
X221852604Y-67428715D01*
X221855461Y-67405391D01*
X221855500Y-67405216D01*
X221855500Y-67321840D01*
X221857757Y-67238527D01*
X221857720Y-67238334D01*
X221855500Y-67214975D01*
X221855500Y-57823110D01*
X221855705Y-57818075D01*
X221860340Y-57761154D01*
X221860340Y-57761152D01*
X221849082Y-57678521D01*
X221840073Y-57595684D01*
X221840016Y-57595515D01*
X221834656Y-57572646D01*
X221834632Y-57572463D01*
X221834630Y-57572458D01*
X221834630Y-57572456D01*
X221805874Y-57494187D01*
X221779267Y-57415220D01*
X221779266Y-57415218D01*
X221779173Y-57415063D01*
X221769026Y-57393889D01*
X221768961Y-57393712D01*
X221724059Y-57323463D01*
X221708088Y-57296919D01*
X221681090Y-57252047D01*
X221680957Y-57251907D01*
X221666504Y-57233419D01*
X221666400Y-57233256D01*
X221607447Y-57174303D01*
X221550129Y-57113793D01*
X221549970Y-57113685D01*
X221531877Y-57098733D01*
X216567034Y-52133890D01*
X216533549Y-52072567D01*
X216531187Y-52057016D01*
X216513070Y-51849937D01*
X216513070Y-51849932D01*
X216455894Y-51636550D01*
X216362534Y-51436339D01*
X216235826Y-51255380D01*
X216079620Y-51099174D01*
X216079616Y-51099171D01*
X216079615Y-51099170D01*
X215898666Y-50972468D01*
X215898658Y-50972464D01*
X215769219Y-50912106D01*
X215716779Y-50865934D01*
X215697627Y-50798741D01*
X215717843Y-50731859D01*
X215769219Y-50687342D01*
X215898408Y-50627100D01*
X215898420Y-50627093D01*
X215963186Y-50581742D01*
X215963187Y-50581740D01*
X215404600Y-50023152D01*
X215409592Y-50022435D01*
X215542470Y-49961752D01*
X215652869Y-49866090D01*
X215731845Y-49743201D01*
X215754522Y-49665969D01*
X216316740Y-50228187D01*
X216316742Y-50228186D01*
X216362093Y-50163420D01*
X216362100Y-50163408D01*
X216455419Y-49963284D01*
X216455424Y-49963270D01*
X216512573Y-49749986D01*
X216512575Y-49749976D01*
X216531821Y-49530000D01*
X216531821Y-49529999D01*
X216512575Y-49310023D01*
X216512573Y-49310013D01*
X216455424Y-49096729D01*
X216455420Y-49096720D01*
X216362098Y-48896590D01*
X216316740Y-48831811D01*
X215754521Y-49394029D01*
X215731845Y-49316799D01*
X215652869Y-49193910D01*
X215542470Y-49098248D01*
X215409592Y-49037565D01*
X215404599Y-49036847D01*
X215963187Y-48478258D01*
X215898409Y-48432900D01*
X215898407Y-48432899D01*
X215769219Y-48372658D01*
X215716779Y-48326486D01*
X215697627Y-48259293D01*
X215717843Y-48192411D01*
X215769219Y-48147894D01*
X215898662Y-48087534D01*
X216079620Y-47960826D01*
X216235826Y-47804620D01*
X216362534Y-47623662D01*
X216455894Y-47423450D01*
X216513070Y-47210068D01*
X216532323Y-46990000D01*
X216513070Y-46769932D01*
X216455894Y-46556550D01*
X216362534Y-46356339D01*
X216281423Y-46240500D01*
X216235827Y-46175381D01*
X216180962Y-46120516D01*
X216079620Y-46019174D01*
X216079616Y-46019171D01*
X216079615Y-46019170D01*
X215898666Y-45892468D01*
X215898662Y-45892466D01*
X215851457Y-45870454D01*
X215698450Y-45799106D01*
X215698447Y-45799105D01*
X215698445Y-45799104D01*
X215485070Y-45741930D01*
X215485062Y-45741929D01*
X215265002Y-45722677D01*
X215264998Y-45722677D01*
X215044937Y-45741929D01*
X215044929Y-45741930D01*
X214831554Y-45799104D01*
X214831548Y-45799107D01*
X214631340Y-45892465D01*
X214631338Y-45892466D01*
X214450377Y-46019175D01*
X214294175Y-46175377D01*
X214167466Y-46356338D01*
X214167465Y-46356340D01*
X214074107Y-46556548D01*
X214074104Y-46556554D01*
X214016930Y-46769929D01*
X214016929Y-46769937D01*
X213997677Y-46989997D01*
X213997677Y-46990002D01*
X214016929Y-47210062D01*
X214016930Y-47210070D01*
X214074104Y-47423445D01*
X214074105Y-47423447D01*
X214074106Y-47423450D01*
X214158256Y-47603911D01*
X214167466Y-47623662D01*
X214167468Y-47623666D01*
X214294170Y-47804615D01*
X214294175Y-47804621D01*
X214450378Y-47960824D01*
X214450384Y-47960829D01*
X214631333Y-48087531D01*
X214631335Y-48087532D01*
X214631338Y-48087534D01*
X214760781Y-48147894D01*
X214813220Y-48194066D01*
X214832372Y-48261260D01*
X214812156Y-48328141D01*
X214760781Y-48372658D01*
X214631586Y-48432903D01*
X214566812Y-48478257D01*
X214566811Y-48478258D01*
X215125400Y-49036847D01*
X215120408Y-49037565D01*
X214987530Y-49098248D01*
X214877131Y-49193910D01*
X214798155Y-49316799D01*
X214775477Y-49394030D01*
X214213258Y-48831811D01*
X214213257Y-48831812D01*
X214167903Y-48896586D01*
X214074579Y-49096720D01*
X214074575Y-49096729D01*
X214017426Y-49310013D01*
X214017424Y-49310023D01*
X213998179Y-49529999D01*
X213998179Y-49530000D01*
X214017424Y-49749976D01*
X214017426Y-49749986D01*
X214074575Y-49963270D01*
X214074580Y-49963284D01*
X214167899Y-50163407D01*
X214167900Y-50163409D01*
X214213258Y-50228187D01*
X214775477Y-49665968D01*
X214798155Y-49743201D01*
X214877131Y-49866090D01*
X214987530Y-49961752D01*
X215120408Y-50022435D01*
X215125400Y-50023152D01*
X214566811Y-50581741D01*
X214631582Y-50627094D01*
X214631588Y-50627098D01*
X214760781Y-50687342D01*
X214813220Y-50733514D01*
X214832372Y-50800708D01*
X214812156Y-50867589D01*
X214760781Y-50912106D01*
X214631340Y-50972465D01*
X214631338Y-50972466D01*
X214450377Y-51099175D01*
X214294175Y-51255377D01*
X214167466Y-51436338D01*
X214167465Y-51436340D01*
X214074107Y-51636548D01*
X214074104Y-51636554D01*
X214016930Y-51849929D01*
X214016929Y-51849937D01*
X213997677Y-52069997D01*
X213997677Y-52070002D01*
X214016929Y-52290062D01*
X214016930Y-52290070D01*
X214074104Y-52503445D01*
X214074105Y-52503447D01*
X214074106Y-52503450D01*
X214167466Y-52703662D01*
X214167468Y-52703666D01*
X214294170Y-52884615D01*
X214294175Y-52884621D01*
X214450378Y-53040824D01*
X214450384Y-53040829D01*
X214631333Y-53167531D01*
X214631335Y-53167532D01*
X214631338Y-53167534D01*
X214750748Y-53223215D01*
X214760189Y-53227618D01*
X214812628Y-53273790D01*
X214831780Y-53340984D01*
X214811564Y-53407865D01*
X214760189Y-53452382D01*
X214631340Y-53512465D01*
X214631338Y-53512466D01*
X214450377Y-53639175D01*
X214294175Y-53795377D01*
X214167466Y-53976338D01*
X214167465Y-53976340D01*
X214074107Y-54176548D01*
X214074104Y-54176554D01*
X214016930Y-54389929D01*
X214016929Y-54389937D01*
X213997677Y-54609997D01*
X213997677Y-54610002D01*
X214016929Y-54830062D01*
X214016930Y-54830070D01*
X214074104Y-55043445D01*
X214074105Y-55043447D01*
X214074106Y-55043450D01*
X214167466Y-55243662D01*
X214167468Y-55243666D01*
X214294170Y-55424615D01*
X214294175Y-55424621D01*
X214450378Y-55580824D01*
X214450384Y-55580829D01*
X214631333Y-55707531D01*
X214631335Y-55707532D01*
X214631338Y-55707534D01*
X214750748Y-55763215D01*
X214760189Y-55767618D01*
X214812628Y-55813790D01*
X214831780Y-55880984D01*
X214811564Y-55947865D01*
X214760189Y-55992382D01*
X214631340Y-56052465D01*
X214631338Y-56052466D01*
X214450377Y-56179175D01*
X214294175Y-56335377D01*
X214167466Y-56516338D01*
X214167465Y-56516340D01*
X214074107Y-56716548D01*
X214074104Y-56716554D01*
X214016930Y-56929929D01*
X214016929Y-56929936D01*
X213998812Y-57137016D01*
X213973359Y-57202084D01*
X213962965Y-57213889D01*
X212767873Y-58408982D01*
X212764170Y-58412396D01*
X212720641Y-58449370D01*
X212670191Y-58515737D01*
X212617970Y-58580701D01*
X212617968Y-58580704D01*
X212617879Y-58580885D01*
X212605529Y-58600796D01*
X212605400Y-58600964D01*
X212605397Y-58600970D01*
X212584605Y-58645913D01*
X212570389Y-58676640D01*
X212551798Y-58714124D01*
X212533359Y-58751305D01*
X212533354Y-58751319D01*
X212533309Y-58751503D01*
X212525527Y-58773609D01*
X212525441Y-58773794D01*
X212525438Y-58773803D01*
X212507514Y-58855229D01*
X212487399Y-58936113D01*
X212487394Y-58936310D01*
X212484545Y-58959575D01*
X212484500Y-58959778D01*
X212484500Y-59043160D01*
X212482243Y-59126473D01*
X212482278Y-59126655D01*
X212484500Y-59150023D01*
X212484500Y-66895993D01*
X212464815Y-66963032D01*
X212448181Y-66983674D01*
X210333673Y-69098181D01*
X210272350Y-69131666D01*
X210245992Y-69134500D01*
X209287129Y-69134500D01*
X209287123Y-69134501D01*
X209227516Y-69140908D01*
X209092671Y-69191202D01*
X209092664Y-69191206D01*
X208977455Y-69277452D01*
X208977452Y-69277455D01*
X208891206Y-69392664D01*
X208891202Y-69392671D01*
X208840908Y-69527517D01*
X208834501Y-69587116D01*
X208834500Y-69587135D01*
X208834500Y-71382870D01*
X204847026Y-71382870D01*
X204873495Y-71356401D01*
X205009035Y-71162830D01*
X205108903Y-70948663D01*
X205170063Y-70720408D01*
X205190659Y-70485000D01*
X205170063Y-70249592D01*
X205108903Y-70021337D01*
X205009035Y-69807171D01*
X204984201Y-69771703D01*
X204873494Y-69613597D01*
X204706402Y-69446506D01*
X204706395Y-69446501D01*
X204512834Y-69310967D01*
X204512830Y-69310965D01*
X204459597Y-69286142D01*
X204298663Y-69211097D01*
X204298659Y-69211096D01*
X204298655Y-69211094D01*
X204070413Y-69149938D01*
X204070403Y-69149936D01*
X203835001Y-69129341D01*
X203834996Y-69129341D01*
X203784539Y-69133755D01*
X203716039Y-69119988D01*
X203686052Y-69097908D01*
X200301819Y-65713675D01*
X200268334Y-65652352D01*
X200265500Y-65625994D01*
X200265500Y-57886610D01*
X200265705Y-57881575D01*
X200270340Y-57824654D01*
X200270340Y-57824652D01*
X200259082Y-57742021D01*
X200250073Y-57659184D01*
X200250016Y-57659015D01*
X200244656Y-57636146D01*
X200244632Y-57635963D01*
X200244630Y-57635958D01*
X200244630Y-57635956D01*
X200215874Y-57557687D01*
X200189267Y-57478720D01*
X200189266Y-57478718D01*
X200189173Y-57478563D01*
X200179026Y-57457389D01*
X200178961Y-57457212D01*
X200134059Y-57386963D01*
X200120747Y-57364838D01*
X200091090Y-57315547D01*
X200090957Y-57315407D01*
X200076504Y-57296919D01*
X200076400Y-57296756D01*
X200017447Y-57237803D01*
X199960129Y-57177293D01*
X199959970Y-57177185D01*
X199941877Y-57162233D01*
X194975753Y-52196109D01*
X194942268Y-52134786D01*
X194939906Y-52097622D01*
X194942323Y-52070000D01*
X194923070Y-51849932D01*
X194865894Y-51636550D01*
X194772534Y-51436339D01*
X194645826Y-51255380D01*
X194489620Y-51099174D01*
X194489616Y-51099171D01*
X194489615Y-51099170D01*
X194308666Y-50972468D01*
X194308658Y-50972464D01*
X194179219Y-50912106D01*
X194126779Y-50865934D01*
X194107627Y-50798741D01*
X194127843Y-50731859D01*
X194179219Y-50687342D01*
X194308408Y-50627100D01*
X194308420Y-50627093D01*
X194373186Y-50581742D01*
X194373187Y-50581740D01*
X193814600Y-50023152D01*
X193819592Y-50022435D01*
X193952470Y-49961752D01*
X194062869Y-49866090D01*
X194141845Y-49743201D01*
X194164522Y-49665969D01*
X194726740Y-50228187D01*
X194726742Y-50228186D01*
X194772093Y-50163420D01*
X194772100Y-50163408D01*
X194865419Y-49963284D01*
X194865424Y-49963270D01*
X194922573Y-49749986D01*
X194922575Y-49749976D01*
X194941821Y-49530000D01*
X194941821Y-49529999D01*
X194922575Y-49310023D01*
X194922573Y-49310013D01*
X194865424Y-49096729D01*
X194865420Y-49096720D01*
X194772098Y-48896590D01*
X194726740Y-48831811D01*
X194164521Y-49394029D01*
X194141845Y-49316799D01*
X194062869Y-49193910D01*
X193952470Y-49098248D01*
X193819592Y-49037565D01*
X193814599Y-49036847D01*
X194373187Y-48478258D01*
X194308409Y-48432900D01*
X194308407Y-48432899D01*
X194179219Y-48372658D01*
X194126779Y-48326486D01*
X194107627Y-48259293D01*
X194127843Y-48192411D01*
X194179219Y-48147894D01*
X194308662Y-48087534D01*
X194489620Y-47960826D01*
X194645826Y-47804620D01*
X194772534Y-47623662D01*
X194865894Y-47423450D01*
X194923070Y-47210068D01*
X194942323Y-46990000D01*
X194923070Y-46769932D01*
X194865894Y-46556550D01*
X194772534Y-46356339D01*
X194691423Y-46240500D01*
X194645827Y-46175381D01*
X194590962Y-46120516D01*
X194489620Y-46019174D01*
X194489616Y-46019171D01*
X194489615Y-46019170D01*
X194308666Y-45892468D01*
X194308662Y-45892466D01*
X194261457Y-45870454D01*
X194108450Y-45799106D01*
X194108447Y-45799105D01*
X194108445Y-45799104D01*
X193895070Y-45741930D01*
X193895062Y-45741929D01*
X193675002Y-45722677D01*
X193674998Y-45722677D01*
X193454937Y-45741929D01*
X193454929Y-45741930D01*
X193241554Y-45799104D01*
X193241548Y-45799107D01*
X193041340Y-45892465D01*
X193041338Y-45892466D01*
X192860377Y-46019175D01*
X192704175Y-46175377D01*
X192577466Y-46356338D01*
X192577465Y-46356340D01*
X192484107Y-46556548D01*
X192484104Y-46556554D01*
X192426930Y-46769929D01*
X192426929Y-46769937D01*
X192407677Y-46989997D01*
X192407677Y-46990002D01*
X192426929Y-47210062D01*
X192426930Y-47210070D01*
X192484104Y-47423445D01*
X192484105Y-47423447D01*
X192484106Y-47423450D01*
X192568256Y-47603911D01*
X192577466Y-47623662D01*
X192577468Y-47623666D01*
X192704170Y-47804615D01*
X192704175Y-47804621D01*
X192860378Y-47960824D01*
X192860384Y-47960829D01*
X193041333Y-48087531D01*
X193041335Y-48087532D01*
X193041338Y-48087534D01*
X193170781Y-48147894D01*
X193223220Y-48194066D01*
X193242372Y-48261260D01*
X193222156Y-48328141D01*
X193170781Y-48372658D01*
X193041586Y-48432903D01*
X192976812Y-48478257D01*
X192976811Y-48478258D01*
X193535400Y-49036847D01*
X193530408Y-49037565D01*
X193397530Y-49098248D01*
X193287131Y-49193910D01*
X193208155Y-49316799D01*
X193185477Y-49394030D01*
X192623258Y-48831811D01*
X192623257Y-48831812D01*
X192577903Y-48896586D01*
X192484579Y-49096720D01*
X192484575Y-49096729D01*
X192427426Y-49310013D01*
X192427424Y-49310023D01*
X192408179Y-49529999D01*
X192408179Y-49530000D01*
X192427424Y-49749976D01*
X192427426Y-49749986D01*
X192484575Y-49963270D01*
X192484580Y-49963284D01*
X192577899Y-50163407D01*
X192577900Y-50163409D01*
X192623258Y-50228187D01*
X193185477Y-49665968D01*
X193208155Y-49743201D01*
X193287131Y-49866090D01*
X193397530Y-49961752D01*
X193530408Y-50022435D01*
X193535400Y-50023152D01*
X192976811Y-50581741D01*
X193041582Y-50627094D01*
X193041588Y-50627098D01*
X193170781Y-50687342D01*
X193223220Y-50733514D01*
X193242372Y-50800708D01*
X193222156Y-50867589D01*
X193170781Y-50912106D01*
X193041340Y-50972465D01*
X193041338Y-50972466D01*
X192860377Y-51099175D01*
X192704175Y-51255377D01*
X192577466Y-51436338D01*
X192577465Y-51436340D01*
X192484107Y-51636548D01*
X192484104Y-51636554D01*
X192426930Y-51849929D01*
X192426929Y-51849937D01*
X192407677Y-52069997D01*
X192407677Y-52070002D01*
X192426929Y-52290062D01*
X192426930Y-52290070D01*
X192484104Y-52503445D01*
X192484105Y-52503447D01*
X192484106Y-52503450D01*
X192577466Y-52703662D01*
X192577468Y-52703666D01*
X192704170Y-52884615D01*
X192704175Y-52884621D01*
X192860378Y-53040824D01*
X192860384Y-53040829D01*
X193041333Y-53167531D01*
X193041335Y-53167532D01*
X193041338Y-53167534D01*
X193160748Y-53223215D01*
X193170189Y-53227618D01*
X193222628Y-53273790D01*
X193241780Y-53340984D01*
X193221564Y-53407865D01*
X193170189Y-53452382D01*
X193041340Y-53512465D01*
X193041338Y-53512466D01*
X192860377Y-53639175D01*
X192704175Y-53795377D01*
X192577466Y-53976338D01*
X192577465Y-53976340D01*
X192484107Y-54176548D01*
X192484104Y-54176554D01*
X192426930Y-54389929D01*
X192426929Y-54389937D01*
X192407677Y-54609997D01*
X192407677Y-54610002D01*
X192426929Y-54830062D01*
X192426930Y-54830070D01*
X192484104Y-55043445D01*
X192484105Y-55043447D01*
X192484106Y-55043450D01*
X192577466Y-55243662D01*
X192577468Y-55243666D01*
X192704170Y-55424615D01*
X192704175Y-55424621D01*
X192860378Y-55580824D01*
X192860384Y-55580829D01*
X193041333Y-55707531D01*
X193041335Y-55707532D01*
X193041338Y-55707534D01*
X193160748Y-55763215D01*
X193170189Y-55767618D01*
X193222628Y-55813790D01*
X193241780Y-55880984D01*
X193221564Y-55947865D01*
X193170189Y-55992382D01*
X193041340Y-56052465D01*
X193041338Y-56052466D01*
X192860377Y-56179175D01*
X192704175Y-56335377D01*
X192577466Y-56516338D01*
X192577465Y-56516340D01*
X192484107Y-56716548D01*
X192484104Y-56716554D01*
X192426930Y-56929929D01*
X192426929Y-56929936D01*
X192408812Y-57137016D01*
X192383359Y-57202084D01*
X192372965Y-57213889D01*
X191177873Y-58408982D01*
X191174170Y-58412396D01*
X191130641Y-58449370D01*
X191080191Y-58515737D01*
X191027970Y-58580701D01*
X191027968Y-58580704D01*
X191027879Y-58580885D01*
X191015529Y-58600796D01*
X191015400Y-58600964D01*
X191015397Y-58600970D01*
X190994605Y-58645913D01*
X190980389Y-58676640D01*
X190961798Y-58714124D01*
X190943359Y-58751305D01*
X190943354Y-58751319D01*
X190943309Y-58751503D01*
X190935527Y-58773609D01*
X190935441Y-58773794D01*
X190935438Y-58773803D01*
X190917514Y-58855229D01*
X190897399Y-58936113D01*
X190897394Y-58936310D01*
X190894545Y-58959575D01*
X190894500Y-58959778D01*
X190894500Y-59043160D01*
X190892243Y-59126473D01*
X190892278Y-59126655D01*
X190894500Y-59150023D01*
X190894500Y-66001897D01*
X190894295Y-66006931D01*
X190889660Y-66063843D01*
X186684584Y-66063843D01*
X186660631Y-66035643D01*
X186656496Y-66032500D01*
X186594262Y-65985191D01*
X186529297Y-65932970D01*
X186529294Y-65932968D01*
X186529120Y-65932882D01*
X186509182Y-65920514D01*
X186509029Y-65920397D01*
X186509027Y-65920396D01*
X186433359Y-65885389D01*
X186358693Y-65848359D01*
X186358689Y-65848358D01*
X186358680Y-65848355D01*
X186358488Y-65848307D01*
X186336385Y-65840525D01*
X186336198Y-65840438D01*
X186336194Y-65840437D01*
X186254771Y-65822514D01*
X186173885Y-65802399D01*
X186173689Y-65802394D01*
X186150413Y-65799543D01*
X186150222Y-65799501D01*
X186150219Y-65799500D01*
X186150216Y-65799500D01*
X186150212Y-65799500D01*
X186066840Y-65799500D01*
X185983527Y-65797243D01*
X185983526Y-65797243D01*
X185983345Y-65797278D01*
X185959977Y-65799500D01*
X185840308Y-65799500D01*
X185773269Y-65779815D01*
X185727514Y-65727011D01*
X185717570Y-65657853D01*
X185746595Y-65594297D01*
X185752627Y-65587819D01*
X185755826Y-65584620D01*
X185882534Y-65403662D01*
X185975894Y-65203450D01*
X186033070Y-64990068D01*
X186052323Y-64770000D01*
X186033070Y-64549932D01*
X185975894Y-64336550D01*
X185882534Y-64136339D01*
X185777052Y-63985694D01*
X185755827Y-63955381D01*
X185686862Y-63886416D01*
X185599620Y-63799174D01*
X185599616Y-63799171D01*
X185599615Y-63799170D01*
X185418666Y-63672468D01*
X185418658Y-63672464D01*
X185289811Y-63612382D01*
X185237371Y-63566210D01*
X185218219Y-63499017D01*
X185238435Y-63432135D01*
X185289811Y-63387618D01*
X185336486Y-63365853D01*
X185418662Y-63327534D01*
X185599620Y-63200826D01*
X185755826Y-63044620D01*
X185882534Y-62863662D01*
X185975894Y-62663450D01*
X186033070Y-62450068D01*
X186052323Y-62230000D01*
X186033070Y-62009932D01*
X185975894Y-61796550D01*
X185882534Y-61596339D01*
X185814780Y-61499575D01*
X185755827Y-61415381D01*
X185712674Y-61372228D01*
X185599620Y-61259174D01*
X185599616Y-61259171D01*
X185599615Y-61259170D01*
X185418666Y-61132468D01*
X185418658Y-61132464D01*
X185289811Y-61072382D01*
X185237371Y-61026210D01*
X185218219Y-60959017D01*
X185238435Y-60892135D01*
X185289811Y-60847618D01*
X185295802Y-60844824D01*
X185418662Y-60787534D01*
X185599620Y-60660826D01*
X185755826Y-60504620D01*
X185882534Y-60323662D01*
X185975894Y-60123450D01*
X186033070Y-59910068D01*
X186049976Y-59716831D01*
X186052323Y-59690002D01*
X186052323Y-59689997D01*
X186033070Y-59469937D01*
X186033070Y-59469936D01*
X186033070Y-59469932D01*
X185975894Y-59256550D01*
X185882534Y-59056339D01*
X185798489Y-58936310D01*
X185755827Y-58875381D01*
X185688094Y-58807648D01*
X185599620Y-58719174D01*
X185599616Y-58719171D01*
X185599615Y-58719170D01*
X185418666Y-58592468D01*
X185418658Y-58592464D01*
X185289811Y-58532382D01*
X185237371Y-58486210D01*
X185218219Y-58419017D01*
X185238435Y-58352135D01*
X185289811Y-58307618D01*
X185295802Y-58304824D01*
X185418662Y-58247534D01*
X185599620Y-58120826D01*
X185755826Y-57964620D01*
X185882534Y-57783662D01*
X185975894Y-57583450D01*
X186033070Y-57370068D01*
X186052323Y-57150000D01*
X186049155Y-57113793D01*
X186033070Y-56929937D01*
X186033070Y-56929936D01*
X186033070Y-56929932D01*
X185975894Y-56716550D01*
X185882534Y-56516339D01*
X185755826Y-56335380D01*
X185599620Y-56179174D01*
X185599616Y-56179171D01*
X185599615Y-56179170D01*
X185418666Y-56052468D01*
X185418658Y-56052464D01*
X185289811Y-55992382D01*
X185237371Y-55946210D01*
X185218219Y-55879017D01*
X185238435Y-55812135D01*
X185289811Y-55767618D01*
X185295802Y-55764824D01*
X185418662Y-55707534D01*
X185599620Y-55580826D01*
X185755826Y-55424620D01*
X185882534Y-55243662D01*
X185975894Y-55043450D01*
X186033070Y-54830068D01*
X186052323Y-54610000D01*
X186033070Y-54389932D01*
X185975894Y-54176550D01*
X185882534Y-53976339D01*
X185755826Y-53795380D01*
X185599620Y-53639174D01*
X185599616Y-53639171D01*
X185599615Y-53639170D01*
X185418666Y-53512468D01*
X185418658Y-53512464D01*
X185289811Y-53452382D01*
X185237371Y-53406210D01*
X185218219Y-53339017D01*
X185238435Y-53272135D01*
X185289811Y-53227618D01*
X185295802Y-53224824D01*
X185418662Y-53167534D01*
X185599620Y-53040826D01*
X185755826Y-52884620D01*
X185882534Y-52703662D01*
X185975894Y-52503450D01*
X186033070Y-52290068D01*
X186049976Y-52096831D01*
X186052323Y-52070002D01*
X186052323Y-52069997D01*
X186033070Y-51849937D01*
X186033070Y-51849932D01*
X185975894Y-51636550D01*
X185882534Y-51436339D01*
X185755826Y-51255380D01*
X185599620Y-51099174D01*
X185599616Y-51099171D01*
X185599615Y-51099170D01*
X185418666Y-50972468D01*
X185418658Y-50972464D01*
X185289811Y-50912382D01*
X185237371Y-50866210D01*
X185218219Y-50799017D01*
X185238435Y-50732135D01*
X185289811Y-50687618D01*
X185295802Y-50684824D01*
X185418662Y-50627534D01*
X185599620Y-50500826D01*
X185755826Y-50344620D01*
X185882534Y-50163662D01*
X185975894Y-49963450D01*
X186033070Y-49750068D01*
X186052323Y-49530000D01*
X186033070Y-49309932D01*
X185975894Y-49096550D01*
X185882534Y-48896339D01*
X185755826Y-48715380D01*
X185599620Y-48559174D01*
X185599616Y-48559171D01*
X185599615Y-48559170D01*
X185483797Y-48478074D01*
X185440172Y-48423497D01*
X185432978Y-48353999D01*
X185464501Y-48291644D01*
X185524730Y-48256230D01*
X185554919Y-48252499D01*
X185594872Y-48252499D01*
X185654483Y-48246091D01*
X185789331Y-48195796D01*
X185904546Y-48109546D01*
X185990796Y-47994331D01*
X186041091Y-47859483D01*
X186047500Y-47799873D01*
X186047499Y-46180128D01*
X186041091Y-46120517D01*
X185990796Y-45985669D01*
X185990795Y-45985668D01*
X185990793Y-45985664D01*
X185904547Y-45870455D01*
X185904544Y-45870452D01*
X185789335Y-45784206D01*
X185789328Y-45784202D01*
X185654482Y-45733908D01*
X185654483Y-45733908D01*
X185594883Y-45727501D01*
X185594881Y-45727500D01*
X185594873Y-45727500D01*
X185594865Y-45727500D01*
X184845362Y-45727500D01*
X184832087Y-45726244D01*
X184824589Y-45725773D01*
X184824588Y-45725773D01*
X184824586Y-45725773D01*
X184824585Y-45725773D01*
X184819558Y-45726089D01*
X184799056Y-45727378D01*
X184795188Y-45727500D01*
X183975129Y-45727500D01*
X183975123Y-45727501D01*
X183915516Y-45733908D01*
X183780671Y-45784202D01*
X183780664Y-45784206D01*
X183665455Y-45870452D01*
X183665452Y-45870455D01*
X183579206Y-45985664D01*
X183579202Y-45985671D01*
X183528908Y-46120517D01*
X183523010Y-46175380D01*
X183522501Y-46180123D01*
X183522500Y-46180135D01*
X183522500Y-47799870D01*
X183522501Y-47799876D01*
X183528908Y-47859483D01*
X183579202Y-47994328D01*
X183579206Y-47994335D01*
X183665452Y-48109544D01*
X183665455Y-48109547D01*
X183780664Y-48195793D01*
X183780671Y-48195797D01*
X183915517Y-48246091D01*
X183915516Y-48246091D01*
X183922444Y-48246835D01*
X183975127Y-48252500D01*
X184015079Y-48252499D01*
X184082116Y-48272182D01*
X184127872Y-48324985D01*
X184137817Y-48394143D01*
X184108794Y-48457700D01*
X184086203Y-48478074D01*
X183970375Y-48559177D01*
X183814175Y-48715377D01*
X183687466Y-48896338D01*
X183687465Y-48896340D01*
X183594107Y-49096548D01*
X183594104Y-49096554D01*
X183536930Y-49309929D01*
X183536929Y-49309937D01*
X183517677Y-49529997D01*
X183517677Y-49530002D01*
X183536929Y-49750062D01*
X183536930Y-49750070D01*
X183594104Y-49963445D01*
X183594105Y-49963447D01*
X183594106Y-49963450D01*
X183654208Y-50092339D01*
X183687466Y-50163662D01*
X183687468Y-50163666D01*
X183814170Y-50344615D01*
X183814175Y-50344621D01*
X183970378Y-50500824D01*
X183970384Y-50500829D01*
X184151333Y-50627531D01*
X184151335Y-50627532D01*
X184151338Y-50627534D01*
X184270748Y-50683215D01*
X184280189Y-50687618D01*
X184332628Y-50733790D01*
X184351780Y-50800984D01*
X184331564Y-50867865D01*
X184280189Y-50912382D01*
X184151340Y-50972465D01*
X184151338Y-50972466D01*
X183970377Y-51099175D01*
X183814175Y-51255377D01*
X183687466Y-51436338D01*
X183687465Y-51436340D01*
X183594107Y-51636548D01*
X183594104Y-51636554D01*
X183536930Y-51849929D01*
X183536929Y-51849937D01*
X183517677Y-52069997D01*
X183517677Y-52070002D01*
X183536929Y-52290062D01*
X183536930Y-52290070D01*
X183594104Y-52503445D01*
X183594105Y-52503447D01*
X183594106Y-52503450D01*
X183687466Y-52703662D01*
X183687468Y-52703666D01*
X183814170Y-52884615D01*
X183814175Y-52884621D01*
X183970378Y-53040824D01*
X183970384Y-53040829D01*
X184151333Y-53167531D01*
X184151335Y-53167532D01*
X184151338Y-53167534D01*
X184270748Y-53223215D01*
X184280189Y-53227618D01*
X184332628Y-53273790D01*
X184351780Y-53340984D01*
X184331564Y-53407865D01*
X184280189Y-53452382D01*
X184151340Y-53512465D01*
X184151338Y-53512466D01*
X183970377Y-53639175D01*
X183814175Y-53795377D01*
X183687466Y-53976338D01*
X183687465Y-53976340D01*
X183594107Y-54176548D01*
X183594104Y-54176554D01*
X183536930Y-54389929D01*
X183536929Y-54389937D01*
X183517677Y-54609997D01*
X183517677Y-54610002D01*
X183536929Y-54830062D01*
X183536930Y-54830070D01*
X183594104Y-55043445D01*
X183594105Y-55043447D01*
X183594106Y-55043450D01*
X183687466Y-55243662D01*
X183687468Y-55243666D01*
X183814170Y-55424615D01*
X183814175Y-55424621D01*
X183970378Y-55580824D01*
X183970384Y-55580829D01*
X184151333Y-55707531D01*
X184151335Y-55707532D01*
X184151338Y-55707534D01*
X184270748Y-55763215D01*
X184280189Y-55767618D01*
X184332628Y-55813790D01*
X184351780Y-55880984D01*
X184331564Y-55947865D01*
X184280189Y-55992382D01*
X184151340Y-56052465D01*
X184151338Y-56052466D01*
X183970377Y-56179175D01*
X183814175Y-56335377D01*
X183687466Y-56516338D01*
X183687465Y-56516340D01*
X183594107Y-56716548D01*
X183594104Y-56716554D01*
X183536930Y-56929929D01*
X183536929Y-56929937D01*
X183517677Y-57149997D01*
X183517677Y-57150002D01*
X183536929Y-57370062D01*
X183536930Y-57370070D01*
X183594104Y-57583445D01*
X183594105Y-57583447D01*
X183594106Y-57583450D01*
X183676970Y-57761154D01*
X183687466Y-57783662D01*
X183687468Y-57783666D01*
X183814170Y-57964615D01*
X183814175Y-57964621D01*
X183970378Y-58120824D01*
X183970384Y-58120829D01*
X184151333Y-58247531D01*
X184151335Y-58247532D01*
X184151338Y-58247534D01*
X184270748Y-58303215D01*
X184280189Y-58307618D01*
X184332628Y-58353790D01*
X184351780Y-58420984D01*
X184331564Y-58487865D01*
X184280189Y-58532382D01*
X184151340Y-58592465D01*
X184151338Y-58592466D01*
X183970377Y-58719175D01*
X183814175Y-58875377D01*
X183687466Y-59056338D01*
X183687465Y-59056340D01*
X183594107Y-59256548D01*
X183594104Y-59256554D01*
X183536930Y-59469929D01*
X183536929Y-59469937D01*
X183517677Y-59689997D01*
X183517677Y-59690002D01*
X183536929Y-59910062D01*
X183536930Y-59910070D01*
X183594104Y-60123445D01*
X183594105Y-60123447D01*
X183594106Y-60123450D01*
X183687466Y-60323662D01*
X183687468Y-60323666D01*
X183814170Y-60504615D01*
X183814175Y-60504621D01*
X183970378Y-60660824D01*
X183970384Y-60660829D01*
X184151333Y-60787531D01*
X184151335Y-60787532D01*
X184151338Y-60787534D01*
X184270748Y-60843215D01*
X184280189Y-60847618D01*
X184332628Y-60893790D01*
X184351780Y-60960984D01*
X184331564Y-61027865D01*
X184280189Y-61072382D01*
X184151340Y-61132465D01*
X184151338Y-61132466D01*
X183970377Y-61259175D01*
X183814175Y-61415377D01*
X183687466Y-61596338D01*
X183687465Y-61596340D01*
X183594107Y-61796548D01*
X183594104Y-61796554D01*
X183536930Y-62009929D01*
X183536929Y-62009937D01*
X183517677Y-62229997D01*
X183517677Y-62230002D01*
X183536929Y-62450062D01*
X183536930Y-62450070D01*
X183594104Y-62663445D01*
X183594105Y-62663447D01*
X183594106Y-62663450D01*
X183621249Y-62721658D01*
X183687466Y-62863662D01*
X183687468Y-62863666D01*
X183814170Y-63044615D01*
X183814175Y-63044621D01*
X183970378Y-63200824D01*
X183970384Y-63200829D01*
X184151333Y-63327531D01*
X184151335Y-63327532D01*
X184151338Y-63327534D01*
X184233514Y-63365853D01*
X184280189Y-63387618D01*
X184332628Y-63433790D01*
X184351780Y-63500984D01*
X184331564Y-63567865D01*
X184280189Y-63612382D01*
X184151340Y-63672465D01*
X184151338Y-63672466D01*
X183970377Y-63799175D01*
X183814175Y-63955377D01*
X183687466Y-64136338D01*
X183687465Y-64136340D01*
X183594107Y-64336548D01*
X183594104Y-64336554D01*
X183536930Y-64549929D01*
X183536929Y-64549937D01*
X183517677Y-64769997D01*
X183517677Y-64770002D01*
X183536929Y-64990062D01*
X183536930Y-64990070D01*
X183594104Y-65203445D01*
X183594105Y-65203447D01*
X183594106Y-65203450D01*
X183665333Y-65356197D01*
X183687466Y-65403662D01*
X183687468Y-65403666D01*
X183814170Y-65584615D01*
X183814175Y-65584621D01*
X183817373Y-65587819D01*
X183850858Y-65649142D01*
X183845874Y-65718834D01*
X183804002Y-65774767D01*
X183738538Y-65799184D01*
X183729692Y-65799500D01*
X181389006Y-65799500D01*
X181321967Y-65779815D01*
X181301325Y-65763181D01*
X177441819Y-61903675D01*
X177408334Y-61842352D01*
X177405500Y-61815994D01*
X177405500Y-56553098D01*
X177405705Y-56548063D01*
X177408288Y-56516338D01*
X177410339Y-56491152D01*
X177399085Y-56408558D01*
X177390073Y-56325684D01*
X177390014Y-56325509D01*
X177384656Y-56302649D01*
X177384631Y-56302463D01*
X177355880Y-56224206D01*
X177329267Y-56145220D01*
X177329266Y-56145218D01*
X177329172Y-56145061D01*
X177319025Y-56123887D01*
X177318961Y-56123712D01*
X177274059Y-56053463D01*
X177231089Y-55982046D01*
X177230955Y-55981904D01*
X177216504Y-55963419D01*
X177216400Y-55963256D01*
X177157447Y-55904303D01*
X177100129Y-55843793D01*
X177099970Y-55843685D01*
X177081877Y-55828733D01*
X173387034Y-52133890D01*
X173353549Y-52072567D01*
X173351187Y-52057016D01*
X173333070Y-51849937D01*
X173333070Y-51849932D01*
X173275894Y-51636550D01*
X173182534Y-51436339D01*
X173055826Y-51255380D01*
X172899620Y-51099174D01*
X172899616Y-51099171D01*
X172899615Y-51099170D01*
X172718666Y-50972468D01*
X172718658Y-50972464D01*
X172589219Y-50912106D01*
X172536779Y-50865934D01*
X172517627Y-50798741D01*
X172537843Y-50731859D01*
X172589219Y-50687342D01*
X172718408Y-50627100D01*
X172718420Y-50627093D01*
X172783186Y-50581742D01*
X172783187Y-50581740D01*
X172224600Y-50023152D01*
X172229592Y-50022435D01*
X172362470Y-49961752D01*
X172472869Y-49866090D01*
X172551845Y-49743201D01*
X172574522Y-49665969D01*
X173136740Y-50228187D01*
X173136742Y-50228186D01*
X173182093Y-50163420D01*
X173182100Y-50163408D01*
X173275419Y-49963284D01*
X173275424Y-49963270D01*
X173332573Y-49749986D01*
X173332575Y-49749976D01*
X173351821Y-49530000D01*
X173351821Y-49529999D01*
X173332575Y-49310023D01*
X173332573Y-49310013D01*
X173275424Y-49096729D01*
X173275420Y-49096720D01*
X173182098Y-48896590D01*
X173136740Y-48831811D01*
X172574521Y-49394029D01*
X172551845Y-49316799D01*
X172472869Y-49193910D01*
X172362470Y-49098248D01*
X172229592Y-49037565D01*
X172224599Y-49036847D01*
X172783187Y-48478258D01*
X172718409Y-48432900D01*
X172718407Y-48432899D01*
X172589219Y-48372658D01*
X172536779Y-48326486D01*
X172517627Y-48259293D01*
X172537843Y-48192411D01*
X172589219Y-48147894D01*
X172718662Y-48087534D01*
X172899620Y-47960826D01*
X173055826Y-47804620D01*
X173182534Y-47623662D01*
X173275894Y-47423450D01*
X173333070Y-47210068D01*
X173352323Y-46990000D01*
X173333070Y-46769932D01*
X173275894Y-46556550D01*
X173182534Y-46356339D01*
X173101423Y-46240500D01*
X173055827Y-46175381D01*
X173000962Y-46120516D01*
X172899620Y-46019174D01*
X172899616Y-46019171D01*
X172899615Y-46019170D01*
X172718666Y-45892468D01*
X172718662Y-45892466D01*
X172671457Y-45870454D01*
X172518450Y-45799106D01*
X172518447Y-45799105D01*
X172518445Y-45799104D01*
X172305070Y-45741930D01*
X172305062Y-45741929D01*
X172085002Y-45722677D01*
X172084998Y-45722677D01*
X171864937Y-45741929D01*
X171864929Y-45741930D01*
X171651554Y-45799104D01*
X171651548Y-45799107D01*
X171451340Y-45892465D01*
X171451338Y-45892466D01*
X171270377Y-46019175D01*
X171114175Y-46175377D01*
X170987466Y-46356338D01*
X170987465Y-46356340D01*
X170894107Y-46556548D01*
X170894104Y-46556554D01*
X170836930Y-46769929D01*
X170836929Y-46769937D01*
X170817677Y-46989997D01*
X170817677Y-46990002D01*
X170836929Y-47210062D01*
X170836930Y-47210070D01*
X170894104Y-47423445D01*
X170894105Y-47423447D01*
X170894106Y-47423450D01*
X170978256Y-47603911D01*
X170987466Y-47623662D01*
X170987468Y-47623666D01*
X171114170Y-47804615D01*
X171114175Y-47804621D01*
X171270378Y-47960824D01*
X171270384Y-47960829D01*
X171451333Y-48087531D01*
X171451335Y-48087532D01*
X171451338Y-48087534D01*
X171580781Y-48147894D01*
X171633220Y-48194066D01*
X171652372Y-48261260D01*
X171632156Y-48328141D01*
X171580781Y-48372658D01*
X171451586Y-48432903D01*
X171386812Y-48478257D01*
X171386811Y-48478258D01*
X171945400Y-49036847D01*
X171940408Y-49037565D01*
X171807530Y-49098248D01*
X171697131Y-49193910D01*
X171618155Y-49316799D01*
X171595477Y-49394030D01*
X171033258Y-48831811D01*
X171033257Y-48831812D01*
X170987903Y-48896586D01*
X170894579Y-49096720D01*
X170894575Y-49096729D01*
X170837426Y-49310013D01*
X170837424Y-49310023D01*
X170818179Y-49529999D01*
X170818179Y-49530000D01*
X170837424Y-49749976D01*
X170837426Y-49749986D01*
X170894575Y-49963270D01*
X170894580Y-49963284D01*
X170987899Y-50163407D01*
X170987900Y-50163409D01*
X171033258Y-50228187D01*
X171595477Y-49665968D01*
X171618155Y-49743201D01*
X171697131Y-49866090D01*
X171807530Y-49961752D01*
X171940408Y-50022435D01*
X171945400Y-50023152D01*
X171386811Y-50581741D01*
X171451582Y-50627094D01*
X171451588Y-50627098D01*
X171580781Y-50687342D01*
X171633220Y-50733514D01*
X171652372Y-50800708D01*
X171632156Y-50867589D01*
X171580781Y-50912106D01*
X171451340Y-50972465D01*
X171451338Y-50972466D01*
X171270377Y-51099175D01*
X171114175Y-51255377D01*
X170987466Y-51436338D01*
X170987465Y-51436340D01*
X170894107Y-51636548D01*
X170894104Y-51636554D01*
X170836930Y-51849929D01*
X170836929Y-51849937D01*
X170817677Y-52069997D01*
X170817677Y-52070002D01*
X170836929Y-52290062D01*
X170836930Y-52290070D01*
X170894104Y-52503445D01*
X170894105Y-52503447D01*
X170894106Y-52503450D01*
X170987466Y-52703662D01*
X170987468Y-52703666D01*
X171114170Y-52884615D01*
X171114175Y-52884621D01*
X171270378Y-53040824D01*
X171270384Y-53040829D01*
X171451333Y-53167531D01*
X171451335Y-53167532D01*
X171451338Y-53167534D01*
X171570748Y-53223215D01*
X171580189Y-53227618D01*
X171632628Y-53273790D01*
X171651780Y-53340984D01*
X171631564Y-53407865D01*
X171580189Y-53452382D01*
X171451340Y-53512465D01*
X171451338Y-53512466D01*
X171270377Y-53639175D01*
X171114175Y-53795377D01*
X170987466Y-53976338D01*
X170987465Y-53976340D01*
X170894107Y-54176548D01*
X170894104Y-54176554D01*
X170836930Y-54389929D01*
X170836929Y-54389937D01*
X170817677Y-54609997D01*
X170817677Y-54610002D01*
X170836929Y-54830062D01*
X170836930Y-54830070D01*
X170894104Y-55043445D01*
X170894105Y-55043447D01*
X170894106Y-55043450D01*
X170987466Y-55243662D01*
X170987468Y-55243666D01*
X171114170Y-55424615D01*
X171114175Y-55424621D01*
X171270378Y-55580824D01*
X171270384Y-55580829D01*
X171451333Y-55707531D01*
X171451335Y-55707532D01*
X171451338Y-55707534D01*
X171570748Y-55763215D01*
X171580189Y-55767618D01*
X171632628Y-55813790D01*
X171651780Y-55880984D01*
X171631564Y-55947865D01*
X171580189Y-55992382D01*
X171451340Y-56052465D01*
X171451338Y-56052466D01*
X171270377Y-56179175D01*
X171114175Y-56335377D01*
X170987466Y-56516338D01*
X170987465Y-56516340D01*
X170894107Y-56716548D01*
X170894104Y-56716554D01*
X170836930Y-56929929D01*
X170836929Y-56929937D01*
X170817677Y-57149997D01*
X170817677Y-57150002D01*
X170836929Y-57370062D01*
X170836930Y-57370070D01*
X170894104Y-57583445D01*
X170894105Y-57583447D01*
X170894106Y-57583450D01*
X170976970Y-57761154D01*
X170987466Y-57783662D01*
X170987468Y-57783666D01*
X171114170Y-57964615D01*
X171114175Y-57964621D01*
X171270378Y-58120824D01*
X171270384Y-58120829D01*
X171451333Y-58247531D01*
X171451335Y-58247532D01*
X171451338Y-58247534D01*
X171570748Y-58303215D01*
X171580189Y-58307618D01*
X171632628Y-58353790D01*
X171651780Y-58420984D01*
X171631564Y-58487865D01*
X171580189Y-58532382D01*
X171451340Y-58592465D01*
X171451338Y-58592466D01*
X171270377Y-58719175D01*
X171114175Y-58875377D01*
X170987466Y-59056338D01*
X170987465Y-59056340D01*
X170894107Y-59256548D01*
X170894104Y-59256554D01*
X170836930Y-59469929D01*
X170836929Y-59469936D01*
X170818812Y-59677016D01*
X170793359Y-59742084D01*
X170782965Y-59753889D01*
X169587873Y-60948982D01*
X169584170Y-60952396D01*
X169540641Y-60989370D01*
X169490191Y-61055737D01*
X169437970Y-61120701D01*
X169437968Y-61120704D01*
X169437879Y-61120885D01*
X169425529Y-61140796D01*
X169425400Y-61140964D01*
X169425397Y-61140970D01*
X169405704Y-61183537D01*
X169390389Y-61216640D01*
X169374340Y-61249001D01*
X169353359Y-61291305D01*
X169353354Y-61291319D01*
X169353309Y-61291503D01*
X169345527Y-61313609D01*
X169345441Y-61313794D01*
X169345438Y-61313803D01*
X169327514Y-61395229D01*
X169307399Y-61476113D01*
X169307394Y-61476310D01*
X169304545Y-61499575D01*
X169304500Y-61499778D01*
X169304500Y-61583160D01*
X169302243Y-61666473D01*
X169302278Y-61666655D01*
X169304500Y-61690023D01*
X169304500Y-66001897D01*
X169304295Y-66006931D01*
X169299660Y-66063843D01*
X169310914Y-66146441D01*
X169319927Y-66229316D01*
X169319929Y-66229327D01*
X169319990Y-66229506D01*
X169325340Y-66252331D01*
X169325366Y-66252525D01*
X169325369Y-66252536D01*
X169354119Y-66330794D01*
X169380730Y-66409774D01*
X169380734Y-66409782D01*
X169380832Y-66409945D01*
X169390969Y-66431099D01*
X169391036Y-66431283D01*
X169391038Y-66431286D01*
X169431141Y-66494029D01*
X169435940Y-66501536D01*
X169478911Y-66572954D01*
X169479042Y-66573092D01*
X169493495Y-66591579D01*
X169493602Y-66591747D01*
X169541275Y-66639419D01*
X169552552Y-66650696D01*
X169609871Y-66711207D01*
X169610028Y-66711314D01*
X169628121Y-66726265D01*
X170168992Y-67267136D01*
X170172396Y-67270829D01*
X170209362Y-67314350D01*
X170209363Y-67314351D01*
X170209365Y-67314352D01*
X170209369Y-67314357D01*
X170260109Y-67352928D01*
X170275737Y-67364808D01*
X170340699Y-67417027D01*
X170340701Y-67417029D01*
X170340872Y-67417114D01*
X170360814Y-67429483D01*
X170360971Y-67429602D01*
X170436640Y-67464610D01*
X170482487Y-67487347D01*
X170486522Y-67489349D01*
X170537835Y-67536770D01*
X170555365Y-67604405D01*
X170533545Y-67670780D01*
X170491410Y-67708964D01*
X170379549Y-67770787D01*
X170379547Y-67770789D01*
X170086377Y-67978805D01*
X169818339Y-68218339D01*
X169578805Y-68486377D01*
X169370790Y-68779545D01*
X169196905Y-69094168D01*
X169149061Y-69209674D01*
X169105220Y-69264077D01*
X169038926Y-69286142D01*
X168971226Y-69268863D01*
X168923616Y-69217725D01*
X168910500Y-69162221D01*
X168910500Y-37465004D01*
X171549451Y-37465004D01*
X171569616Y-37734101D01*
X171629664Y-37997188D01*
X171629666Y-37997195D01*
X171719049Y-38224938D01*
X171728257Y-38248398D01*
X171863185Y-38482102D01*
X171999080Y-38652509D01*
X172031442Y-38693089D01*
X172218183Y-38866358D01*
X172229259Y-38876635D01*
X172452226Y-39028651D01*
X172695359Y-39145738D01*
X172953228Y-39225280D01*
X172953229Y-39225280D01*
X172953232Y-39225281D01*
X173220063Y-39265499D01*
X173220068Y-39265499D01*
X173220071Y-39265500D01*
X173220072Y-39265500D01*
X173489928Y-39265500D01*
X173489929Y-39265500D01*
X173489936Y-39265499D01*
X173756767Y-39225281D01*
X173756768Y-39225280D01*
X173756772Y-39225280D01*
X174014641Y-39145738D01*
X174257775Y-39028651D01*
X174480741Y-38876635D01*
X174549463Y-38812870D01*
X176634500Y-38812870D01*
X176634501Y-38812876D01*
X176640908Y-38872483D01*
X176691202Y-39007328D01*
X176691206Y-39007335D01*
X176777452Y-39122544D01*
X176777455Y-39122547D01*
X176892664Y-39208793D01*
X176892671Y-39208797D01*
X177027517Y-39259091D01*
X177027516Y-39259091D01*
X177030521Y-39259414D01*
X177087127Y-39265500D01*
X179782872Y-39265499D01*
X179842483Y-39259091D01*
X179977331Y-39208796D01*
X180092546Y-39122546D01*
X180178796Y-39007331D01*
X180229091Y-38872483D01*
X180235500Y-38812873D01*
X180235499Y-36457870D01*
X187117500Y-36457870D01*
X187117501Y-36457876D01*
X187123908Y-36517483D01*
X187174202Y-36652328D01*
X187174206Y-36652335D01*
X187260452Y-36767544D01*
X187260455Y-36767547D01*
X187375664Y-36853793D01*
X187375671Y-36853797D01*
X187510517Y-36904091D01*
X187510516Y-36904091D01*
X187517444Y-36904835D01*
X187570127Y-36910500D01*
X189365872Y-36910499D01*
X189425483Y-36904091D01*
X189560331Y-36853796D01*
X189675546Y-36767546D01*
X189761796Y-36652331D01*
X189811002Y-36520401D01*
X189852872Y-36464468D01*
X189918337Y-36440050D01*
X189986610Y-36454901D01*
X190014865Y-36476053D01*
X190136917Y-36598105D01*
X190330421Y-36733600D01*
X190544507Y-36833429D01*
X190544516Y-36833433D01*
X190758000Y-36890634D01*
X190758000Y-35995501D01*
X190865685Y-36044680D01*
X190972237Y-36060000D01*
X191043763Y-36060000D01*
X191150315Y-36044680D01*
X191258000Y-35995501D01*
X191258000Y-36890633D01*
X191471483Y-36833433D01*
X191471492Y-36833429D01*
X191685578Y-36733600D01*
X191879082Y-36598105D01*
X192046105Y-36431082D01*
X192176119Y-36245405D01*
X192230696Y-36201781D01*
X192300195Y-36194588D01*
X192362549Y-36226110D01*
X192379269Y-36245405D01*
X192509505Y-36431401D01*
X192676599Y-36598495D01*
X192773384Y-36666265D01*
X192870165Y-36734032D01*
X192870167Y-36734033D01*
X192870170Y-36734035D01*
X193084337Y-36833903D01*
X193312592Y-36895063D01*
X193489034Y-36910500D01*
X193547999Y-36915659D01*
X193548000Y-36915659D01*
X193548001Y-36915659D01*
X193606966Y-36910500D01*
X193783408Y-36895063D01*
X194011663Y-36833903D01*
X194225830Y-36734035D01*
X194419401Y-36598495D01*
X194586495Y-36431401D01*
X194716425Y-36245842D01*
X194771002Y-36202217D01*
X194840500Y-36195023D01*
X194902855Y-36226546D01*
X194919575Y-36245842D01*
X195049281Y-36431082D01*
X195049505Y-36431401D01*
X195216599Y-36598495D01*
X195313384Y-36666265D01*
X195410165Y-36734032D01*
X195410167Y-36734033D01*
X195410170Y-36734035D01*
X195624337Y-36833903D01*
X195852592Y-36895063D01*
X196029034Y-36910500D01*
X196087999Y-36915659D01*
X196088000Y-36915659D01*
X196088001Y-36915659D01*
X196146966Y-36910500D01*
X196323408Y-36895063D01*
X196551663Y-36833903D01*
X196765830Y-36734035D01*
X196959401Y-36598495D01*
X197126495Y-36431401D01*
X197256425Y-36245842D01*
X197311002Y-36202217D01*
X197380500Y-36195023D01*
X197442855Y-36226546D01*
X197459575Y-36245842D01*
X197589281Y-36431082D01*
X197589505Y-36431401D01*
X197756599Y-36598495D01*
X197853384Y-36666265D01*
X197950165Y-36734032D01*
X197950167Y-36734033D01*
X197950170Y-36734035D01*
X198164337Y-36833903D01*
X198392592Y-36895063D01*
X198569034Y-36910500D01*
X198627999Y-36915659D01*
X198628000Y-36915659D01*
X198628001Y-36915659D01*
X198686966Y-36910500D01*
X198863408Y-36895063D01*
X199091663Y-36833903D01*
X199305830Y-36734035D01*
X199499401Y-36598495D01*
X199666495Y-36431401D01*
X199796425Y-36245842D01*
X199851002Y-36202217D01*
X199920500Y-36195023D01*
X199982855Y-36226546D01*
X199999575Y-36245842D01*
X200129281Y-36431082D01*
X200129505Y-36431401D01*
X200296599Y-36598495D01*
X200393384Y-36666265D01*
X200490165Y-36734032D01*
X200490167Y-36734033D01*
X200490170Y-36734035D01*
X200704337Y-36833903D01*
X200932592Y-36895063D01*
X201109034Y-36910500D01*
X201167999Y-36915659D01*
X201168000Y-36915659D01*
X201168001Y-36915659D01*
X201226966Y-36910500D01*
X201403408Y-36895063D01*
X201503873Y-36868143D01*
X201573722Y-36869806D01*
X201623647Y-36900237D01*
X202538181Y-37814771D01*
X202571666Y-37876094D01*
X202574500Y-37902452D01*
X202574500Y-61512255D01*
X202572775Y-61527872D01*
X202573061Y-61527899D01*
X202572326Y-61535665D01*
X202574500Y-61604814D01*
X202574500Y-61634343D01*
X202574501Y-61634360D01*
X202575368Y-61641231D01*
X202575826Y-61647050D01*
X202577290Y-61693624D01*
X202577291Y-61693627D01*
X202582880Y-61712867D01*
X202586824Y-61731911D01*
X202589336Y-61751791D01*
X202606490Y-61795119D01*
X202608382Y-61800647D01*
X202621381Y-61845388D01*
X202631580Y-61862634D01*
X202640138Y-61880103D01*
X202647514Y-61898732D01*
X202674898Y-61936423D01*
X202678106Y-61941307D01*
X202701827Y-61981416D01*
X202701833Y-61981424D01*
X202715990Y-61995580D01*
X202728628Y-62010376D01*
X202740405Y-62026586D01*
X202740406Y-62026587D01*
X202776309Y-62056288D01*
X202780620Y-62060210D01*
X204561832Y-63841423D01*
X205106613Y-64386204D01*
X205140098Y-64447527D01*
X205138707Y-64505977D01*
X205126931Y-64549926D01*
X205126930Y-64549933D01*
X205107677Y-64769997D01*
X205107677Y-64770002D01*
X205126929Y-64990062D01*
X205126930Y-64990070D01*
X205184104Y-65203445D01*
X205184105Y-65203447D01*
X205184106Y-65203450D01*
X205255333Y-65356197D01*
X205277466Y-65403662D01*
X205277468Y-65403666D01*
X205404170Y-65584615D01*
X205404175Y-65584621D01*
X205560378Y-65740824D01*
X205560384Y-65740829D01*
X205741333Y-65867531D01*
X205741335Y-65867532D01*
X205741338Y-65867534D01*
X205941550Y-65960894D01*
X206154932Y-66018070D01*
X206312123Y-66031822D01*
X206374998Y-66037323D01*
X206375000Y-66037323D01*
X206375002Y-66037323D01*
X206433546Y-66032201D01*
X206595068Y-66018070D01*
X206808450Y-65960894D01*
X207008662Y-65867534D01*
X207189620Y-65740826D01*
X207345826Y-65584620D01*
X207472534Y-65403662D01*
X207565894Y-65203450D01*
X207623070Y-64990068D01*
X207642323Y-64770000D01*
X207623070Y-64549932D01*
X207565894Y-64336550D01*
X207472534Y-64136339D01*
X207367052Y-63985694D01*
X207345827Y-63955381D01*
X207276862Y-63886416D01*
X207189620Y-63799174D01*
X207189616Y-63799171D01*
X207189615Y-63799170D01*
X207008666Y-63672468D01*
X207008658Y-63672464D01*
X206879811Y-63612382D01*
X206827371Y-63566210D01*
X206808219Y-63499017D01*
X206828435Y-63432135D01*
X206879811Y-63387618D01*
X206926486Y-63365853D01*
X207008662Y-63327534D01*
X207189620Y-63200826D01*
X207345826Y-63044620D01*
X207472534Y-62863662D01*
X207565894Y-62663450D01*
X207623070Y-62450068D01*
X207642323Y-62230000D01*
X207623070Y-62009932D01*
X207565894Y-61796550D01*
X207472534Y-61596339D01*
X207404780Y-61499575D01*
X207345827Y-61415381D01*
X207302674Y-61372228D01*
X207189620Y-61259174D01*
X207189616Y-61259171D01*
X207189615Y-61259170D01*
X207008666Y-61132468D01*
X207008658Y-61132464D01*
X206879811Y-61072382D01*
X206827371Y-61026210D01*
X206808219Y-60959017D01*
X206828435Y-60892135D01*
X206879811Y-60847618D01*
X206885802Y-60844824D01*
X207008662Y-60787534D01*
X207189620Y-60660826D01*
X207345826Y-60504620D01*
X207472534Y-60323662D01*
X207565894Y-60123450D01*
X207623070Y-59910068D01*
X207639976Y-59716831D01*
X207642323Y-59690002D01*
X207642323Y-59689997D01*
X207623070Y-59469937D01*
X207623070Y-59469936D01*
X207623070Y-59469932D01*
X207565894Y-59256550D01*
X207472534Y-59056339D01*
X207388489Y-58936310D01*
X207345827Y-58875381D01*
X207278094Y-58807648D01*
X207189620Y-58719174D01*
X207189616Y-58719171D01*
X207189615Y-58719170D01*
X207008666Y-58592468D01*
X207008658Y-58592464D01*
X206879811Y-58532382D01*
X206827371Y-58486210D01*
X206808219Y-58419017D01*
X206828435Y-58352135D01*
X206879811Y-58307618D01*
X206885802Y-58304824D01*
X207008662Y-58247534D01*
X207189620Y-58120826D01*
X207345826Y-57964620D01*
X207472534Y-57783662D01*
X207565894Y-57583450D01*
X207623070Y-57370068D01*
X207642323Y-57150000D01*
X207639155Y-57113793D01*
X207623070Y-56929937D01*
X207623070Y-56929936D01*
X207623070Y-56929932D01*
X207565894Y-56716550D01*
X207472534Y-56516339D01*
X207345826Y-56335380D01*
X207189620Y-56179174D01*
X207189616Y-56179171D01*
X207189615Y-56179170D01*
X207008666Y-56052468D01*
X207008658Y-56052464D01*
X206879811Y-55992382D01*
X206827371Y-55946210D01*
X206808219Y-55879017D01*
X206828435Y-55812135D01*
X206879811Y-55767618D01*
X206885802Y-55764824D01*
X207008662Y-55707534D01*
X207189620Y-55580826D01*
X207345826Y-55424620D01*
X207472534Y-55243662D01*
X207565894Y-55043450D01*
X207623070Y-54830068D01*
X207642323Y-54610000D01*
X207623070Y-54389932D01*
X207565894Y-54176550D01*
X207472534Y-53976339D01*
X207345826Y-53795380D01*
X207189620Y-53639174D01*
X207189616Y-53639171D01*
X207189615Y-53639170D01*
X207008666Y-53512468D01*
X207008658Y-53512464D01*
X206879811Y-53452382D01*
X206827371Y-53406210D01*
X206808219Y-53339017D01*
X206828435Y-53272135D01*
X206879811Y-53227618D01*
X206885802Y-53224824D01*
X207008662Y-53167534D01*
X207189620Y-53040826D01*
X207345826Y-52884620D01*
X207472534Y-52703662D01*
X207565894Y-52503450D01*
X207623070Y-52290068D01*
X207639976Y-52096831D01*
X207642323Y-52070002D01*
X207642323Y-52069997D01*
X207623070Y-51849937D01*
X207623070Y-51849932D01*
X207565894Y-51636550D01*
X207472534Y-51436339D01*
X207345826Y-51255380D01*
X207189620Y-51099174D01*
X207189616Y-51099171D01*
X207189615Y-51099170D01*
X207008666Y-50972468D01*
X207008658Y-50972464D01*
X206879811Y-50912382D01*
X206827371Y-50866210D01*
X206808219Y-50799017D01*
X206828435Y-50732135D01*
X206879811Y-50687618D01*
X206885802Y-50684824D01*
X207008662Y-50627534D01*
X207189620Y-50500826D01*
X207345826Y-50344620D01*
X207472534Y-50163662D01*
X207565894Y-49963450D01*
X207623070Y-49750068D01*
X207642323Y-49530000D01*
X207623070Y-49309932D01*
X207565894Y-49096550D01*
X207472534Y-48896339D01*
X207345826Y-48715380D01*
X207189620Y-48559174D01*
X207073796Y-48478073D01*
X207030173Y-48423497D01*
X207022980Y-48353998D01*
X207054502Y-48291644D01*
X207114732Y-48256230D01*
X207144921Y-48252499D01*
X207184871Y-48252499D01*
X207184872Y-48252499D01*
X207244483Y-48246091D01*
X207379331Y-48195796D01*
X207494546Y-48109546D01*
X207580796Y-47994331D01*
X207631091Y-47859483D01*
X207637500Y-47799873D01*
X207637499Y-46180128D01*
X207631091Y-46120517D01*
X207580796Y-45985669D01*
X207580795Y-45985668D01*
X207580793Y-45985664D01*
X207494547Y-45870455D01*
X207494544Y-45870452D01*
X207379335Y-45784206D01*
X207379328Y-45784202D01*
X207244482Y-45733908D01*
X207244483Y-45733908D01*
X207184883Y-45727501D01*
X207184881Y-45727500D01*
X207184873Y-45727500D01*
X207184865Y-45727500D01*
X207124500Y-45727500D01*
X207057461Y-45707815D01*
X207011706Y-45655011D01*
X207000500Y-45603500D01*
X207000500Y-38004452D01*
X207020185Y-37937413D01*
X207072989Y-37891658D01*
X207142147Y-37881714D01*
X207205703Y-37910739D01*
X207212181Y-37916771D01*
X208414197Y-39118788D01*
X208424022Y-39131051D01*
X208424243Y-39130869D01*
X208429214Y-39136878D01*
X208455217Y-39161295D01*
X208479635Y-39184226D01*
X208500529Y-39205120D01*
X208506011Y-39209373D01*
X208510443Y-39213157D01*
X208544418Y-39245062D01*
X208561976Y-39254714D01*
X208578233Y-39265393D01*
X208594064Y-39277673D01*
X208613737Y-39286186D01*
X208636833Y-39296182D01*
X208642077Y-39298750D01*
X208682908Y-39321197D01*
X208695523Y-39324435D01*
X208702305Y-39326177D01*
X208720719Y-39332481D01*
X208739104Y-39340438D01*
X208785157Y-39347732D01*
X208790826Y-39348906D01*
X208835981Y-39360500D01*
X208856016Y-39360500D01*
X208875413Y-39362026D01*
X208895196Y-39365160D01*
X208941584Y-39360775D01*
X208947422Y-39360500D01*
X209874548Y-39360500D01*
X209941587Y-39380185D01*
X209962229Y-39396819D01*
X224763181Y-54197771D01*
X224796666Y-54259094D01*
X224799500Y-54285452D01*
X224799500Y-63417255D01*
X224797775Y-63432872D01*
X224798061Y-63432899D01*
X224797326Y-63440665D01*
X224799500Y-63509814D01*
X224799500Y-63539343D01*
X224799501Y-63539360D01*
X224800368Y-63546231D01*
X224800826Y-63552050D01*
X224802290Y-63598624D01*
X224802291Y-63598627D01*
X224807880Y-63617867D01*
X224811824Y-63636911D01*
X224814336Y-63656792D01*
X224831490Y-63700119D01*
X224833382Y-63705647D01*
X224846381Y-63750388D01*
X224856580Y-63767634D01*
X224865138Y-63785103D01*
X224872514Y-63803732D01*
X224899898Y-63841423D01*
X224903106Y-63846307D01*
X224926827Y-63886416D01*
X224926833Y-63886424D01*
X224940990Y-63900580D01*
X224953627Y-63915375D01*
X224965406Y-63931587D01*
X224994168Y-63955381D01*
X225001309Y-63961288D01*
X225005620Y-63965210D01*
X225984427Y-64944018D01*
X226194197Y-65153788D01*
X226204022Y-65166051D01*
X226204243Y-65165869D01*
X226209214Y-65171878D01*
X226235217Y-65196295D01*
X226259635Y-65219226D01*
X226280529Y-65240120D01*
X226286011Y-65244373D01*
X226290443Y-65248157D01*
X226324418Y-65280062D01*
X226341976Y-65289714D01*
X226358235Y-65300395D01*
X226374064Y-65312673D01*
X226416838Y-65331182D01*
X226422056Y-65333738D01*
X226462908Y-65356197D01*
X226482316Y-65361180D01*
X226500717Y-65367480D01*
X226519104Y-65375437D01*
X226562488Y-65382308D01*
X226565119Y-65382725D01*
X226570839Y-65383909D01*
X226615981Y-65395500D01*
X226636016Y-65395500D01*
X226655414Y-65397026D01*
X226675194Y-65400159D01*
X226675195Y-65400160D01*
X226675195Y-65400159D01*
X226675196Y-65400160D01*
X226721584Y-65395775D01*
X226727422Y-65395500D01*
X226797200Y-65395500D01*
X226864239Y-65415185D01*
X226898775Y-65448376D01*
X226994174Y-65584620D01*
X226994175Y-65584621D01*
X227150378Y-65740824D01*
X227150384Y-65740829D01*
X227331333Y-65867531D01*
X227331335Y-65867532D01*
X227331338Y-65867534D01*
X227531550Y-65960894D01*
X227744932Y-66018070D01*
X227902123Y-66031822D01*
X227964998Y-66037323D01*
X227965000Y-66037323D01*
X227965002Y-66037323D01*
X228023546Y-66032201D01*
X228185068Y-66018070D01*
X228398450Y-65960894D01*
X228598662Y-65867534D01*
X228779620Y-65740826D01*
X228935826Y-65584620D01*
X229062534Y-65403662D01*
X229155894Y-65203450D01*
X229213070Y-64990068D01*
X229232323Y-64770000D01*
X229213070Y-64549932D01*
X229155894Y-64336550D01*
X229062534Y-64136339D01*
X228957052Y-63985694D01*
X228935827Y-63955381D01*
X228866862Y-63886416D01*
X228779620Y-63799174D01*
X228779616Y-63799171D01*
X228779615Y-63799170D01*
X228598666Y-63672468D01*
X228598658Y-63672464D01*
X228469811Y-63612382D01*
X228417371Y-63566210D01*
X228398219Y-63499017D01*
X228418435Y-63432135D01*
X228469811Y-63387618D01*
X228516486Y-63365853D01*
X228598662Y-63327534D01*
X228779620Y-63200826D01*
X228935826Y-63044620D01*
X229062534Y-62863662D01*
X229155894Y-62663450D01*
X229213070Y-62450068D01*
X229232323Y-62230000D01*
X229213070Y-62009932D01*
X229155894Y-61796550D01*
X229062534Y-61596339D01*
X228994780Y-61499575D01*
X228935827Y-61415381D01*
X228892674Y-61372228D01*
X228779620Y-61259174D01*
X228779616Y-61259171D01*
X228779615Y-61259170D01*
X228598666Y-61132468D01*
X228598658Y-61132464D01*
X228469811Y-61072382D01*
X228417371Y-61026210D01*
X228398219Y-60959017D01*
X228418435Y-60892135D01*
X228469811Y-60847618D01*
X228475802Y-60844824D01*
X228598662Y-60787534D01*
X228779620Y-60660826D01*
X228935826Y-60504620D01*
X229062534Y-60323662D01*
X229155894Y-60123450D01*
X229213070Y-59910068D01*
X229229976Y-59716831D01*
X229232323Y-59690002D01*
X229232323Y-59689997D01*
X229213070Y-59469937D01*
X229213070Y-59469936D01*
X229213070Y-59469932D01*
X229155894Y-59256550D01*
X229062534Y-59056339D01*
X228978489Y-58936310D01*
X228935827Y-58875381D01*
X228868094Y-58807648D01*
X228779620Y-58719174D01*
X228779616Y-58719171D01*
X228779615Y-58719170D01*
X228598666Y-58592468D01*
X228598658Y-58592464D01*
X228469811Y-58532382D01*
X228417371Y-58486210D01*
X228398219Y-58419017D01*
X228418435Y-58352135D01*
X228469811Y-58307618D01*
X228475802Y-58304824D01*
X228598662Y-58247534D01*
X228779620Y-58120826D01*
X228935826Y-57964620D01*
X229062534Y-57783662D01*
X229155894Y-57583450D01*
X229213070Y-57370068D01*
X229232323Y-57150000D01*
X229229155Y-57113793D01*
X229213070Y-56929937D01*
X229213070Y-56929936D01*
X229213070Y-56929932D01*
X229155894Y-56716550D01*
X229062534Y-56516339D01*
X228935826Y-56335380D01*
X228779620Y-56179174D01*
X228779616Y-56179171D01*
X228779615Y-56179170D01*
X228598666Y-56052468D01*
X228598658Y-56052464D01*
X228469811Y-55992382D01*
X228417371Y-55946210D01*
X228398219Y-55879017D01*
X228418435Y-55812135D01*
X228469811Y-55767618D01*
X228475802Y-55764824D01*
X228598662Y-55707534D01*
X228779620Y-55580826D01*
X228935826Y-55424620D01*
X229062534Y-55243662D01*
X229155894Y-55043450D01*
X229213070Y-54830068D01*
X229232323Y-54610000D01*
X229213070Y-54389932D01*
X229155894Y-54176550D01*
X229062534Y-53976339D01*
X228935826Y-53795380D01*
X228779620Y-53639174D01*
X228779616Y-53639171D01*
X228779615Y-53639170D01*
X228598666Y-53512468D01*
X228598658Y-53512464D01*
X228469811Y-53452382D01*
X228417371Y-53406210D01*
X228398219Y-53339017D01*
X228418435Y-53272135D01*
X228469811Y-53227618D01*
X228475802Y-53224824D01*
X228598662Y-53167534D01*
X228779620Y-53040826D01*
X228935826Y-52884620D01*
X229062534Y-52703662D01*
X229155894Y-52503450D01*
X229213070Y-52290068D01*
X229229976Y-52096831D01*
X229232323Y-52070002D01*
X229232323Y-52069997D01*
X229213070Y-51849937D01*
X229213070Y-51849932D01*
X229155894Y-51636550D01*
X229062534Y-51436339D01*
X228935826Y-51255380D01*
X228779620Y-51099174D01*
X228779616Y-51099171D01*
X228779615Y-51099170D01*
X228598666Y-50972468D01*
X228598658Y-50972464D01*
X228469811Y-50912382D01*
X228417371Y-50866210D01*
X228398219Y-50799017D01*
X228418435Y-50732135D01*
X228469811Y-50687618D01*
X228475802Y-50684824D01*
X228598662Y-50627534D01*
X228779620Y-50500826D01*
X228935826Y-50344620D01*
X229062534Y-50163662D01*
X229155894Y-49963450D01*
X229213070Y-49750068D01*
X229232323Y-49530000D01*
X229213070Y-49309932D01*
X229155894Y-49096550D01*
X229062534Y-48896339D01*
X228935826Y-48715380D01*
X228779620Y-48559174D01*
X228779616Y-48559171D01*
X228779615Y-48559170D01*
X228663797Y-48478074D01*
X228620172Y-48423497D01*
X228612978Y-48353999D01*
X228644501Y-48291644D01*
X228704730Y-48256230D01*
X228734919Y-48252499D01*
X228774872Y-48252499D01*
X228834483Y-48246091D01*
X228969331Y-48195796D01*
X229084546Y-48109546D01*
X229170796Y-47994331D01*
X229221091Y-47859483D01*
X229227500Y-47799873D01*
X229227499Y-46180128D01*
X229221091Y-46120517D01*
X229170796Y-45985669D01*
X229170795Y-45985668D01*
X229170793Y-45985664D01*
X229084547Y-45870455D01*
X229084544Y-45870452D01*
X228969335Y-45784206D01*
X228969328Y-45784202D01*
X228834482Y-45733908D01*
X228834483Y-45733908D01*
X228774883Y-45727501D01*
X228774881Y-45727500D01*
X228774873Y-45727500D01*
X228774864Y-45727500D01*
X227155129Y-45727500D01*
X227155123Y-45727501D01*
X227095516Y-45733908D01*
X226960671Y-45784202D01*
X226960664Y-45784206D01*
X226845455Y-45870452D01*
X226845452Y-45870455D01*
X226759206Y-45985664D01*
X226759202Y-45985671D01*
X226708908Y-46120517D01*
X226703010Y-46175380D01*
X226702501Y-46180123D01*
X226702500Y-46180135D01*
X226702500Y-46240500D01*
X226682815Y-46307539D01*
X226630011Y-46353294D01*
X226578500Y-46364500D01*
X223068452Y-46364500D01*
X223001413Y-46344815D01*
X222980771Y-46328181D01*
X212668237Y-36015646D01*
X212634752Y-35954323D01*
X212636142Y-35895876D01*
X212663063Y-35795408D01*
X212683659Y-35560000D01*
X212663063Y-35324592D01*
X212601903Y-35096337D01*
X212502035Y-34882171D01*
X212496731Y-34874595D01*
X212366494Y-34688597D01*
X212199402Y-34521506D01*
X212199395Y-34521501D01*
X212005834Y-34385967D01*
X212005830Y-34385965D01*
X211935113Y-34352989D01*
X211791663Y-34286097D01*
X211791659Y-34286096D01*
X211791655Y-34286094D01*
X211563413Y-34224938D01*
X211563403Y-34224936D01*
X211328001Y-34204341D01*
X211327999Y-34204341D01*
X211092596Y-34224936D01*
X211092586Y-34224938D01*
X210864344Y-34286094D01*
X210864335Y-34286098D01*
X210650171Y-34385964D01*
X210650169Y-34385965D01*
X210456597Y-34521505D01*
X210289505Y-34688597D01*
X210159575Y-34874158D01*
X210104998Y-34917783D01*
X210035500Y-34924977D01*
X209973145Y-34893454D01*
X209956425Y-34874158D01*
X209826494Y-34688597D01*
X209659402Y-34521506D01*
X209659395Y-34521501D01*
X209465834Y-34385967D01*
X209465830Y-34385965D01*
X209395113Y-34352989D01*
X209251663Y-34286097D01*
X209251659Y-34286096D01*
X209251655Y-34286094D01*
X209023413Y-34224938D01*
X209023403Y-34224936D01*
X208788001Y-34204341D01*
X208787999Y-34204341D01*
X208552596Y-34224936D01*
X208552586Y-34224938D01*
X208324344Y-34286094D01*
X208324335Y-34286098D01*
X208107286Y-34387310D01*
X208038208Y-34397802D01*
X207974424Y-34369282D01*
X207967200Y-34362609D01*
X206875803Y-33271212D01*
X206865980Y-33258950D01*
X206865759Y-33259134D01*
X206860786Y-33253123D01*
X206842159Y-33235631D01*
X206810364Y-33205773D01*
X206799919Y-33195328D01*
X206789475Y-33184883D01*
X206783986Y-33180625D01*
X206779561Y-33176847D01*
X206745582Y-33144938D01*
X206745580Y-33144936D01*
X206745577Y-33144935D01*
X206728029Y-33135288D01*
X206711763Y-33124604D01*
X206695933Y-33112325D01*
X206653168Y-33093818D01*
X206647922Y-33091248D01*
X206607093Y-33068803D01*
X206607092Y-33068802D01*
X206587693Y-33063822D01*
X206569281Y-33057518D01*
X206550898Y-33049562D01*
X206550892Y-33049560D01*
X206504874Y-33042272D01*
X206499152Y-33041087D01*
X206454021Y-33029500D01*
X206454019Y-33029500D01*
X206433984Y-33029500D01*
X206414586Y-33027973D01*
X206407162Y-33026797D01*
X206394805Y-33024840D01*
X206394804Y-33024840D01*
X206348416Y-33029225D01*
X206342578Y-33029500D01*
X195535743Y-33029500D01*
X195520122Y-33027775D01*
X195520096Y-33028061D01*
X195512334Y-33027327D01*
X195512333Y-33027327D01*
X195443186Y-33029500D01*
X195413649Y-33029500D01*
X195406766Y-33030369D01*
X195400949Y-33030826D01*
X195354373Y-33032290D01*
X195335129Y-33037881D01*
X195316079Y-33041825D01*
X195296211Y-33044334D01*
X195252884Y-33061488D01*
X195247358Y-33063379D01*
X195202614Y-33076379D01*
X195202610Y-33076381D01*
X195185366Y-33086579D01*
X195167905Y-33095133D01*
X195149274Y-33102510D01*
X195149262Y-33102517D01*
X195111570Y-33129902D01*
X195106687Y-33133109D01*
X195066580Y-33156829D01*
X195052414Y-33170995D01*
X195037624Y-33183627D01*
X195021414Y-33195404D01*
X195021411Y-33195407D01*
X194991710Y-33231309D01*
X194987777Y-33235631D01*
X194003646Y-34219762D01*
X193942323Y-34253247D01*
X193883872Y-34251856D01*
X193783413Y-34224938D01*
X193783403Y-34224936D01*
X193548001Y-34204341D01*
X193547999Y-34204341D01*
X193312596Y-34224936D01*
X193312586Y-34224938D01*
X193084344Y-34286094D01*
X193084335Y-34286098D01*
X192870171Y-34385964D01*
X192870169Y-34385965D01*
X192676597Y-34521505D01*
X192509508Y-34688594D01*
X192379269Y-34874595D01*
X192324692Y-34918219D01*
X192255193Y-34925412D01*
X192192839Y-34893890D01*
X192176119Y-34874594D01*
X192046113Y-34688926D01*
X192046108Y-34688920D01*
X191879082Y-34521894D01*
X191685578Y-34386399D01*
X191471492Y-34286570D01*
X191471486Y-34286567D01*
X191258000Y-34229364D01*
X191258000Y-35124498D01*
X191150315Y-35075320D01*
X191043763Y-35060000D01*
X190972237Y-35060000D01*
X190865685Y-35075320D01*
X190758000Y-35124498D01*
X190758000Y-34229364D01*
X190757999Y-34229364D01*
X190544513Y-34286567D01*
X190544507Y-34286570D01*
X190330422Y-34386399D01*
X190330420Y-34386400D01*
X190136926Y-34521886D01*
X190014865Y-34643947D01*
X189953542Y-34677431D01*
X189883850Y-34672447D01*
X189827917Y-34630575D01*
X189811002Y-34599598D01*
X189761797Y-34467671D01*
X189761793Y-34467664D01*
X189675547Y-34352455D01*
X189675544Y-34352452D01*
X189560335Y-34266206D01*
X189560328Y-34266202D01*
X189425482Y-34215908D01*
X189425483Y-34215908D01*
X189365883Y-34209501D01*
X189365881Y-34209500D01*
X189365873Y-34209500D01*
X189365864Y-34209500D01*
X187570129Y-34209500D01*
X187570123Y-34209501D01*
X187510516Y-34215908D01*
X187375671Y-34266202D01*
X187375664Y-34266206D01*
X187260455Y-34352452D01*
X187260452Y-34352455D01*
X187174206Y-34467664D01*
X187174202Y-34467671D01*
X187123908Y-34602517D01*
X187117501Y-34662116D01*
X187117500Y-34662135D01*
X187117500Y-36457870D01*
X180235499Y-36457870D01*
X180235499Y-36117128D01*
X180229091Y-36057517D01*
X180227542Y-36053365D01*
X180178797Y-35922671D01*
X180178793Y-35922664D01*
X180092547Y-35807455D01*
X180092544Y-35807452D01*
X179977335Y-35721206D01*
X179977328Y-35721202D01*
X179842482Y-35670908D01*
X179842483Y-35670908D01*
X179782883Y-35664501D01*
X179782881Y-35664500D01*
X179782873Y-35664500D01*
X179782864Y-35664500D01*
X177087129Y-35664500D01*
X177087123Y-35664501D01*
X177027516Y-35670908D01*
X176892671Y-35721202D01*
X176892664Y-35721206D01*
X176777455Y-35807452D01*
X176777452Y-35807455D01*
X176691206Y-35922664D01*
X176691202Y-35922671D01*
X176640908Y-36057517D01*
X176634501Y-36117116D01*
X176634501Y-36117123D01*
X176634500Y-36117135D01*
X176634500Y-38812870D01*
X174549463Y-38812870D01*
X174678561Y-38693085D01*
X174846815Y-38482102D01*
X174981743Y-38248398D01*
X175080334Y-37997195D01*
X175140383Y-37734103D01*
X175151197Y-37589792D01*
X175160549Y-37465004D01*
X175160549Y-37464995D01*
X175140383Y-37195898D01*
X175137785Y-37184515D01*
X175080334Y-36932805D01*
X174981743Y-36681602D01*
X174846815Y-36447898D01*
X174678561Y-36236915D01*
X174678560Y-36236914D01*
X174678557Y-36236910D01*
X174480741Y-36053365D01*
X174437176Y-36023663D01*
X174257775Y-35901349D01*
X174257769Y-35901346D01*
X174257768Y-35901345D01*
X174257767Y-35901344D01*
X174014643Y-35784263D01*
X174014645Y-35784263D01*
X173756773Y-35704720D01*
X173756767Y-35704718D01*
X173489936Y-35664500D01*
X173489929Y-35664500D01*
X173220071Y-35664500D01*
X173220063Y-35664500D01*
X172953232Y-35704718D01*
X172953226Y-35704720D01*
X172695358Y-35784262D01*
X172452230Y-35901346D01*
X172229258Y-36053365D01*
X172031442Y-36236910D01*
X171863185Y-36447898D01*
X171728258Y-36681599D01*
X171728256Y-36681603D01*
X171629666Y-36932804D01*
X171629664Y-36932811D01*
X171569616Y-37195898D01*
X171549451Y-37464995D01*
X171549451Y-37465004D01*
X168910500Y-37465004D01*
X168910500Y-33656740D01*
X168910598Y-33653263D01*
X168912140Y-33625782D01*
X168916995Y-33539333D01*
X168927401Y-33367304D01*
X168928160Y-33360706D01*
X168945418Y-33259134D01*
X168951277Y-33224656D01*
X168965886Y-33144935D01*
X168978562Y-33075763D01*
X168979961Y-33069810D01*
X169019387Y-32932956D01*
X169063270Y-32792135D01*
X169065158Y-32786921D01*
X169120397Y-32653565D01*
X169180343Y-32520370D01*
X169182599Y-32515861D01*
X169252958Y-32388557D01*
X169328228Y-32264044D01*
X169330693Y-32260286D01*
X169414461Y-32142226D01*
X169416145Y-32139967D01*
X169504932Y-32026638D01*
X169507472Y-32023605D01*
X169604052Y-31915531D01*
X169606373Y-31913077D01*
X169708077Y-31811373D01*
X169710531Y-31809052D01*
X169818605Y-31712472D01*
X169821638Y-31709932D01*
X169934967Y-31621145D01*
X169937226Y-31619461D01*
X170055286Y-31535693D01*
X170059044Y-31533228D01*
X170183557Y-31457958D01*
X170310861Y-31387599D01*
X170315370Y-31385343D01*
X170448565Y-31325397D01*
X170581921Y-31270158D01*
X170587135Y-31268270D01*
X170727956Y-31224387D01*
X170864810Y-31184961D01*
X170870763Y-31183562D01*
X170953324Y-31168432D01*
X171019656Y-31156277D01*
X171067941Y-31148072D01*
X171155706Y-31133160D01*
X171162304Y-31132401D01*
X171334333Y-31121995D01*
X171420782Y-31117140D01*
X171448263Y-31115598D01*
X171451740Y-31115500D01*
X226642221Y-31115500D01*
X226709260Y-31135185D01*
G37*
G04 #@! TD.AperFunction*
M02*
