G04 #@! TF.GenerationSoftware,KiCad,Pcbnew,7.0.8*
G04 #@! TF.CreationDate,2024-02-17T11:27:20+01:00*
G04 #@! TF.ProjectId,PCB_V2,5043425f-5632-42e6-9b69-6361645f7063,rev?*
G04 #@! TF.SameCoordinates,Original*
G04 #@! TF.FileFunction,Legend,Bot*
G04 #@! TF.FilePolarity,Positive*
%FSLAX46Y46*%
G04 Gerber Fmt 4.6, Leading zero omitted, Abs format (unit mm)*
G04 Created by KiCad (PCBNEW 7.0.8) date 2024-02-17 11:27:20*
%MOMM*%
%LPD*%
G01*
G04 APERTURE LIST*
G04 Aperture macros list*
%AMRoundRect*
0 Rectangle with rounded corners*
0 $1 Rounding radius*
0 $2 $3 $4 $5 $6 $7 $8 $9 X,Y pos of 4 corners*
0 Add a 4 corners polygon primitive as box body*
4,1,4,$2,$3,$4,$5,$6,$7,$8,$9,$2,$3,0*
0 Add four circle primitives for the rounded corners*
1,1,$1+$1,$2,$3*
1,1,$1+$1,$4,$5*
1,1,$1+$1,$6,$7*
1,1,$1+$1,$8,$9*
0 Add four rect primitives between the rounded corners*
20,1,$1+$1,$2,$3,$4,$5,0*
20,1,$1+$1,$4,$5,$6,$7,0*
20,1,$1+$1,$6,$7,$8,$9,0*
20,1,$1+$1,$8,$9,$2,$3,0*%
G04 Aperture macros list end*
%ADD10C,0.150000*%
%ADD11C,0.120000*%
%ADD12O,1.700000X1.700000*%
%ADD13R,1.700000X1.700000*%
%ADD14C,3.100000*%
%ADD15C,5.400000*%
%ADD16RoundRect,0.102000X-0.762000X-0.762000X0.762000X-0.762000X0.762000X0.762000X-0.762000X0.762000X0*%
%ADD17C,1.728000*%
%ADD18C,2.600000*%
%ADD19R,2.600000X2.600000*%
%ADD20R,1.000000X1.500000*%
G04 APERTURE END LIST*
D10*
X225723220Y-83054819D02*
X225723220Y-82054819D01*
X225723220Y-82054819D02*
X225485125Y-82054819D01*
X225485125Y-82054819D02*
X225342268Y-82102438D01*
X225342268Y-82102438D02*
X225247030Y-82197676D01*
X225247030Y-82197676D02*
X225199411Y-82292914D01*
X225199411Y-82292914D02*
X225151792Y-82483390D01*
X225151792Y-82483390D02*
X225151792Y-82626247D01*
X225151792Y-82626247D02*
X225199411Y-82816723D01*
X225199411Y-82816723D02*
X225247030Y-82911961D01*
X225247030Y-82911961D02*
X225342268Y-83007200D01*
X225342268Y-83007200D02*
X225485125Y-83054819D01*
X225485125Y-83054819D02*
X225723220Y-83054819D01*
X224342268Y-83007200D02*
X224437506Y-83054819D01*
X224437506Y-83054819D02*
X224627982Y-83054819D01*
X224627982Y-83054819D02*
X224723220Y-83007200D01*
X224723220Y-83007200D02*
X224770839Y-82911961D01*
X224770839Y-82911961D02*
X224770839Y-82531009D01*
X224770839Y-82531009D02*
X224723220Y-82435771D01*
X224723220Y-82435771D02*
X224627982Y-82388152D01*
X224627982Y-82388152D02*
X224437506Y-82388152D01*
X224437506Y-82388152D02*
X224342268Y-82435771D01*
X224342268Y-82435771D02*
X224294649Y-82531009D01*
X224294649Y-82531009D02*
X224294649Y-82626247D01*
X224294649Y-82626247D02*
X224770839Y-82721485D01*
X223913696Y-83007200D02*
X223818458Y-83054819D01*
X223818458Y-83054819D02*
X223627982Y-83054819D01*
X223627982Y-83054819D02*
X223532744Y-83007200D01*
X223532744Y-83007200D02*
X223485125Y-82911961D01*
X223485125Y-82911961D02*
X223485125Y-82864342D01*
X223485125Y-82864342D02*
X223532744Y-82769104D01*
X223532744Y-82769104D02*
X223627982Y-82721485D01*
X223627982Y-82721485D02*
X223770839Y-82721485D01*
X223770839Y-82721485D02*
X223866077Y-82673866D01*
X223866077Y-82673866D02*
X223913696Y-82578628D01*
X223913696Y-82578628D02*
X223913696Y-82531009D01*
X223913696Y-82531009D02*
X223866077Y-82435771D01*
X223866077Y-82435771D02*
X223770839Y-82388152D01*
X223770839Y-82388152D02*
X223627982Y-82388152D01*
X223627982Y-82388152D02*
X223532744Y-82435771D01*
X223056553Y-83054819D02*
X223056553Y-82388152D01*
X223056553Y-82054819D02*
X223104172Y-82102438D01*
X223104172Y-82102438D02*
X223056553Y-82150057D01*
X223056553Y-82150057D02*
X223008934Y-82102438D01*
X223008934Y-82102438D02*
X223056553Y-82054819D01*
X223056553Y-82054819D02*
X223056553Y-82150057D01*
X222151792Y-82388152D02*
X222151792Y-83197676D01*
X222151792Y-83197676D02*
X222199411Y-83292914D01*
X222199411Y-83292914D02*
X222247030Y-83340533D01*
X222247030Y-83340533D02*
X222342268Y-83388152D01*
X222342268Y-83388152D02*
X222485125Y-83388152D01*
X222485125Y-83388152D02*
X222580363Y-83340533D01*
X222151792Y-83007200D02*
X222247030Y-83054819D01*
X222247030Y-83054819D02*
X222437506Y-83054819D01*
X222437506Y-83054819D02*
X222532744Y-83007200D01*
X222532744Y-83007200D02*
X222580363Y-82959580D01*
X222580363Y-82959580D02*
X222627982Y-82864342D01*
X222627982Y-82864342D02*
X222627982Y-82578628D01*
X222627982Y-82578628D02*
X222580363Y-82483390D01*
X222580363Y-82483390D02*
X222532744Y-82435771D01*
X222532744Y-82435771D02*
X222437506Y-82388152D01*
X222437506Y-82388152D02*
X222247030Y-82388152D01*
X222247030Y-82388152D02*
X222151792Y-82435771D01*
X221675601Y-82388152D02*
X221675601Y-83054819D01*
X221675601Y-82483390D02*
X221627982Y-82435771D01*
X221627982Y-82435771D02*
X221532744Y-82388152D01*
X221532744Y-82388152D02*
X221389887Y-82388152D01*
X221389887Y-82388152D02*
X221294649Y-82435771D01*
X221294649Y-82435771D02*
X221247030Y-82531009D01*
X221247030Y-82531009D02*
X221247030Y-83054819D01*
X220389887Y-83007200D02*
X220485125Y-83054819D01*
X220485125Y-83054819D02*
X220675601Y-83054819D01*
X220675601Y-83054819D02*
X220770839Y-83007200D01*
X220770839Y-83007200D02*
X220818458Y-82911961D01*
X220818458Y-82911961D02*
X220818458Y-82531009D01*
X220818458Y-82531009D02*
X220770839Y-82435771D01*
X220770839Y-82435771D02*
X220675601Y-82388152D01*
X220675601Y-82388152D02*
X220485125Y-82388152D01*
X220485125Y-82388152D02*
X220389887Y-82435771D01*
X220389887Y-82435771D02*
X220342268Y-82531009D01*
X220342268Y-82531009D02*
X220342268Y-82626247D01*
X220342268Y-82626247D02*
X220818458Y-82721485D01*
X219485125Y-83054819D02*
X219485125Y-82054819D01*
X219485125Y-83007200D02*
X219580363Y-83054819D01*
X219580363Y-83054819D02*
X219770839Y-83054819D01*
X219770839Y-83054819D02*
X219866077Y-83007200D01*
X219866077Y-83007200D02*
X219913696Y-82959580D01*
X219913696Y-82959580D02*
X219961315Y-82864342D01*
X219961315Y-82864342D02*
X219961315Y-82578628D01*
X219961315Y-82578628D02*
X219913696Y-82483390D01*
X219913696Y-82483390D02*
X219866077Y-82435771D01*
X219866077Y-82435771D02*
X219770839Y-82388152D01*
X219770839Y-82388152D02*
X219580363Y-82388152D01*
X219580363Y-82388152D02*
X219485125Y-82435771D01*
X218247029Y-83054819D02*
X218247029Y-82054819D01*
X218247029Y-82435771D02*
X218151791Y-82388152D01*
X218151791Y-82388152D02*
X217961315Y-82388152D01*
X217961315Y-82388152D02*
X217866077Y-82435771D01*
X217866077Y-82435771D02*
X217818458Y-82483390D01*
X217818458Y-82483390D02*
X217770839Y-82578628D01*
X217770839Y-82578628D02*
X217770839Y-82864342D01*
X217770839Y-82864342D02*
X217818458Y-82959580D01*
X217818458Y-82959580D02*
X217866077Y-83007200D01*
X217866077Y-83007200D02*
X217961315Y-83054819D01*
X217961315Y-83054819D02*
X218151791Y-83054819D01*
X218151791Y-83054819D02*
X218247029Y-83007200D01*
X217437505Y-82388152D02*
X217199410Y-83054819D01*
X216961315Y-82388152D02*
X217199410Y-83054819D01*
X217199410Y-83054819D02*
X217294648Y-83292914D01*
X217294648Y-83292914D02*
X217342267Y-83340533D01*
X217342267Y-83340533D02*
X217437505Y-83388152D01*
X215247029Y-82959580D02*
X215294648Y-83007200D01*
X215294648Y-83007200D02*
X215437505Y-83054819D01*
X215437505Y-83054819D02*
X215532743Y-83054819D01*
X215532743Y-83054819D02*
X215675600Y-83007200D01*
X215675600Y-83007200D02*
X215770838Y-82911961D01*
X215770838Y-82911961D02*
X215818457Y-82816723D01*
X215818457Y-82816723D02*
X215866076Y-82626247D01*
X215866076Y-82626247D02*
X215866076Y-82483390D01*
X215866076Y-82483390D02*
X215818457Y-82292914D01*
X215818457Y-82292914D02*
X215770838Y-82197676D01*
X215770838Y-82197676D02*
X215675600Y-82102438D01*
X215675600Y-82102438D02*
X215532743Y-82054819D01*
X215532743Y-82054819D02*
X215437505Y-82054819D01*
X215437505Y-82054819D02*
X215294648Y-82102438D01*
X215294648Y-82102438D02*
X215247029Y-82150057D01*
X214437505Y-83007200D02*
X214532743Y-83054819D01*
X214532743Y-83054819D02*
X214723219Y-83054819D01*
X214723219Y-83054819D02*
X214818457Y-83007200D01*
X214818457Y-83007200D02*
X214866076Y-82911961D01*
X214866076Y-82911961D02*
X214866076Y-82531009D01*
X214866076Y-82531009D02*
X214818457Y-82435771D01*
X214818457Y-82435771D02*
X214723219Y-82388152D01*
X214723219Y-82388152D02*
X214532743Y-82388152D01*
X214532743Y-82388152D02*
X214437505Y-82435771D01*
X214437505Y-82435771D02*
X214389886Y-82531009D01*
X214389886Y-82531009D02*
X214389886Y-82626247D01*
X214389886Y-82626247D02*
X214866076Y-82721485D01*
X213532743Y-83054819D02*
X213532743Y-82054819D01*
X213532743Y-83007200D02*
X213627981Y-83054819D01*
X213627981Y-83054819D02*
X213818457Y-83054819D01*
X213818457Y-83054819D02*
X213913695Y-83007200D01*
X213913695Y-83007200D02*
X213961314Y-82959580D01*
X213961314Y-82959580D02*
X214008933Y-82864342D01*
X214008933Y-82864342D02*
X214008933Y-82578628D01*
X214008933Y-82578628D02*
X213961314Y-82483390D01*
X213961314Y-82483390D02*
X213913695Y-82435771D01*
X213913695Y-82435771D02*
X213818457Y-82388152D01*
X213818457Y-82388152D02*
X213627981Y-82388152D01*
X213627981Y-82388152D02*
X213532743Y-82435771D01*
X213056552Y-83054819D02*
X213056552Y-82388152D01*
X213056552Y-82578628D02*
X213008933Y-82483390D01*
X213008933Y-82483390D02*
X212961314Y-82435771D01*
X212961314Y-82435771D02*
X212866076Y-82388152D01*
X212866076Y-82388152D02*
X212770838Y-82388152D01*
X212437504Y-83054819D02*
X212437504Y-82388152D01*
X212437504Y-82054819D02*
X212485123Y-82102438D01*
X212485123Y-82102438D02*
X212437504Y-82150057D01*
X212437504Y-82150057D02*
X212389885Y-82102438D01*
X212389885Y-82102438D02*
X212437504Y-82054819D01*
X212437504Y-82054819D02*
X212437504Y-82150057D01*
X211532743Y-83007200D02*
X211627981Y-83054819D01*
X211627981Y-83054819D02*
X211818457Y-83054819D01*
X211818457Y-83054819D02*
X211913695Y-83007200D01*
X211913695Y-83007200D02*
X211961314Y-82959580D01*
X211961314Y-82959580D02*
X212008933Y-82864342D01*
X212008933Y-82864342D02*
X212008933Y-82578628D01*
X212008933Y-82578628D02*
X211961314Y-82483390D01*
X211961314Y-82483390D02*
X211913695Y-82435771D01*
X211913695Y-82435771D02*
X211818457Y-82388152D01*
X211818457Y-82388152D02*
X211627981Y-82388152D01*
X211627981Y-82388152D02*
X211532743Y-82435771D01*
X210342266Y-83054819D02*
X210342266Y-82054819D01*
X210342266Y-82054819D02*
X209961314Y-82054819D01*
X209961314Y-82054819D02*
X209866076Y-82102438D01*
X209866076Y-82102438D02*
X209818457Y-82150057D01*
X209818457Y-82150057D02*
X209770838Y-82245295D01*
X209770838Y-82245295D02*
X209770838Y-82388152D01*
X209770838Y-82388152D02*
X209818457Y-82483390D01*
X209818457Y-82483390D02*
X209866076Y-82531009D01*
X209866076Y-82531009D02*
X209961314Y-82578628D01*
X209961314Y-82578628D02*
X210342266Y-82578628D01*
X209151790Y-82054819D02*
X208961314Y-82054819D01*
X208961314Y-82054819D02*
X208866076Y-82102438D01*
X208866076Y-82102438D02*
X208770838Y-82197676D01*
X208770838Y-82197676D02*
X208723219Y-82388152D01*
X208723219Y-82388152D02*
X208723219Y-82721485D01*
X208723219Y-82721485D02*
X208770838Y-82911961D01*
X208770838Y-82911961D02*
X208866076Y-83007200D01*
X208866076Y-83007200D02*
X208961314Y-83054819D01*
X208961314Y-83054819D02*
X209151790Y-83054819D01*
X209151790Y-83054819D02*
X209247028Y-83007200D01*
X209247028Y-83007200D02*
X209342266Y-82911961D01*
X209342266Y-82911961D02*
X209389885Y-82721485D01*
X209389885Y-82721485D02*
X209389885Y-82388152D01*
X209389885Y-82388152D02*
X209342266Y-82197676D01*
X209342266Y-82197676D02*
X209247028Y-82102438D01*
X209247028Y-82102438D02*
X209151790Y-82054819D01*
X208294647Y-83054819D02*
X208294647Y-82054819D01*
X208294647Y-82054819D02*
X207723219Y-83054819D01*
X207723219Y-83054819D02*
X207723219Y-82054819D01*
X207294647Y-83007200D02*
X207151790Y-83054819D01*
X207151790Y-83054819D02*
X206913695Y-83054819D01*
X206913695Y-83054819D02*
X206818457Y-83007200D01*
X206818457Y-83007200D02*
X206770838Y-82959580D01*
X206770838Y-82959580D02*
X206723219Y-82864342D01*
X206723219Y-82864342D02*
X206723219Y-82769104D01*
X206723219Y-82769104D02*
X206770838Y-82673866D01*
X206770838Y-82673866D02*
X206818457Y-82626247D01*
X206818457Y-82626247D02*
X206913695Y-82578628D01*
X206913695Y-82578628D02*
X207104171Y-82531009D01*
X207104171Y-82531009D02*
X207199409Y-82483390D01*
X207199409Y-82483390D02*
X207247028Y-82435771D01*
X207247028Y-82435771D02*
X207294647Y-82340533D01*
X207294647Y-82340533D02*
X207294647Y-82245295D01*
X207294647Y-82245295D02*
X207247028Y-82150057D01*
X207247028Y-82150057D02*
X207199409Y-82102438D01*
X207199409Y-82102438D02*
X207104171Y-82054819D01*
X207104171Y-82054819D02*
X206866076Y-82054819D01*
X206866076Y-82054819D02*
X206723219Y-82102438D01*
X206342266Y-82769104D02*
X205866076Y-82769104D01*
X206437504Y-83054819D02*
X206104171Y-82054819D01*
X206104171Y-82054819D02*
X205770838Y-83054819D01*
X204866076Y-83054819D02*
X205199409Y-82578628D01*
X205437504Y-83054819D02*
X205437504Y-82054819D01*
X205437504Y-82054819D02*
X205056552Y-82054819D01*
X205056552Y-82054819D02*
X204961314Y-82102438D01*
X204961314Y-82102438D02*
X204913695Y-82150057D01*
X204913695Y-82150057D02*
X204866076Y-82245295D01*
X204866076Y-82245295D02*
X204866076Y-82388152D01*
X204866076Y-82388152D02*
X204913695Y-82483390D01*
X204913695Y-82483390D02*
X204961314Y-82531009D01*
X204961314Y-82531009D02*
X205056552Y-82578628D01*
X205056552Y-82578628D02*
X205437504Y-82578628D01*
X204437504Y-83054819D02*
X204437504Y-82054819D01*
X204437504Y-82054819D02*
X204199409Y-82054819D01*
X204199409Y-82054819D02*
X204056552Y-82102438D01*
X204056552Y-82102438D02*
X203961314Y-82197676D01*
X203961314Y-82197676D02*
X203913695Y-82292914D01*
X203913695Y-82292914D02*
X203866076Y-82483390D01*
X203866076Y-82483390D02*
X203866076Y-82626247D01*
X203866076Y-82626247D02*
X203913695Y-82816723D01*
X203913695Y-82816723D02*
X203961314Y-82911961D01*
X203961314Y-82911961D02*
X204056552Y-83007200D01*
X204056552Y-83007200D02*
X204199409Y-83054819D01*
X204199409Y-83054819D02*
X204437504Y-83054819D01*
X201866075Y-83054819D02*
X201913695Y-83054819D01*
X201913695Y-83054819D02*
X202008933Y-83007200D01*
X202008933Y-83007200D02*
X202151790Y-82864342D01*
X202151790Y-82864342D02*
X202389885Y-82578628D01*
X202389885Y-82578628D02*
X202485123Y-82435771D01*
X202485123Y-82435771D02*
X202532742Y-82292914D01*
X202532742Y-82292914D02*
X202532742Y-82197676D01*
X202532742Y-82197676D02*
X202485123Y-82102438D01*
X202485123Y-82102438D02*
X202389885Y-82054819D01*
X202389885Y-82054819D02*
X202342266Y-82054819D01*
X202342266Y-82054819D02*
X202247028Y-82102438D01*
X202247028Y-82102438D02*
X202199409Y-82197676D01*
X202199409Y-82197676D02*
X202199409Y-82245295D01*
X202199409Y-82245295D02*
X202247028Y-82340533D01*
X202247028Y-82340533D02*
X202294647Y-82388152D01*
X202294647Y-82388152D02*
X202580361Y-82578628D01*
X202580361Y-82578628D02*
X202627980Y-82626247D01*
X202627980Y-82626247D02*
X202675599Y-82721485D01*
X202675599Y-82721485D02*
X202675599Y-82864342D01*
X202675599Y-82864342D02*
X202627980Y-82959580D01*
X202627980Y-82959580D02*
X202580361Y-83007200D01*
X202580361Y-83007200D02*
X202485123Y-83054819D01*
X202485123Y-83054819D02*
X202342266Y-83054819D01*
X202342266Y-83054819D02*
X202247028Y-83007200D01*
X202247028Y-83007200D02*
X202199409Y-82959580D01*
X202199409Y-82959580D02*
X202056552Y-82769104D01*
X202056552Y-82769104D02*
X202008933Y-82626247D01*
X202008933Y-82626247D02*
X202008933Y-82531009D01*
X200342266Y-82531009D02*
X200675599Y-82531009D01*
X200675599Y-83054819D02*
X200675599Y-82054819D01*
X200675599Y-82054819D02*
X200199409Y-82054819D01*
X199818456Y-83054819D02*
X199818456Y-82388152D01*
X199818456Y-82578628D02*
X199770837Y-82483390D01*
X199770837Y-82483390D02*
X199723218Y-82435771D01*
X199723218Y-82435771D02*
X199627980Y-82388152D01*
X199627980Y-82388152D02*
X199532742Y-82388152D01*
X198770837Y-83054819D02*
X198770837Y-82531009D01*
X198770837Y-82531009D02*
X198818456Y-82435771D01*
X198818456Y-82435771D02*
X198913694Y-82388152D01*
X198913694Y-82388152D02*
X199104170Y-82388152D01*
X199104170Y-82388152D02*
X199199408Y-82435771D01*
X198770837Y-83007200D02*
X198866075Y-83054819D01*
X198866075Y-83054819D02*
X199104170Y-83054819D01*
X199104170Y-83054819D02*
X199199408Y-83007200D01*
X199199408Y-83007200D02*
X199247027Y-82911961D01*
X199247027Y-82911961D02*
X199247027Y-82816723D01*
X199247027Y-82816723D02*
X199199408Y-82721485D01*
X199199408Y-82721485D02*
X199104170Y-82673866D01*
X199104170Y-82673866D02*
X198866075Y-82673866D01*
X198866075Y-82673866D02*
X198770837Y-82626247D01*
X198294646Y-82388152D02*
X198294646Y-83054819D01*
X198294646Y-82483390D02*
X198247027Y-82435771D01*
X198247027Y-82435771D02*
X198151789Y-82388152D01*
X198151789Y-82388152D02*
X198008932Y-82388152D01*
X198008932Y-82388152D02*
X197913694Y-82435771D01*
X197913694Y-82435771D02*
X197866075Y-82531009D01*
X197866075Y-82531009D02*
X197866075Y-83054819D01*
X196961313Y-83007200D02*
X197056551Y-83054819D01*
X197056551Y-83054819D02*
X197247027Y-83054819D01*
X197247027Y-83054819D02*
X197342265Y-83007200D01*
X197342265Y-83007200D02*
X197389884Y-82959580D01*
X197389884Y-82959580D02*
X197437503Y-82864342D01*
X197437503Y-82864342D02*
X197437503Y-82578628D01*
X197437503Y-82578628D02*
X197389884Y-82483390D01*
X197389884Y-82483390D02*
X197342265Y-82435771D01*
X197342265Y-82435771D02*
X197247027Y-82388152D01*
X197247027Y-82388152D02*
X197056551Y-82388152D01*
X197056551Y-82388152D02*
X196961313Y-82435771D01*
X197151789Y-83102438D02*
X197056551Y-83150057D01*
X197056551Y-83150057D02*
X197008932Y-83245295D01*
X197008932Y-83245295D02*
X197056551Y-83340533D01*
X197056551Y-83340533D02*
X197151789Y-83388152D01*
X197151789Y-83388152D02*
X197294646Y-83388152D01*
X196389884Y-83054819D02*
X196485122Y-83007200D01*
X196485122Y-83007200D02*
X196532741Y-82959580D01*
X196532741Y-82959580D02*
X196580360Y-82864342D01*
X196580360Y-82864342D02*
X196580360Y-82578628D01*
X196580360Y-82578628D02*
X196532741Y-82483390D01*
X196532741Y-82483390D02*
X196485122Y-82435771D01*
X196485122Y-82435771D02*
X196389884Y-82388152D01*
X196389884Y-82388152D02*
X196247027Y-82388152D01*
X196247027Y-82388152D02*
X196151789Y-82435771D01*
X196151789Y-82435771D02*
X196104170Y-82483390D01*
X196104170Y-82483390D02*
X196056551Y-82578628D01*
X196056551Y-82578628D02*
X196056551Y-82864342D01*
X196056551Y-82864342D02*
X196104170Y-82959580D01*
X196104170Y-82959580D02*
X196151789Y-83007200D01*
X196151789Y-83007200D02*
X196247027Y-83054819D01*
X196247027Y-83054819D02*
X196389884Y-83054819D01*
X195627979Y-83054819D02*
X195627979Y-82388152D01*
X195627979Y-82054819D02*
X195675598Y-82102438D01*
X195675598Y-82102438D02*
X195627979Y-82150057D01*
X195627979Y-82150057D02*
X195580360Y-82102438D01*
X195580360Y-82102438D02*
X195627979Y-82054819D01*
X195627979Y-82054819D02*
X195627979Y-82150057D01*
X195199408Y-83007200D02*
X195104170Y-83054819D01*
X195104170Y-83054819D02*
X194913694Y-83054819D01*
X194913694Y-83054819D02*
X194818456Y-83007200D01*
X194818456Y-83007200D02*
X194770837Y-82911961D01*
X194770837Y-82911961D02*
X194770837Y-82864342D01*
X194770837Y-82864342D02*
X194818456Y-82769104D01*
X194818456Y-82769104D02*
X194913694Y-82721485D01*
X194913694Y-82721485D02*
X195056551Y-82721485D01*
X195056551Y-82721485D02*
X195151789Y-82673866D01*
X195151789Y-82673866D02*
X195199408Y-82578628D01*
X195199408Y-82578628D02*
X195199408Y-82531009D01*
X195199408Y-82531009D02*
X195151789Y-82435771D01*
X195151789Y-82435771D02*
X195056551Y-82388152D01*
X195056551Y-82388152D02*
X194913694Y-82388152D01*
X194913694Y-82388152D02*
X194818456Y-82435771D01*
X193056551Y-82102438D02*
X193151789Y-82054819D01*
X193151789Y-82054819D02*
X193294646Y-82054819D01*
X193294646Y-82054819D02*
X193437503Y-82102438D01*
X193437503Y-82102438D02*
X193532741Y-82197676D01*
X193532741Y-82197676D02*
X193580360Y-82292914D01*
X193580360Y-82292914D02*
X193627979Y-82483390D01*
X193627979Y-82483390D02*
X193627979Y-82626247D01*
X193627979Y-82626247D02*
X193580360Y-82816723D01*
X193580360Y-82816723D02*
X193532741Y-82911961D01*
X193532741Y-82911961D02*
X193437503Y-83007200D01*
X193437503Y-83007200D02*
X193294646Y-83054819D01*
X193294646Y-83054819D02*
X193199408Y-83054819D01*
X193199408Y-83054819D02*
X193056551Y-83007200D01*
X193056551Y-83007200D02*
X193008932Y-82959580D01*
X193008932Y-82959580D02*
X193008932Y-82626247D01*
X193008932Y-82626247D02*
X193199408Y-82626247D01*
X192389884Y-82054819D02*
X192199408Y-82054819D01*
X192199408Y-82054819D02*
X192104170Y-82102438D01*
X192104170Y-82102438D02*
X192008932Y-82197676D01*
X192008932Y-82197676D02*
X191961313Y-82388152D01*
X191961313Y-82388152D02*
X191961313Y-82721485D01*
X191961313Y-82721485D02*
X192008932Y-82911961D01*
X192008932Y-82911961D02*
X192104170Y-83007200D01*
X192104170Y-83007200D02*
X192199408Y-83054819D01*
X192199408Y-83054819D02*
X192389884Y-83054819D01*
X192389884Y-83054819D02*
X192485122Y-83007200D01*
X192485122Y-83007200D02*
X192580360Y-82911961D01*
X192580360Y-82911961D02*
X192627979Y-82721485D01*
X192627979Y-82721485D02*
X192627979Y-82388152D01*
X192627979Y-82388152D02*
X192580360Y-82197676D01*
X192580360Y-82197676D02*
X192485122Y-82102438D01*
X192485122Y-82102438D02*
X192389884Y-82054819D01*
X191532741Y-82531009D02*
X191199408Y-82531009D01*
X191056551Y-83054819D02*
X191532741Y-83054819D01*
X191532741Y-83054819D02*
X191532741Y-82054819D01*
X191532741Y-82054819D02*
X191056551Y-82054819D01*
X190627979Y-83054819D02*
X190627979Y-82054819D01*
X190627979Y-82054819D02*
X190056551Y-83054819D01*
X190056551Y-83054819D02*
X190056551Y-82054819D01*
X189627979Y-83007200D02*
X189485122Y-83054819D01*
X189485122Y-83054819D02*
X189247027Y-83054819D01*
X189247027Y-83054819D02*
X189151789Y-83007200D01*
X189151789Y-83007200D02*
X189104170Y-82959580D01*
X189104170Y-82959580D02*
X189056551Y-82864342D01*
X189056551Y-82864342D02*
X189056551Y-82769104D01*
X189056551Y-82769104D02*
X189104170Y-82673866D01*
X189104170Y-82673866D02*
X189151789Y-82626247D01*
X189151789Y-82626247D02*
X189247027Y-82578628D01*
X189247027Y-82578628D02*
X189437503Y-82531009D01*
X189437503Y-82531009D02*
X189532741Y-82483390D01*
X189532741Y-82483390D02*
X189580360Y-82435771D01*
X189580360Y-82435771D02*
X189627979Y-82340533D01*
X189627979Y-82340533D02*
X189627979Y-82245295D01*
X189627979Y-82245295D02*
X189580360Y-82150057D01*
X189580360Y-82150057D02*
X189532741Y-82102438D01*
X189532741Y-82102438D02*
X189437503Y-82054819D01*
X189437503Y-82054819D02*
X189199408Y-82054819D01*
X189199408Y-82054819D02*
X189056551Y-82102438D01*
X223818220Y-32889819D02*
X223818220Y-31889819D01*
X223818220Y-31889819D02*
X223580125Y-31889819D01*
X223580125Y-31889819D02*
X223437268Y-31937438D01*
X223437268Y-31937438D02*
X223342030Y-32032676D01*
X223342030Y-32032676D02*
X223294411Y-32127914D01*
X223294411Y-32127914D02*
X223246792Y-32318390D01*
X223246792Y-32318390D02*
X223246792Y-32461247D01*
X223246792Y-32461247D02*
X223294411Y-32651723D01*
X223294411Y-32651723D02*
X223342030Y-32746961D01*
X223342030Y-32746961D02*
X223437268Y-32842200D01*
X223437268Y-32842200D02*
X223580125Y-32889819D01*
X223580125Y-32889819D02*
X223818220Y-32889819D01*
X222437268Y-32842200D02*
X222532506Y-32889819D01*
X222532506Y-32889819D02*
X222722982Y-32889819D01*
X222722982Y-32889819D02*
X222818220Y-32842200D01*
X222818220Y-32842200D02*
X222865839Y-32746961D01*
X222865839Y-32746961D02*
X222865839Y-32366009D01*
X222865839Y-32366009D02*
X222818220Y-32270771D01*
X222818220Y-32270771D02*
X222722982Y-32223152D01*
X222722982Y-32223152D02*
X222532506Y-32223152D01*
X222532506Y-32223152D02*
X222437268Y-32270771D01*
X222437268Y-32270771D02*
X222389649Y-32366009D01*
X222389649Y-32366009D02*
X222389649Y-32461247D01*
X222389649Y-32461247D02*
X222865839Y-32556485D01*
X222008696Y-32842200D02*
X221913458Y-32889819D01*
X221913458Y-32889819D02*
X221722982Y-32889819D01*
X221722982Y-32889819D02*
X221627744Y-32842200D01*
X221627744Y-32842200D02*
X221580125Y-32746961D01*
X221580125Y-32746961D02*
X221580125Y-32699342D01*
X221580125Y-32699342D02*
X221627744Y-32604104D01*
X221627744Y-32604104D02*
X221722982Y-32556485D01*
X221722982Y-32556485D02*
X221865839Y-32556485D01*
X221865839Y-32556485D02*
X221961077Y-32508866D01*
X221961077Y-32508866D02*
X222008696Y-32413628D01*
X222008696Y-32413628D02*
X222008696Y-32366009D01*
X222008696Y-32366009D02*
X221961077Y-32270771D01*
X221961077Y-32270771D02*
X221865839Y-32223152D01*
X221865839Y-32223152D02*
X221722982Y-32223152D01*
X221722982Y-32223152D02*
X221627744Y-32270771D01*
X221151553Y-32889819D02*
X221151553Y-32223152D01*
X221151553Y-31889819D02*
X221199172Y-31937438D01*
X221199172Y-31937438D02*
X221151553Y-31985057D01*
X221151553Y-31985057D02*
X221103934Y-31937438D01*
X221103934Y-31937438D02*
X221151553Y-31889819D01*
X221151553Y-31889819D02*
X221151553Y-31985057D01*
X220246792Y-32223152D02*
X220246792Y-33032676D01*
X220246792Y-33032676D02*
X220294411Y-33127914D01*
X220294411Y-33127914D02*
X220342030Y-33175533D01*
X220342030Y-33175533D02*
X220437268Y-33223152D01*
X220437268Y-33223152D02*
X220580125Y-33223152D01*
X220580125Y-33223152D02*
X220675363Y-33175533D01*
X220246792Y-32842200D02*
X220342030Y-32889819D01*
X220342030Y-32889819D02*
X220532506Y-32889819D01*
X220532506Y-32889819D02*
X220627744Y-32842200D01*
X220627744Y-32842200D02*
X220675363Y-32794580D01*
X220675363Y-32794580D02*
X220722982Y-32699342D01*
X220722982Y-32699342D02*
X220722982Y-32413628D01*
X220722982Y-32413628D02*
X220675363Y-32318390D01*
X220675363Y-32318390D02*
X220627744Y-32270771D01*
X220627744Y-32270771D02*
X220532506Y-32223152D01*
X220532506Y-32223152D02*
X220342030Y-32223152D01*
X220342030Y-32223152D02*
X220246792Y-32270771D01*
X219770601Y-32223152D02*
X219770601Y-32889819D01*
X219770601Y-32318390D02*
X219722982Y-32270771D01*
X219722982Y-32270771D02*
X219627744Y-32223152D01*
X219627744Y-32223152D02*
X219484887Y-32223152D01*
X219484887Y-32223152D02*
X219389649Y-32270771D01*
X219389649Y-32270771D02*
X219342030Y-32366009D01*
X219342030Y-32366009D02*
X219342030Y-32889819D01*
X218484887Y-32842200D02*
X218580125Y-32889819D01*
X218580125Y-32889819D02*
X218770601Y-32889819D01*
X218770601Y-32889819D02*
X218865839Y-32842200D01*
X218865839Y-32842200D02*
X218913458Y-32746961D01*
X218913458Y-32746961D02*
X218913458Y-32366009D01*
X218913458Y-32366009D02*
X218865839Y-32270771D01*
X218865839Y-32270771D02*
X218770601Y-32223152D01*
X218770601Y-32223152D02*
X218580125Y-32223152D01*
X218580125Y-32223152D02*
X218484887Y-32270771D01*
X218484887Y-32270771D02*
X218437268Y-32366009D01*
X218437268Y-32366009D02*
X218437268Y-32461247D01*
X218437268Y-32461247D02*
X218913458Y-32556485D01*
X217580125Y-32889819D02*
X217580125Y-31889819D01*
X217580125Y-32842200D02*
X217675363Y-32889819D01*
X217675363Y-32889819D02*
X217865839Y-32889819D01*
X217865839Y-32889819D02*
X217961077Y-32842200D01*
X217961077Y-32842200D02*
X218008696Y-32794580D01*
X218008696Y-32794580D02*
X218056315Y-32699342D01*
X218056315Y-32699342D02*
X218056315Y-32413628D01*
X218056315Y-32413628D02*
X218008696Y-32318390D01*
X218008696Y-32318390D02*
X217961077Y-32270771D01*
X217961077Y-32270771D02*
X217865839Y-32223152D01*
X217865839Y-32223152D02*
X217675363Y-32223152D01*
X217675363Y-32223152D02*
X217580125Y-32270771D01*
X216342029Y-32889819D02*
X216342029Y-31889819D01*
X216342029Y-32270771D02*
X216246791Y-32223152D01*
X216246791Y-32223152D02*
X216056315Y-32223152D01*
X216056315Y-32223152D02*
X215961077Y-32270771D01*
X215961077Y-32270771D02*
X215913458Y-32318390D01*
X215913458Y-32318390D02*
X215865839Y-32413628D01*
X215865839Y-32413628D02*
X215865839Y-32699342D01*
X215865839Y-32699342D02*
X215913458Y-32794580D01*
X215913458Y-32794580D02*
X215961077Y-32842200D01*
X215961077Y-32842200D02*
X216056315Y-32889819D01*
X216056315Y-32889819D02*
X216246791Y-32889819D01*
X216246791Y-32889819D02*
X216342029Y-32842200D01*
X215532505Y-32223152D02*
X215294410Y-32889819D01*
X215056315Y-32223152D02*
X215294410Y-32889819D01*
X215294410Y-32889819D02*
X215389648Y-33127914D01*
X215389648Y-33127914D02*
X215437267Y-33175533D01*
X215437267Y-33175533D02*
X215532505Y-33223152D01*
X213342029Y-32794580D02*
X213389648Y-32842200D01*
X213389648Y-32842200D02*
X213532505Y-32889819D01*
X213532505Y-32889819D02*
X213627743Y-32889819D01*
X213627743Y-32889819D02*
X213770600Y-32842200D01*
X213770600Y-32842200D02*
X213865838Y-32746961D01*
X213865838Y-32746961D02*
X213913457Y-32651723D01*
X213913457Y-32651723D02*
X213961076Y-32461247D01*
X213961076Y-32461247D02*
X213961076Y-32318390D01*
X213961076Y-32318390D02*
X213913457Y-32127914D01*
X213913457Y-32127914D02*
X213865838Y-32032676D01*
X213865838Y-32032676D02*
X213770600Y-31937438D01*
X213770600Y-31937438D02*
X213627743Y-31889819D01*
X213627743Y-31889819D02*
X213532505Y-31889819D01*
X213532505Y-31889819D02*
X213389648Y-31937438D01*
X213389648Y-31937438D02*
X213342029Y-31985057D01*
X212532505Y-32842200D02*
X212627743Y-32889819D01*
X212627743Y-32889819D02*
X212818219Y-32889819D01*
X212818219Y-32889819D02*
X212913457Y-32842200D01*
X212913457Y-32842200D02*
X212961076Y-32746961D01*
X212961076Y-32746961D02*
X212961076Y-32366009D01*
X212961076Y-32366009D02*
X212913457Y-32270771D01*
X212913457Y-32270771D02*
X212818219Y-32223152D01*
X212818219Y-32223152D02*
X212627743Y-32223152D01*
X212627743Y-32223152D02*
X212532505Y-32270771D01*
X212532505Y-32270771D02*
X212484886Y-32366009D01*
X212484886Y-32366009D02*
X212484886Y-32461247D01*
X212484886Y-32461247D02*
X212961076Y-32556485D01*
X211627743Y-32889819D02*
X211627743Y-31889819D01*
X211627743Y-32842200D02*
X211722981Y-32889819D01*
X211722981Y-32889819D02*
X211913457Y-32889819D01*
X211913457Y-32889819D02*
X212008695Y-32842200D01*
X212008695Y-32842200D02*
X212056314Y-32794580D01*
X212056314Y-32794580D02*
X212103933Y-32699342D01*
X212103933Y-32699342D02*
X212103933Y-32413628D01*
X212103933Y-32413628D02*
X212056314Y-32318390D01*
X212056314Y-32318390D02*
X212008695Y-32270771D01*
X212008695Y-32270771D02*
X211913457Y-32223152D01*
X211913457Y-32223152D02*
X211722981Y-32223152D01*
X211722981Y-32223152D02*
X211627743Y-32270771D01*
X211151552Y-32889819D02*
X211151552Y-32223152D01*
X211151552Y-32413628D02*
X211103933Y-32318390D01*
X211103933Y-32318390D02*
X211056314Y-32270771D01*
X211056314Y-32270771D02*
X210961076Y-32223152D01*
X210961076Y-32223152D02*
X210865838Y-32223152D01*
X210532504Y-32889819D02*
X210532504Y-32223152D01*
X210532504Y-31889819D02*
X210580123Y-31937438D01*
X210580123Y-31937438D02*
X210532504Y-31985057D01*
X210532504Y-31985057D02*
X210484885Y-31937438D01*
X210484885Y-31937438D02*
X210532504Y-31889819D01*
X210532504Y-31889819D02*
X210532504Y-31985057D01*
X209627743Y-32842200D02*
X209722981Y-32889819D01*
X209722981Y-32889819D02*
X209913457Y-32889819D01*
X209913457Y-32889819D02*
X210008695Y-32842200D01*
X210008695Y-32842200D02*
X210056314Y-32794580D01*
X210056314Y-32794580D02*
X210103933Y-32699342D01*
X210103933Y-32699342D02*
X210103933Y-32413628D01*
X210103933Y-32413628D02*
X210056314Y-32318390D01*
X210056314Y-32318390D02*
X210008695Y-32270771D01*
X210008695Y-32270771D02*
X209913457Y-32223152D01*
X209913457Y-32223152D02*
X209722981Y-32223152D01*
X209722981Y-32223152D02*
X209627743Y-32270771D01*
X208437266Y-32889819D02*
X208437266Y-31889819D01*
X208437266Y-31889819D02*
X208056314Y-31889819D01*
X208056314Y-31889819D02*
X207961076Y-31937438D01*
X207961076Y-31937438D02*
X207913457Y-31985057D01*
X207913457Y-31985057D02*
X207865838Y-32080295D01*
X207865838Y-32080295D02*
X207865838Y-32223152D01*
X207865838Y-32223152D02*
X207913457Y-32318390D01*
X207913457Y-32318390D02*
X207961076Y-32366009D01*
X207961076Y-32366009D02*
X208056314Y-32413628D01*
X208056314Y-32413628D02*
X208437266Y-32413628D01*
X207246790Y-31889819D02*
X207056314Y-31889819D01*
X207056314Y-31889819D02*
X206961076Y-31937438D01*
X206961076Y-31937438D02*
X206865838Y-32032676D01*
X206865838Y-32032676D02*
X206818219Y-32223152D01*
X206818219Y-32223152D02*
X206818219Y-32556485D01*
X206818219Y-32556485D02*
X206865838Y-32746961D01*
X206865838Y-32746961D02*
X206961076Y-32842200D01*
X206961076Y-32842200D02*
X207056314Y-32889819D01*
X207056314Y-32889819D02*
X207246790Y-32889819D01*
X207246790Y-32889819D02*
X207342028Y-32842200D01*
X207342028Y-32842200D02*
X207437266Y-32746961D01*
X207437266Y-32746961D02*
X207484885Y-32556485D01*
X207484885Y-32556485D02*
X207484885Y-32223152D01*
X207484885Y-32223152D02*
X207437266Y-32032676D01*
X207437266Y-32032676D02*
X207342028Y-31937438D01*
X207342028Y-31937438D02*
X207246790Y-31889819D01*
X206389647Y-32889819D02*
X206389647Y-31889819D01*
X206389647Y-31889819D02*
X205818219Y-32889819D01*
X205818219Y-32889819D02*
X205818219Y-31889819D01*
X205389647Y-32842200D02*
X205246790Y-32889819D01*
X205246790Y-32889819D02*
X205008695Y-32889819D01*
X205008695Y-32889819D02*
X204913457Y-32842200D01*
X204913457Y-32842200D02*
X204865838Y-32794580D01*
X204865838Y-32794580D02*
X204818219Y-32699342D01*
X204818219Y-32699342D02*
X204818219Y-32604104D01*
X204818219Y-32604104D02*
X204865838Y-32508866D01*
X204865838Y-32508866D02*
X204913457Y-32461247D01*
X204913457Y-32461247D02*
X205008695Y-32413628D01*
X205008695Y-32413628D02*
X205199171Y-32366009D01*
X205199171Y-32366009D02*
X205294409Y-32318390D01*
X205294409Y-32318390D02*
X205342028Y-32270771D01*
X205342028Y-32270771D02*
X205389647Y-32175533D01*
X205389647Y-32175533D02*
X205389647Y-32080295D01*
X205389647Y-32080295D02*
X205342028Y-31985057D01*
X205342028Y-31985057D02*
X205294409Y-31937438D01*
X205294409Y-31937438D02*
X205199171Y-31889819D01*
X205199171Y-31889819D02*
X204961076Y-31889819D01*
X204961076Y-31889819D02*
X204818219Y-31937438D01*
X204437266Y-32604104D02*
X203961076Y-32604104D01*
X204532504Y-32889819D02*
X204199171Y-31889819D01*
X204199171Y-31889819D02*
X203865838Y-32889819D01*
X202961076Y-32889819D02*
X203294409Y-32413628D01*
X203532504Y-32889819D02*
X203532504Y-31889819D01*
X203532504Y-31889819D02*
X203151552Y-31889819D01*
X203151552Y-31889819D02*
X203056314Y-31937438D01*
X203056314Y-31937438D02*
X203008695Y-31985057D01*
X203008695Y-31985057D02*
X202961076Y-32080295D01*
X202961076Y-32080295D02*
X202961076Y-32223152D01*
X202961076Y-32223152D02*
X203008695Y-32318390D01*
X203008695Y-32318390D02*
X203056314Y-32366009D01*
X203056314Y-32366009D02*
X203151552Y-32413628D01*
X203151552Y-32413628D02*
X203532504Y-32413628D01*
X202532504Y-32889819D02*
X202532504Y-31889819D01*
X202532504Y-31889819D02*
X202294409Y-31889819D01*
X202294409Y-31889819D02*
X202151552Y-31937438D01*
X202151552Y-31937438D02*
X202056314Y-32032676D01*
X202056314Y-32032676D02*
X202008695Y-32127914D01*
X202008695Y-32127914D02*
X201961076Y-32318390D01*
X201961076Y-32318390D02*
X201961076Y-32461247D01*
X201961076Y-32461247D02*
X202008695Y-32651723D01*
X202008695Y-32651723D02*
X202056314Y-32746961D01*
X202056314Y-32746961D02*
X202151552Y-32842200D01*
X202151552Y-32842200D02*
X202294409Y-32889819D01*
X202294409Y-32889819D02*
X202532504Y-32889819D01*
X199961075Y-32889819D02*
X200008695Y-32889819D01*
X200008695Y-32889819D02*
X200103933Y-32842200D01*
X200103933Y-32842200D02*
X200246790Y-32699342D01*
X200246790Y-32699342D02*
X200484885Y-32413628D01*
X200484885Y-32413628D02*
X200580123Y-32270771D01*
X200580123Y-32270771D02*
X200627742Y-32127914D01*
X200627742Y-32127914D02*
X200627742Y-32032676D01*
X200627742Y-32032676D02*
X200580123Y-31937438D01*
X200580123Y-31937438D02*
X200484885Y-31889819D01*
X200484885Y-31889819D02*
X200437266Y-31889819D01*
X200437266Y-31889819D02*
X200342028Y-31937438D01*
X200342028Y-31937438D02*
X200294409Y-32032676D01*
X200294409Y-32032676D02*
X200294409Y-32080295D01*
X200294409Y-32080295D02*
X200342028Y-32175533D01*
X200342028Y-32175533D02*
X200389647Y-32223152D01*
X200389647Y-32223152D02*
X200675361Y-32413628D01*
X200675361Y-32413628D02*
X200722980Y-32461247D01*
X200722980Y-32461247D02*
X200770599Y-32556485D01*
X200770599Y-32556485D02*
X200770599Y-32699342D01*
X200770599Y-32699342D02*
X200722980Y-32794580D01*
X200722980Y-32794580D02*
X200675361Y-32842200D01*
X200675361Y-32842200D02*
X200580123Y-32889819D01*
X200580123Y-32889819D02*
X200437266Y-32889819D01*
X200437266Y-32889819D02*
X200342028Y-32842200D01*
X200342028Y-32842200D02*
X200294409Y-32794580D01*
X200294409Y-32794580D02*
X200151552Y-32604104D01*
X200151552Y-32604104D02*
X200103933Y-32461247D01*
X200103933Y-32461247D02*
X200103933Y-32366009D01*
X198437266Y-32366009D02*
X198770599Y-32366009D01*
X198770599Y-32889819D02*
X198770599Y-31889819D01*
X198770599Y-31889819D02*
X198294409Y-31889819D01*
X197913456Y-32889819D02*
X197913456Y-32223152D01*
X197913456Y-32413628D02*
X197865837Y-32318390D01*
X197865837Y-32318390D02*
X197818218Y-32270771D01*
X197818218Y-32270771D02*
X197722980Y-32223152D01*
X197722980Y-32223152D02*
X197627742Y-32223152D01*
X196865837Y-32889819D02*
X196865837Y-32366009D01*
X196865837Y-32366009D02*
X196913456Y-32270771D01*
X196913456Y-32270771D02*
X197008694Y-32223152D01*
X197008694Y-32223152D02*
X197199170Y-32223152D01*
X197199170Y-32223152D02*
X197294408Y-32270771D01*
X196865837Y-32842200D02*
X196961075Y-32889819D01*
X196961075Y-32889819D02*
X197199170Y-32889819D01*
X197199170Y-32889819D02*
X197294408Y-32842200D01*
X197294408Y-32842200D02*
X197342027Y-32746961D01*
X197342027Y-32746961D02*
X197342027Y-32651723D01*
X197342027Y-32651723D02*
X197294408Y-32556485D01*
X197294408Y-32556485D02*
X197199170Y-32508866D01*
X197199170Y-32508866D02*
X196961075Y-32508866D01*
X196961075Y-32508866D02*
X196865837Y-32461247D01*
X196389646Y-32223152D02*
X196389646Y-32889819D01*
X196389646Y-32318390D02*
X196342027Y-32270771D01*
X196342027Y-32270771D02*
X196246789Y-32223152D01*
X196246789Y-32223152D02*
X196103932Y-32223152D01*
X196103932Y-32223152D02*
X196008694Y-32270771D01*
X196008694Y-32270771D02*
X195961075Y-32366009D01*
X195961075Y-32366009D02*
X195961075Y-32889819D01*
X195056313Y-32842200D02*
X195151551Y-32889819D01*
X195151551Y-32889819D02*
X195342027Y-32889819D01*
X195342027Y-32889819D02*
X195437265Y-32842200D01*
X195437265Y-32842200D02*
X195484884Y-32794580D01*
X195484884Y-32794580D02*
X195532503Y-32699342D01*
X195532503Y-32699342D02*
X195532503Y-32413628D01*
X195532503Y-32413628D02*
X195484884Y-32318390D01*
X195484884Y-32318390D02*
X195437265Y-32270771D01*
X195437265Y-32270771D02*
X195342027Y-32223152D01*
X195342027Y-32223152D02*
X195151551Y-32223152D01*
X195151551Y-32223152D02*
X195056313Y-32270771D01*
X195246789Y-32937438D02*
X195151551Y-32985057D01*
X195151551Y-32985057D02*
X195103932Y-33080295D01*
X195103932Y-33080295D02*
X195151551Y-33175533D01*
X195151551Y-33175533D02*
X195246789Y-33223152D01*
X195246789Y-33223152D02*
X195389646Y-33223152D01*
X194484884Y-32889819D02*
X194580122Y-32842200D01*
X194580122Y-32842200D02*
X194627741Y-32794580D01*
X194627741Y-32794580D02*
X194675360Y-32699342D01*
X194675360Y-32699342D02*
X194675360Y-32413628D01*
X194675360Y-32413628D02*
X194627741Y-32318390D01*
X194627741Y-32318390D02*
X194580122Y-32270771D01*
X194580122Y-32270771D02*
X194484884Y-32223152D01*
X194484884Y-32223152D02*
X194342027Y-32223152D01*
X194342027Y-32223152D02*
X194246789Y-32270771D01*
X194246789Y-32270771D02*
X194199170Y-32318390D01*
X194199170Y-32318390D02*
X194151551Y-32413628D01*
X194151551Y-32413628D02*
X194151551Y-32699342D01*
X194151551Y-32699342D02*
X194199170Y-32794580D01*
X194199170Y-32794580D02*
X194246789Y-32842200D01*
X194246789Y-32842200D02*
X194342027Y-32889819D01*
X194342027Y-32889819D02*
X194484884Y-32889819D01*
X193722979Y-32889819D02*
X193722979Y-32223152D01*
X193722979Y-31889819D02*
X193770598Y-31937438D01*
X193770598Y-31937438D02*
X193722979Y-31985057D01*
X193722979Y-31985057D02*
X193675360Y-31937438D01*
X193675360Y-31937438D02*
X193722979Y-31889819D01*
X193722979Y-31889819D02*
X193722979Y-31985057D01*
X193294408Y-32842200D02*
X193199170Y-32889819D01*
X193199170Y-32889819D02*
X193008694Y-32889819D01*
X193008694Y-32889819D02*
X192913456Y-32842200D01*
X192913456Y-32842200D02*
X192865837Y-32746961D01*
X192865837Y-32746961D02*
X192865837Y-32699342D01*
X192865837Y-32699342D02*
X192913456Y-32604104D01*
X192913456Y-32604104D02*
X193008694Y-32556485D01*
X193008694Y-32556485D02*
X193151551Y-32556485D01*
X193151551Y-32556485D02*
X193246789Y-32508866D01*
X193246789Y-32508866D02*
X193294408Y-32413628D01*
X193294408Y-32413628D02*
X193294408Y-32366009D01*
X193294408Y-32366009D02*
X193246789Y-32270771D01*
X193246789Y-32270771D02*
X193151551Y-32223152D01*
X193151551Y-32223152D02*
X193008694Y-32223152D01*
X193008694Y-32223152D02*
X192913456Y-32270771D01*
X191151551Y-31937438D02*
X191246789Y-31889819D01*
X191246789Y-31889819D02*
X191389646Y-31889819D01*
X191389646Y-31889819D02*
X191532503Y-31937438D01*
X191532503Y-31937438D02*
X191627741Y-32032676D01*
X191627741Y-32032676D02*
X191675360Y-32127914D01*
X191675360Y-32127914D02*
X191722979Y-32318390D01*
X191722979Y-32318390D02*
X191722979Y-32461247D01*
X191722979Y-32461247D02*
X191675360Y-32651723D01*
X191675360Y-32651723D02*
X191627741Y-32746961D01*
X191627741Y-32746961D02*
X191532503Y-32842200D01*
X191532503Y-32842200D02*
X191389646Y-32889819D01*
X191389646Y-32889819D02*
X191294408Y-32889819D01*
X191294408Y-32889819D02*
X191151551Y-32842200D01*
X191151551Y-32842200D02*
X191103932Y-32794580D01*
X191103932Y-32794580D02*
X191103932Y-32461247D01*
X191103932Y-32461247D02*
X191294408Y-32461247D01*
X190484884Y-31889819D02*
X190294408Y-31889819D01*
X190294408Y-31889819D02*
X190199170Y-31937438D01*
X190199170Y-31937438D02*
X190103932Y-32032676D01*
X190103932Y-32032676D02*
X190056313Y-32223152D01*
X190056313Y-32223152D02*
X190056313Y-32556485D01*
X190056313Y-32556485D02*
X190103932Y-32746961D01*
X190103932Y-32746961D02*
X190199170Y-32842200D01*
X190199170Y-32842200D02*
X190294408Y-32889819D01*
X190294408Y-32889819D02*
X190484884Y-32889819D01*
X190484884Y-32889819D02*
X190580122Y-32842200D01*
X190580122Y-32842200D02*
X190675360Y-32746961D01*
X190675360Y-32746961D02*
X190722979Y-32556485D01*
X190722979Y-32556485D02*
X190722979Y-32223152D01*
X190722979Y-32223152D02*
X190675360Y-32032676D01*
X190675360Y-32032676D02*
X190580122Y-31937438D01*
X190580122Y-31937438D02*
X190484884Y-31889819D01*
X189627741Y-32366009D02*
X189294408Y-32366009D01*
X189151551Y-32889819D02*
X189627741Y-32889819D01*
X189627741Y-32889819D02*
X189627741Y-31889819D01*
X189627741Y-31889819D02*
X189151551Y-31889819D01*
X188722979Y-32889819D02*
X188722979Y-31889819D01*
X188722979Y-31889819D02*
X188151551Y-32889819D01*
X188151551Y-32889819D02*
X188151551Y-31889819D01*
X187722979Y-32842200D02*
X187580122Y-32889819D01*
X187580122Y-32889819D02*
X187342027Y-32889819D01*
X187342027Y-32889819D02*
X187246789Y-32842200D01*
X187246789Y-32842200D02*
X187199170Y-32794580D01*
X187199170Y-32794580D02*
X187151551Y-32699342D01*
X187151551Y-32699342D02*
X187151551Y-32604104D01*
X187151551Y-32604104D02*
X187199170Y-32508866D01*
X187199170Y-32508866D02*
X187246789Y-32461247D01*
X187246789Y-32461247D02*
X187342027Y-32413628D01*
X187342027Y-32413628D02*
X187532503Y-32366009D01*
X187532503Y-32366009D02*
X187627741Y-32318390D01*
X187627741Y-32318390D02*
X187675360Y-32270771D01*
X187675360Y-32270771D02*
X187722979Y-32175533D01*
X187722979Y-32175533D02*
X187722979Y-32080295D01*
X187722979Y-32080295D02*
X187675360Y-31985057D01*
X187675360Y-31985057D02*
X187627741Y-31937438D01*
X187627741Y-31937438D02*
X187532503Y-31889819D01*
X187532503Y-31889819D02*
X187294408Y-31889819D01*
X187294408Y-31889819D02*
X187151551Y-31937438D01*
X179720713Y-53949819D02*
X179720713Y-52949819D01*
X179720713Y-52949819D02*
X179387380Y-53664104D01*
X179387380Y-53664104D02*
X179054047Y-52949819D01*
X179054047Y-52949819D02*
X179054047Y-53949819D01*
X178625475Y-53902200D02*
X178482618Y-53949819D01*
X178482618Y-53949819D02*
X178244523Y-53949819D01*
X178244523Y-53949819D02*
X178149285Y-53902200D01*
X178149285Y-53902200D02*
X178101666Y-53854580D01*
X178101666Y-53854580D02*
X178054047Y-53759342D01*
X178054047Y-53759342D02*
X178054047Y-53664104D01*
X178054047Y-53664104D02*
X178101666Y-53568866D01*
X178101666Y-53568866D02*
X178149285Y-53521247D01*
X178149285Y-53521247D02*
X178244523Y-53473628D01*
X178244523Y-53473628D02*
X178434999Y-53426009D01*
X178434999Y-53426009D02*
X178530237Y-53378390D01*
X178530237Y-53378390D02*
X178577856Y-53330771D01*
X178577856Y-53330771D02*
X178625475Y-53235533D01*
X178625475Y-53235533D02*
X178625475Y-53140295D01*
X178625475Y-53140295D02*
X178577856Y-53045057D01*
X178577856Y-53045057D02*
X178530237Y-52997438D01*
X178530237Y-52997438D02*
X178434999Y-52949819D01*
X178434999Y-52949819D02*
X178196904Y-52949819D01*
X178196904Y-52949819D02*
X178054047Y-52997438D01*
X177720713Y-52949819D02*
X177101666Y-52949819D01*
X177101666Y-52949819D02*
X177434999Y-53330771D01*
X177434999Y-53330771D02*
X177292142Y-53330771D01*
X177292142Y-53330771D02*
X177196904Y-53378390D01*
X177196904Y-53378390D02*
X177149285Y-53426009D01*
X177149285Y-53426009D02*
X177101666Y-53521247D01*
X177101666Y-53521247D02*
X177101666Y-53759342D01*
X177101666Y-53759342D02*
X177149285Y-53854580D01*
X177149285Y-53854580D02*
X177196904Y-53902200D01*
X177196904Y-53902200D02*
X177292142Y-53949819D01*
X177292142Y-53949819D02*
X177577856Y-53949819D01*
X177577856Y-53949819D02*
X177673094Y-53902200D01*
X177673094Y-53902200D02*
X177720713Y-53854580D01*
X222900713Y-61424819D02*
X222900713Y-60424819D01*
X222900713Y-60424819D02*
X222567380Y-61139104D01*
X222567380Y-61139104D02*
X222234047Y-60424819D01*
X222234047Y-60424819D02*
X222234047Y-61424819D01*
X221805475Y-61377200D02*
X221662618Y-61424819D01*
X221662618Y-61424819D02*
X221424523Y-61424819D01*
X221424523Y-61424819D02*
X221329285Y-61377200D01*
X221329285Y-61377200D02*
X221281666Y-61329580D01*
X221281666Y-61329580D02*
X221234047Y-61234342D01*
X221234047Y-61234342D02*
X221234047Y-61139104D01*
X221234047Y-61139104D02*
X221281666Y-61043866D01*
X221281666Y-61043866D02*
X221329285Y-60996247D01*
X221329285Y-60996247D02*
X221424523Y-60948628D01*
X221424523Y-60948628D02*
X221614999Y-60901009D01*
X221614999Y-60901009D02*
X221710237Y-60853390D01*
X221710237Y-60853390D02*
X221757856Y-60805771D01*
X221757856Y-60805771D02*
X221805475Y-60710533D01*
X221805475Y-60710533D02*
X221805475Y-60615295D01*
X221805475Y-60615295D02*
X221757856Y-60520057D01*
X221757856Y-60520057D02*
X221710237Y-60472438D01*
X221710237Y-60472438D02*
X221614999Y-60424819D01*
X221614999Y-60424819D02*
X221376904Y-60424819D01*
X221376904Y-60424819D02*
X221234047Y-60472438D01*
X220900713Y-60424819D02*
X220234047Y-60424819D01*
X220234047Y-60424819D02*
X220662618Y-61424819D01*
X222900713Y-57874819D02*
X222900713Y-56874819D01*
X222900713Y-56874819D02*
X222567380Y-57589104D01*
X222567380Y-57589104D02*
X222234047Y-56874819D01*
X222234047Y-56874819D02*
X222234047Y-57874819D01*
X221805475Y-57827200D02*
X221662618Y-57874819D01*
X221662618Y-57874819D02*
X221424523Y-57874819D01*
X221424523Y-57874819D02*
X221329285Y-57827200D01*
X221329285Y-57827200D02*
X221281666Y-57779580D01*
X221281666Y-57779580D02*
X221234047Y-57684342D01*
X221234047Y-57684342D02*
X221234047Y-57589104D01*
X221234047Y-57589104D02*
X221281666Y-57493866D01*
X221281666Y-57493866D02*
X221329285Y-57446247D01*
X221329285Y-57446247D02*
X221424523Y-57398628D01*
X221424523Y-57398628D02*
X221614999Y-57351009D01*
X221614999Y-57351009D02*
X221710237Y-57303390D01*
X221710237Y-57303390D02*
X221757856Y-57255771D01*
X221757856Y-57255771D02*
X221805475Y-57160533D01*
X221805475Y-57160533D02*
X221805475Y-57065295D01*
X221805475Y-57065295D02*
X221757856Y-56970057D01*
X221757856Y-56970057D02*
X221710237Y-56922438D01*
X221710237Y-56922438D02*
X221614999Y-56874819D01*
X221614999Y-56874819D02*
X221376904Y-56874819D01*
X221376904Y-56874819D02*
X221234047Y-56922438D01*
X220662618Y-57303390D02*
X220757856Y-57255771D01*
X220757856Y-57255771D02*
X220805475Y-57208152D01*
X220805475Y-57208152D02*
X220853094Y-57112914D01*
X220853094Y-57112914D02*
X220853094Y-57065295D01*
X220853094Y-57065295D02*
X220805475Y-56970057D01*
X220805475Y-56970057D02*
X220757856Y-56922438D01*
X220757856Y-56922438D02*
X220662618Y-56874819D01*
X220662618Y-56874819D02*
X220472142Y-56874819D01*
X220472142Y-56874819D02*
X220376904Y-56922438D01*
X220376904Y-56922438D02*
X220329285Y-56970057D01*
X220329285Y-56970057D02*
X220281666Y-57065295D01*
X220281666Y-57065295D02*
X220281666Y-57112914D01*
X220281666Y-57112914D02*
X220329285Y-57208152D01*
X220329285Y-57208152D02*
X220376904Y-57255771D01*
X220376904Y-57255771D02*
X220472142Y-57303390D01*
X220472142Y-57303390D02*
X220662618Y-57303390D01*
X220662618Y-57303390D02*
X220757856Y-57351009D01*
X220757856Y-57351009D02*
X220805475Y-57398628D01*
X220805475Y-57398628D02*
X220853094Y-57493866D01*
X220853094Y-57493866D02*
X220853094Y-57684342D01*
X220853094Y-57684342D02*
X220805475Y-57779580D01*
X220805475Y-57779580D02*
X220757856Y-57827200D01*
X220757856Y-57827200D02*
X220662618Y-57874819D01*
X220662618Y-57874819D02*
X220472142Y-57874819D01*
X220472142Y-57874819D02*
X220376904Y-57827200D01*
X220376904Y-57827200D02*
X220329285Y-57779580D01*
X220329285Y-57779580D02*
X220281666Y-57684342D01*
X220281666Y-57684342D02*
X220281666Y-57493866D01*
X220281666Y-57493866D02*
X220329285Y-57398628D01*
X220329285Y-57398628D02*
X220376904Y-57351009D01*
X220376904Y-57351009D02*
X220472142Y-57303390D01*
X201310713Y-57499819D02*
X201310713Y-56499819D01*
X201310713Y-56499819D02*
X200977380Y-57214104D01*
X200977380Y-57214104D02*
X200644047Y-56499819D01*
X200644047Y-56499819D02*
X200644047Y-57499819D01*
X200215475Y-57452200D02*
X200072618Y-57499819D01*
X200072618Y-57499819D02*
X199834523Y-57499819D01*
X199834523Y-57499819D02*
X199739285Y-57452200D01*
X199739285Y-57452200D02*
X199691666Y-57404580D01*
X199691666Y-57404580D02*
X199644047Y-57309342D01*
X199644047Y-57309342D02*
X199644047Y-57214104D01*
X199644047Y-57214104D02*
X199691666Y-57118866D01*
X199691666Y-57118866D02*
X199739285Y-57071247D01*
X199739285Y-57071247D02*
X199834523Y-57023628D01*
X199834523Y-57023628D02*
X200024999Y-56976009D01*
X200024999Y-56976009D02*
X200120237Y-56928390D01*
X200120237Y-56928390D02*
X200167856Y-56880771D01*
X200167856Y-56880771D02*
X200215475Y-56785533D01*
X200215475Y-56785533D02*
X200215475Y-56690295D01*
X200215475Y-56690295D02*
X200167856Y-56595057D01*
X200167856Y-56595057D02*
X200120237Y-56547438D01*
X200120237Y-56547438D02*
X200024999Y-56499819D01*
X200024999Y-56499819D02*
X199786904Y-56499819D01*
X199786904Y-56499819D02*
X199644047Y-56547438D01*
X198739285Y-56499819D02*
X199215475Y-56499819D01*
X199215475Y-56499819D02*
X199263094Y-56976009D01*
X199263094Y-56976009D02*
X199215475Y-56928390D01*
X199215475Y-56928390D02*
X199120237Y-56880771D01*
X199120237Y-56880771D02*
X198882142Y-56880771D01*
X198882142Y-56880771D02*
X198786904Y-56928390D01*
X198786904Y-56928390D02*
X198739285Y-56976009D01*
X198739285Y-56976009D02*
X198691666Y-57071247D01*
X198691666Y-57071247D02*
X198691666Y-57309342D01*
X198691666Y-57309342D02*
X198739285Y-57404580D01*
X198739285Y-57404580D02*
X198786904Y-57452200D01*
X198786904Y-57452200D02*
X198882142Y-57499819D01*
X198882142Y-57499819D02*
X199120237Y-57499819D01*
X199120237Y-57499819D02*
X199215475Y-57452200D01*
X199215475Y-57452200D02*
X199263094Y-57404580D01*
X179720713Y-61049819D02*
X179720713Y-60049819D01*
X179720713Y-60049819D02*
X179387380Y-60764104D01*
X179387380Y-60764104D02*
X179054047Y-60049819D01*
X179054047Y-60049819D02*
X179054047Y-61049819D01*
X178625475Y-61002200D02*
X178482618Y-61049819D01*
X178482618Y-61049819D02*
X178244523Y-61049819D01*
X178244523Y-61049819D02*
X178149285Y-61002200D01*
X178149285Y-61002200D02*
X178101666Y-60954580D01*
X178101666Y-60954580D02*
X178054047Y-60859342D01*
X178054047Y-60859342D02*
X178054047Y-60764104D01*
X178054047Y-60764104D02*
X178101666Y-60668866D01*
X178101666Y-60668866D02*
X178149285Y-60621247D01*
X178149285Y-60621247D02*
X178244523Y-60573628D01*
X178244523Y-60573628D02*
X178434999Y-60526009D01*
X178434999Y-60526009D02*
X178530237Y-60478390D01*
X178530237Y-60478390D02*
X178577856Y-60430771D01*
X178577856Y-60430771D02*
X178625475Y-60335533D01*
X178625475Y-60335533D02*
X178625475Y-60240295D01*
X178625475Y-60240295D02*
X178577856Y-60145057D01*
X178577856Y-60145057D02*
X178530237Y-60097438D01*
X178530237Y-60097438D02*
X178434999Y-60049819D01*
X178434999Y-60049819D02*
X178196904Y-60049819D01*
X178196904Y-60049819D02*
X178054047Y-60097438D01*
X177101666Y-61049819D02*
X177673094Y-61049819D01*
X177387380Y-61049819D02*
X177387380Y-60049819D01*
X177387380Y-60049819D02*
X177482618Y-60192676D01*
X177482618Y-60192676D02*
X177577856Y-60287914D01*
X177577856Y-60287914D02*
X177673094Y-60335533D01*
X179720713Y-57499819D02*
X179720713Y-56499819D01*
X179720713Y-56499819D02*
X179387380Y-57214104D01*
X179387380Y-57214104D02*
X179054047Y-56499819D01*
X179054047Y-56499819D02*
X179054047Y-57499819D01*
X178625475Y-57452200D02*
X178482618Y-57499819D01*
X178482618Y-57499819D02*
X178244523Y-57499819D01*
X178244523Y-57499819D02*
X178149285Y-57452200D01*
X178149285Y-57452200D02*
X178101666Y-57404580D01*
X178101666Y-57404580D02*
X178054047Y-57309342D01*
X178054047Y-57309342D02*
X178054047Y-57214104D01*
X178054047Y-57214104D02*
X178101666Y-57118866D01*
X178101666Y-57118866D02*
X178149285Y-57071247D01*
X178149285Y-57071247D02*
X178244523Y-57023628D01*
X178244523Y-57023628D02*
X178434999Y-56976009D01*
X178434999Y-56976009D02*
X178530237Y-56928390D01*
X178530237Y-56928390D02*
X178577856Y-56880771D01*
X178577856Y-56880771D02*
X178625475Y-56785533D01*
X178625475Y-56785533D02*
X178625475Y-56690295D01*
X178625475Y-56690295D02*
X178577856Y-56595057D01*
X178577856Y-56595057D02*
X178530237Y-56547438D01*
X178530237Y-56547438D02*
X178434999Y-56499819D01*
X178434999Y-56499819D02*
X178196904Y-56499819D01*
X178196904Y-56499819D02*
X178054047Y-56547438D01*
X177673094Y-56595057D02*
X177625475Y-56547438D01*
X177625475Y-56547438D02*
X177530237Y-56499819D01*
X177530237Y-56499819D02*
X177292142Y-56499819D01*
X177292142Y-56499819D02*
X177196904Y-56547438D01*
X177196904Y-56547438D02*
X177149285Y-56595057D01*
X177149285Y-56595057D02*
X177101666Y-56690295D01*
X177101666Y-56690295D02*
X177101666Y-56785533D01*
X177101666Y-56785533D02*
X177149285Y-56928390D01*
X177149285Y-56928390D02*
X177720713Y-57499819D01*
X177720713Y-57499819D02*
X177101666Y-57499819D01*
X201310713Y-53949819D02*
X201310713Y-52949819D01*
X201310713Y-52949819D02*
X200977380Y-53664104D01*
X200977380Y-53664104D02*
X200644047Y-52949819D01*
X200644047Y-52949819D02*
X200644047Y-53949819D01*
X200215475Y-53902200D02*
X200072618Y-53949819D01*
X200072618Y-53949819D02*
X199834523Y-53949819D01*
X199834523Y-53949819D02*
X199739285Y-53902200D01*
X199739285Y-53902200D02*
X199691666Y-53854580D01*
X199691666Y-53854580D02*
X199644047Y-53759342D01*
X199644047Y-53759342D02*
X199644047Y-53664104D01*
X199644047Y-53664104D02*
X199691666Y-53568866D01*
X199691666Y-53568866D02*
X199739285Y-53521247D01*
X199739285Y-53521247D02*
X199834523Y-53473628D01*
X199834523Y-53473628D02*
X200024999Y-53426009D01*
X200024999Y-53426009D02*
X200120237Y-53378390D01*
X200120237Y-53378390D02*
X200167856Y-53330771D01*
X200167856Y-53330771D02*
X200215475Y-53235533D01*
X200215475Y-53235533D02*
X200215475Y-53140295D01*
X200215475Y-53140295D02*
X200167856Y-53045057D01*
X200167856Y-53045057D02*
X200120237Y-52997438D01*
X200120237Y-52997438D02*
X200024999Y-52949819D01*
X200024999Y-52949819D02*
X199786904Y-52949819D01*
X199786904Y-52949819D02*
X199644047Y-52997438D01*
X198786904Y-52949819D02*
X198977380Y-52949819D01*
X198977380Y-52949819D02*
X199072618Y-52997438D01*
X199072618Y-52997438D02*
X199120237Y-53045057D01*
X199120237Y-53045057D02*
X199215475Y-53187914D01*
X199215475Y-53187914D02*
X199263094Y-53378390D01*
X199263094Y-53378390D02*
X199263094Y-53759342D01*
X199263094Y-53759342D02*
X199215475Y-53854580D01*
X199215475Y-53854580D02*
X199167856Y-53902200D01*
X199167856Y-53902200D02*
X199072618Y-53949819D01*
X199072618Y-53949819D02*
X198882142Y-53949819D01*
X198882142Y-53949819D02*
X198786904Y-53902200D01*
X198786904Y-53902200D02*
X198739285Y-53854580D01*
X198739285Y-53854580D02*
X198691666Y-53759342D01*
X198691666Y-53759342D02*
X198691666Y-53521247D01*
X198691666Y-53521247D02*
X198739285Y-53426009D01*
X198739285Y-53426009D02*
X198786904Y-53378390D01*
X198786904Y-53378390D02*
X198882142Y-53330771D01*
X198882142Y-53330771D02*
X199072618Y-53330771D01*
X199072618Y-53330771D02*
X199167856Y-53378390D01*
X199167856Y-53378390D02*
X199215475Y-53426009D01*
X199215475Y-53426009D02*
X199263094Y-53521247D01*
X201310713Y-61049819D02*
X201310713Y-60049819D01*
X201310713Y-60049819D02*
X200977380Y-60764104D01*
X200977380Y-60764104D02*
X200644047Y-60049819D01*
X200644047Y-60049819D02*
X200644047Y-61049819D01*
X200215475Y-61002200D02*
X200072618Y-61049819D01*
X200072618Y-61049819D02*
X199834523Y-61049819D01*
X199834523Y-61049819D02*
X199739285Y-61002200D01*
X199739285Y-61002200D02*
X199691666Y-60954580D01*
X199691666Y-60954580D02*
X199644047Y-60859342D01*
X199644047Y-60859342D02*
X199644047Y-60764104D01*
X199644047Y-60764104D02*
X199691666Y-60668866D01*
X199691666Y-60668866D02*
X199739285Y-60621247D01*
X199739285Y-60621247D02*
X199834523Y-60573628D01*
X199834523Y-60573628D02*
X200024999Y-60526009D01*
X200024999Y-60526009D02*
X200120237Y-60478390D01*
X200120237Y-60478390D02*
X200167856Y-60430771D01*
X200167856Y-60430771D02*
X200215475Y-60335533D01*
X200215475Y-60335533D02*
X200215475Y-60240295D01*
X200215475Y-60240295D02*
X200167856Y-60145057D01*
X200167856Y-60145057D02*
X200120237Y-60097438D01*
X200120237Y-60097438D02*
X200024999Y-60049819D01*
X200024999Y-60049819D02*
X199786904Y-60049819D01*
X199786904Y-60049819D02*
X199644047Y-60097438D01*
X198786904Y-60383152D02*
X198786904Y-61049819D01*
X199024999Y-60002200D02*
X199263094Y-60716485D01*
X199263094Y-60716485D02*
X198644047Y-60716485D01*
X222900713Y-54324819D02*
X222900713Y-53324819D01*
X222900713Y-53324819D02*
X222567380Y-54039104D01*
X222567380Y-54039104D02*
X222234047Y-53324819D01*
X222234047Y-53324819D02*
X222234047Y-54324819D01*
X221805475Y-54277200D02*
X221662618Y-54324819D01*
X221662618Y-54324819D02*
X221424523Y-54324819D01*
X221424523Y-54324819D02*
X221329285Y-54277200D01*
X221329285Y-54277200D02*
X221281666Y-54229580D01*
X221281666Y-54229580D02*
X221234047Y-54134342D01*
X221234047Y-54134342D02*
X221234047Y-54039104D01*
X221234047Y-54039104D02*
X221281666Y-53943866D01*
X221281666Y-53943866D02*
X221329285Y-53896247D01*
X221329285Y-53896247D02*
X221424523Y-53848628D01*
X221424523Y-53848628D02*
X221614999Y-53801009D01*
X221614999Y-53801009D02*
X221710237Y-53753390D01*
X221710237Y-53753390D02*
X221757856Y-53705771D01*
X221757856Y-53705771D02*
X221805475Y-53610533D01*
X221805475Y-53610533D02*
X221805475Y-53515295D01*
X221805475Y-53515295D02*
X221757856Y-53420057D01*
X221757856Y-53420057D02*
X221710237Y-53372438D01*
X221710237Y-53372438D02*
X221614999Y-53324819D01*
X221614999Y-53324819D02*
X221376904Y-53324819D01*
X221376904Y-53324819D02*
X221234047Y-53372438D01*
X220757856Y-54324819D02*
X220567380Y-54324819D01*
X220567380Y-54324819D02*
X220472142Y-54277200D01*
X220472142Y-54277200D02*
X220424523Y-54229580D01*
X220424523Y-54229580D02*
X220329285Y-54086723D01*
X220329285Y-54086723D02*
X220281666Y-53896247D01*
X220281666Y-53896247D02*
X220281666Y-53515295D01*
X220281666Y-53515295D02*
X220329285Y-53420057D01*
X220329285Y-53420057D02*
X220376904Y-53372438D01*
X220376904Y-53372438D02*
X220472142Y-53324819D01*
X220472142Y-53324819D02*
X220662618Y-53324819D01*
X220662618Y-53324819D02*
X220757856Y-53372438D01*
X220757856Y-53372438D02*
X220805475Y-53420057D01*
X220805475Y-53420057D02*
X220853094Y-53515295D01*
X220853094Y-53515295D02*
X220853094Y-53753390D01*
X220853094Y-53753390D02*
X220805475Y-53848628D01*
X220805475Y-53848628D02*
X220757856Y-53896247D01*
X220757856Y-53896247D02*
X220662618Y-53943866D01*
X220662618Y-53943866D02*
X220472142Y-53943866D01*
X220472142Y-53943866D02*
X220376904Y-53896247D01*
X220376904Y-53896247D02*
X220329285Y-53848628D01*
X220329285Y-53848628D02*
X220281666Y-53753390D01*
D11*
X192345000Y-94675000D02*
X207705000Y-94675000D01*
X192345000Y-92075000D02*
X192345000Y-94675000D01*
X194945000Y-92075000D02*
X192345000Y-92075000D01*
X192345000Y-89475000D02*
X192345000Y-90805000D01*
X193675000Y-89475000D02*
X192345000Y-89475000D01*
X194945000Y-89475000D02*
X194945000Y-92075000D01*
X194945000Y-89475000D02*
X207705000Y-89475000D01*
X207705000Y-89475000D02*
X207705000Y-94675000D01*
X177035000Y-50695000D02*
X177035000Y-52695000D01*
X177035000Y-52695000D02*
X179835000Y-52695000D01*
X179835000Y-50695000D02*
X177035000Y-50695000D01*
X179835000Y-52695000D02*
X179835000Y-50695000D01*
X220215000Y-58170000D02*
X220215000Y-60170000D01*
X220215000Y-60170000D02*
X223015000Y-60170000D01*
X223015000Y-58170000D02*
X220215000Y-58170000D01*
X223015000Y-60170000D02*
X223015000Y-58170000D01*
X220215000Y-54620000D02*
X220215000Y-56620000D01*
X220215000Y-56620000D02*
X223015000Y-56620000D01*
X223015000Y-54620000D02*
X220215000Y-54620000D01*
X223015000Y-56620000D02*
X223015000Y-54620000D01*
X198625000Y-54245000D02*
X198625000Y-56245000D01*
X198625000Y-56245000D02*
X201425000Y-56245000D01*
X201425000Y-54245000D02*
X198625000Y-54245000D01*
X201425000Y-56245000D02*
X201425000Y-54245000D01*
X177035000Y-57795000D02*
X177035000Y-59795000D01*
X177035000Y-59795000D02*
X179835000Y-59795000D01*
X179835000Y-57795000D02*
X177035000Y-57795000D01*
X179835000Y-59795000D02*
X179835000Y-57795000D01*
X177035000Y-54245000D02*
X177035000Y-56245000D01*
X177035000Y-56245000D02*
X179835000Y-56245000D01*
X179835000Y-54245000D02*
X177035000Y-54245000D01*
X179835000Y-56245000D02*
X179835000Y-54245000D01*
X198625000Y-50695000D02*
X198625000Y-52695000D01*
X198625000Y-52695000D02*
X201425000Y-52695000D01*
X201425000Y-50695000D02*
X198625000Y-50695000D01*
X201425000Y-52695000D02*
X201425000Y-50695000D01*
X198625000Y-57795000D02*
X198625000Y-59795000D01*
X198625000Y-59795000D02*
X201425000Y-59795000D01*
X201425000Y-57795000D02*
X198625000Y-57795000D01*
X201425000Y-59795000D02*
X201425000Y-57795000D01*
X220215000Y-51070000D02*
X220215000Y-53070000D01*
X220215000Y-53070000D02*
X223015000Y-53070000D01*
X223015000Y-51070000D02*
X220215000Y-51070000D01*
X223015000Y-53070000D02*
X223015000Y-51070000D01*
%LPC*%
D12*
X206375000Y-93345000D03*
X206375000Y-90805000D03*
X203835000Y-93345000D03*
X203835000Y-90805000D03*
X201295000Y-93345000D03*
X201295000Y-90805000D03*
X198755000Y-93345000D03*
X198755000Y-90805000D03*
X196215000Y-93345000D03*
X196215000Y-90805000D03*
X193675000Y-93345000D03*
D13*
X193675000Y-90805000D03*
D14*
X227965000Y-70485000D03*
D15*
X227965000Y-70485000D03*
X172085000Y-70485000D03*
D14*
X172085000Y-70485000D03*
D15*
X227965000Y-34290000D03*
D14*
X227965000Y-34290000D03*
D16*
X184785000Y-46990000D03*
D17*
X184785000Y-49530000D03*
X184785000Y-52070000D03*
X184785000Y-54610000D03*
X184785000Y-57150000D03*
X184785000Y-59690000D03*
X184785000Y-62230000D03*
X184785000Y-64770000D03*
D16*
X172085000Y-64770000D03*
D17*
X172085000Y-62230000D03*
X172085000Y-59690000D03*
X172085000Y-57150000D03*
X172085000Y-54610000D03*
X172085000Y-52070000D03*
X172085000Y-49530000D03*
X172085000Y-46990000D03*
D12*
X187960000Y-80264000D03*
X187960000Y-77724000D03*
X185420000Y-80264000D03*
X185420000Y-77724000D03*
X182880000Y-80264000D03*
X182880000Y-77724000D03*
X180340000Y-80264000D03*
X180340000Y-77724000D03*
X177800000Y-80264000D03*
X177800000Y-77724000D03*
X175260000Y-80264000D03*
D13*
X175260000Y-77724000D03*
D18*
X173355000Y-37465000D03*
D19*
X178435000Y-37465000D03*
D12*
X224790000Y-80264000D03*
X224790000Y-77724000D03*
X222250000Y-80264000D03*
X222250000Y-77724000D03*
X219710000Y-80264000D03*
X219710000Y-77724000D03*
X217170000Y-80264000D03*
X217170000Y-77724000D03*
X214630000Y-80264000D03*
X214630000Y-77724000D03*
X212090000Y-80264000D03*
D13*
X212090000Y-77724000D03*
X196215000Y-70485000D03*
D12*
X198755000Y-70485000D03*
X201295000Y-70485000D03*
X203835000Y-70485000D03*
X211328000Y-35560000D03*
X208788000Y-35560000D03*
X206248000Y-35560000D03*
X203708000Y-35560000D03*
X201168000Y-35560000D03*
X198628000Y-35560000D03*
X196088000Y-35560000D03*
X193548000Y-35560000D03*
X191008000Y-35560000D03*
D13*
X188468000Y-35560000D03*
D16*
X227965000Y-46990000D03*
D17*
X227965000Y-49530000D03*
X227965000Y-52070000D03*
X227965000Y-54610000D03*
X227965000Y-57150000D03*
X227965000Y-59690000D03*
X227965000Y-62230000D03*
X227965000Y-64770000D03*
D16*
X215265000Y-64770000D03*
D17*
X215265000Y-62230000D03*
X215265000Y-59690000D03*
X215265000Y-57150000D03*
X215265000Y-54610000D03*
X215265000Y-52070000D03*
X215265000Y-49530000D03*
X215265000Y-46990000D03*
D13*
X182245000Y-70485000D03*
D12*
X184785000Y-70485000D03*
X187325000Y-70485000D03*
X189865000Y-70485000D03*
X206375000Y-80264000D03*
X206375000Y-77724000D03*
X203835000Y-80264000D03*
X203835000Y-77724000D03*
X201295000Y-80264000D03*
X201295000Y-77724000D03*
X198755000Y-80264000D03*
X198755000Y-77724000D03*
X196215000Y-80264000D03*
X196215000Y-77724000D03*
X193675000Y-80264000D03*
D13*
X193675000Y-77724000D03*
X210185000Y-70485000D03*
D12*
X212725000Y-70485000D03*
X215265000Y-70485000D03*
X217805000Y-70485000D03*
D16*
X206375000Y-46990000D03*
D17*
X206375000Y-49530000D03*
X206375000Y-52070000D03*
X206375000Y-54610000D03*
X206375000Y-57150000D03*
X206375000Y-59690000D03*
X206375000Y-62230000D03*
X206375000Y-64770000D03*
D16*
X193675000Y-64770000D03*
D17*
X193675000Y-62230000D03*
X193675000Y-59690000D03*
X193675000Y-57150000D03*
X193675000Y-54610000D03*
X193675000Y-52070000D03*
X193675000Y-49530000D03*
X193675000Y-46990000D03*
D20*
X177785000Y-51695000D03*
X179085000Y-51695000D03*
X220965000Y-59170000D03*
X222265000Y-59170000D03*
X220965000Y-55620000D03*
X222265000Y-55620000D03*
X199375000Y-55245000D03*
X200675000Y-55245000D03*
X177785000Y-58795000D03*
X179085000Y-58795000D03*
X177785000Y-55245000D03*
X179085000Y-55245000D03*
X199375000Y-51695000D03*
X200675000Y-51695000D03*
X199375000Y-58795000D03*
X200675000Y-58795000D03*
X220965000Y-52070000D03*
X222265000Y-52070000D03*
%LPD*%
M02*
