M48
; DRILL file {KiCad 7.0.8} date Sat Feb 17 11:27:21 2024
; FORMAT={-:-/ absolute / metric / decimal}
; #@! TF.CreationDate,2024-02-17T11:27:21+01:00
; #@! TF.GenerationSoftware,Kicad,Pcbnew,7.0.8
; #@! TF.FileFunction,Plated,1,2,PTH
FMAT,2
METRIC
; #@! TA.AperFunction,Plated,PTH,ViaDrill
T1C0.400
; #@! TA.AperFunction,Plated,PTH,ComponentDrill
T2C1.000
; #@! TA.AperFunction,Plated,PTH,ComponentDrill
T3C1.016
; #@! TA.AperFunction,Plated,PTH,ComponentDrill
T4C1.300
; #@! TA.AperFunction,Plated,PTH,ComponentDrill
T5C2.700
%
G90
G05
T1
X181.61Y-85.09
X184.15Y-85.344
X186.69Y-84.074
X193.04Y-87.884
X200.025Y-86.614
X202.565Y-85.344
X205.105Y-84.074
X206.375Y-82.804
X206.375Y-87.63
X215.9Y-86.614
X218.44Y-85.344
X220.98Y-84.074
T2
X175.26Y-77.724
X175.26Y-80.264
X177.8Y-77.724
X177.8Y-80.264
X180.34Y-77.724
X180.34Y-80.264
X182.245Y-70.485
X182.88Y-77.724
X182.88Y-80.264
X184.785Y-70.485
X185.42Y-77.724
X185.42Y-80.264
X187.325Y-70.485
X187.96Y-77.724
X187.96Y-80.264
X188.468Y-35.56
X189.865Y-70.485
X191.008Y-35.56
X193.548Y-35.56
X193.675Y-77.724
X193.675Y-80.264
X193.675Y-90.805
X193.675Y-93.345
X196.088Y-35.56
X196.215Y-70.485
X196.215Y-77.724
X196.215Y-80.264
X196.215Y-90.805
X196.215Y-93.345
X198.628Y-35.56
X198.755Y-70.485
X198.755Y-77.724
X198.755Y-80.264
X198.755Y-90.805
X198.755Y-93.345
X201.168Y-35.56
X201.295Y-70.485
X201.295Y-77.724
X201.295Y-80.264
X201.295Y-90.805
X201.295Y-93.345
X203.708Y-35.56
X203.835Y-70.485
X203.835Y-77.724
X203.835Y-80.264
X203.835Y-90.805
X203.835Y-93.345
X206.248Y-35.56
X206.375Y-77.724
X206.375Y-80.264
X206.375Y-90.805
X206.375Y-93.345
X208.788Y-35.56
X210.185Y-70.485
X211.328Y-35.56
X212.09Y-77.724
X212.09Y-80.264
X212.725Y-70.485
X214.63Y-77.724
X214.63Y-80.264
X215.265Y-70.485
X217.17Y-77.724
X217.17Y-80.264
X217.805Y-70.485
X219.71Y-77.724
X219.71Y-80.264
X222.25Y-77.724
X222.25Y-80.264
X224.79Y-77.724
X224.79Y-80.264
T3
X172.085Y-46.99
X172.085Y-49.53
X172.085Y-52.07
X172.085Y-54.61
X172.085Y-57.15
X172.085Y-59.69
X172.085Y-62.23
X172.085Y-64.77
X184.785Y-46.99
X184.785Y-49.53
X184.785Y-52.07
X184.785Y-54.61
X184.785Y-57.15
X184.785Y-59.69
X184.785Y-62.23
X184.785Y-64.77
X193.675Y-46.99
X193.675Y-49.53
X193.675Y-52.07
X193.675Y-54.61
X193.675Y-57.15
X193.675Y-59.69
X193.675Y-62.23
X193.675Y-64.77
X206.375Y-46.99
X206.375Y-49.53
X206.375Y-52.07
X206.375Y-54.61
X206.375Y-57.15
X206.375Y-59.69
X206.375Y-62.23
X206.375Y-64.77
X215.265Y-46.99
X215.265Y-49.53
X215.265Y-52.07
X215.265Y-54.61
X215.265Y-57.15
X215.265Y-59.69
X215.265Y-62.23
X215.265Y-64.77
X227.965Y-46.99
X227.965Y-49.53
X227.965Y-52.07
X227.965Y-54.61
X227.965Y-57.15
X227.965Y-59.69
X227.965Y-62.23
X227.965Y-64.77
T4
X173.355Y-37.465
X178.435Y-37.465
T5
X172.085Y-70.485
X227.965Y-34.29
X227.965Y-70.485
T0
M30
