G04 #@! TF.GenerationSoftware,KiCad,Pcbnew,7.0.8*
G04 #@! TF.CreationDate,2024-02-17T11:27:20+01:00*
G04 #@! TF.ProjectId,PCB_V2,5043425f-5632-42e6-9b69-6361645f7063,rev?*
G04 #@! TF.SameCoordinates,Original*
G04 #@! TF.FileFunction,Legend,Top*
G04 #@! TF.FilePolarity,Positive*
%FSLAX46Y46*%
G04 Gerber Fmt 4.6, Leading zero omitted, Abs format (unit mm)*
G04 Created by KiCad (PCBNEW 7.0.8) date 2024-02-17 11:27:20*
%MOMM*%
%LPD*%
G01*
G04 APERTURE LIST*
G04 Aperture macros list*
%AMRoundRect*
0 Rectangle with rounded corners*
0 $1 Rounding radius*
0 $2 $3 $4 $5 $6 $7 $8 $9 X,Y pos of 4 corners*
0 Add a 4 corners polygon primitive as box body*
4,1,4,$2,$3,$4,$5,$6,$7,$8,$9,$2,$3,0*
0 Add four circle primitives for the rounded corners*
1,1,$1+$1,$2,$3*
1,1,$1+$1,$4,$5*
1,1,$1+$1,$6,$7*
1,1,$1+$1,$8,$9*
0 Add four rect primitives between the rounded corners*
20,1,$1+$1,$2,$3,$4,$5,0*
20,1,$1+$1,$4,$5,$6,$7,0*
20,1,$1+$1,$6,$7,$8,$9,0*
20,1,$1+$1,$8,$9,$2,$3,0*%
G04 Aperture macros list end*
%ADD10C,0.150000*%
%ADD11C,0.200000*%
%ADD12C,0.127000*%
%ADD13C,0.120000*%
%ADD14O,1.700000X1.700000*%
%ADD15R,1.700000X1.700000*%
%ADD16C,5.400000*%
%ADD17C,3.100000*%
%ADD18RoundRect,0.102000X-0.762000X-0.762000X0.762000X-0.762000X0.762000X0.762000X-0.762000X0.762000X0*%
%ADD19C,1.728000*%
%ADD20C,2.600000*%
%ADD21R,2.600000X2.600000*%
G04 APERTURE END LIST*
D10*
X210947192Y-38387969D02*
X211742192Y-38387969D01*
X211742192Y-38387969D02*
X211742192Y-38577255D01*
X211742192Y-38577255D02*
X211704335Y-38690826D01*
X211704335Y-38690826D02*
X211628621Y-38766541D01*
X211628621Y-38766541D02*
X211552907Y-38804398D01*
X211552907Y-38804398D02*
X211401478Y-38842255D01*
X211401478Y-38842255D02*
X211287907Y-38842255D01*
X211287907Y-38842255D02*
X211136478Y-38804398D01*
X211136478Y-38804398D02*
X211060764Y-38766541D01*
X211060764Y-38766541D02*
X210985050Y-38690826D01*
X210985050Y-38690826D02*
X210947192Y-38577255D01*
X210947192Y-38577255D02*
X210947192Y-38387969D01*
X210947192Y-39182969D02*
X211742192Y-39182969D01*
X210947192Y-40015826D02*
X211325764Y-39750826D01*
X210947192Y-39561540D02*
X211742192Y-39561540D01*
X211742192Y-39561540D02*
X211742192Y-39864397D01*
X211742192Y-39864397D02*
X211704335Y-39940112D01*
X211704335Y-39940112D02*
X211666478Y-39977969D01*
X211666478Y-39977969D02*
X211590764Y-40015826D01*
X211590764Y-40015826D02*
X211477192Y-40015826D01*
X211477192Y-40015826D02*
X211401478Y-39977969D01*
X211401478Y-39977969D02*
X211363621Y-39940112D01*
X211363621Y-39940112D02*
X211325764Y-39864397D01*
X211325764Y-39864397D02*
X211325764Y-39561540D01*
X211742192Y-40280826D02*
X211742192Y-40772969D01*
X211742192Y-40772969D02*
X211439335Y-40507969D01*
X211439335Y-40507969D02*
X211439335Y-40621540D01*
X211439335Y-40621540D02*
X211401478Y-40697255D01*
X211401478Y-40697255D02*
X211363621Y-40735112D01*
X211363621Y-40735112D02*
X211287907Y-40772969D01*
X211287907Y-40772969D02*
X211098621Y-40772969D01*
X211098621Y-40772969D02*
X211022907Y-40735112D01*
X211022907Y-40735112D02*
X210985050Y-40697255D01*
X210985050Y-40697255D02*
X210947192Y-40621540D01*
X210947192Y-40621540D02*
X210947192Y-40394397D01*
X210947192Y-40394397D02*
X210985050Y-40318683D01*
X210985050Y-40318683D02*
X211022907Y-40280826D01*
X208425150Y-38350112D02*
X208387292Y-38463684D01*
X208387292Y-38463684D02*
X208387292Y-38652969D01*
X208387292Y-38652969D02*
X208425150Y-38728684D01*
X208425150Y-38728684D02*
X208463007Y-38766541D01*
X208463007Y-38766541D02*
X208538721Y-38804398D01*
X208538721Y-38804398D02*
X208614435Y-38804398D01*
X208614435Y-38804398D02*
X208690150Y-38766541D01*
X208690150Y-38766541D02*
X208728007Y-38728684D01*
X208728007Y-38728684D02*
X208765864Y-38652969D01*
X208765864Y-38652969D02*
X208803721Y-38501541D01*
X208803721Y-38501541D02*
X208841578Y-38425826D01*
X208841578Y-38425826D02*
X208879435Y-38387969D01*
X208879435Y-38387969D02*
X208955150Y-38350112D01*
X208955150Y-38350112D02*
X209030864Y-38350112D01*
X209030864Y-38350112D02*
X209106578Y-38387969D01*
X209106578Y-38387969D02*
X209144435Y-38425826D01*
X209144435Y-38425826D02*
X209182292Y-38501541D01*
X209182292Y-38501541D02*
X209182292Y-38690826D01*
X209182292Y-38690826D02*
X209144435Y-38804398D01*
X209182292Y-39031541D02*
X209182292Y-39485827D01*
X208387292Y-39258684D02*
X209182292Y-39258684D01*
X208803721Y-39750826D02*
X208803721Y-40015826D01*
X208387292Y-40129398D02*
X208387292Y-39750826D01*
X208387292Y-39750826D02*
X209182292Y-39750826D01*
X209182292Y-39750826D02*
X209182292Y-40129398D01*
X208387292Y-40470112D02*
X209182292Y-40470112D01*
X209182292Y-40470112D02*
X209182292Y-40772969D01*
X209182292Y-40772969D02*
X209144435Y-40848684D01*
X209144435Y-40848684D02*
X209106578Y-40886541D01*
X209106578Y-40886541D02*
X209030864Y-40924398D01*
X209030864Y-40924398D02*
X208917292Y-40924398D01*
X208917292Y-40924398D02*
X208841578Y-40886541D01*
X208841578Y-40886541D02*
X208803721Y-40848684D01*
X208803721Y-40848684D02*
X208765864Y-40772969D01*
X208765864Y-40772969D02*
X208765864Y-40470112D01*
X209182292Y-41189398D02*
X209182292Y-41681541D01*
X209182292Y-41681541D02*
X208879435Y-41416541D01*
X208879435Y-41416541D02*
X208879435Y-41530112D01*
X208879435Y-41530112D02*
X208841578Y-41605827D01*
X208841578Y-41605827D02*
X208803721Y-41643684D01*
X208803721Y-41643684D02*
X208728007Y-41681541D01*
X208728007Y-41681541D02*
X208538721Y-41681541D01*
X208538721Y-41681541D02*
X208463007Y-41643684D01*
X208463007Y-41643684D02*
X208425150Y-41605827D01*
X208425150Y-41605827D02*
X208387292Y-41530112D01*
X208387292Y-41530112D02*
X208387292Y-41302969D01*
X208387292Y-41302969D02*
X208425150Y-41227255D01*
X208425150Y-41227255D02*
X208463007Y-41189398D01*
X205827392Y-38387969D02*
X206622392Y-38387969D01*
X206622392Y-38387969D02*
X206622392Y-38577255D01*
X206622392Y-38577255D02*
X206584535Y-38690826D01*
X206584535Y-38690826D02*
X206508821Y-38766541D01*
X206508821Y-38766541D02*
X206433107Y-38804398D01*
X206433107Y-38804398D02*
X206281678Y-38842255D01*
X206281678Y-38842255D02*
X206168107Y-38842255D01*
X206168107Y-38842255D02*
X206016678Y-38804398D01*
X206016678Y-38804398D02*
X205940964Y-38766541D01*
X205940964Y-38766541D02*
X205865250Y-38690826D01*
X205865250Y-38690826D02*
X205827392Y-38577255D01*
X205827392Y-38577255D02*
X205827392Y-38387969D01*
X205827392Y-39182969D02*
X206622392Y-39182969D01*
X205827392Y-40015826D02*
X206205964Y-39750826D01*
X205827392Y-39561540D02*
X206622392Y-39561540D01*
X206622392Y-39561540D02*
X206622392Y-39864397D01*
X206622392Y-39864397D02*
X206584535Y-39940112D01*
X206584535Y-39940112D02*
X206546678Y-39977969D01*
X206546678Y-39977969D02*
X206470964Y-40015826D01*
X206470964Y-40015826D02*
X206357392Y-40015826D01*
X206357392Y-40015826D02*
X206281678Y-39977969D01*
X206281678Y-39977969D02*
X206243821Y-39940112D01*
X206243821Y-39940112D02*
X206205964Y-39864397D01*
X206205964Y-39864397D02*
X206205964Y-39561540D01*
X206546678Y-40318683D02*
X206584535Y-40356540D01*
X206584535Y-40356540D02*
X206622392Y-40432255D01*
X206622392Y-40432255D02*
X206622392Y-40621540D01*
X206622392Y-40621540D02*
X206584535Y-40697255D01*
X206584535Y-40697255D02*
X206546678Y-40735112D01*
X206546678Y-40735112D02*
X206470964Y-40772969D01*
X206470964Y-40772969D02*
X206395250Y-40772969D01*
X206395250Y-40772969D02*
X206281678Y-40735112D01*
X206281678Y-40735112D02*
X205827392Y-40280826D01*
X205827392Y-40280826D02*
X205827392Y-40772969D01*
X203305350Y-38350112D02*
X203267492Y-38463684D01*
X203267492Y-38463684D02*
X203267492Y-38652969D01*
X203267492Y-38652969D02*
X203305350Y-38728684D01*
X203305350Y-38728684D02*
X203343207Y-38766541D01*
X203343207Y-38766541D02*
X203418921Y-38804398D01*
X203418921Y-38804398D02*
X203494635Y-38804398D01*
X203494635Y-38804398D02*
X203570350Y-38766541D01*
X203570350Y-38766541D02*
X203608207Y-38728684D01*
X203608207Y-38728684D02*
X203646064Y-38652969D01*
X203646064Y-38652969D02*
X203683921Y-38501541D01*
X203683921Y-38501541D02*
X203721778Y-38425826D01*
X203721778Y-38425826D02*
X203759635Y-38387969D01*
X203759635Y-38387969D02*
X203835350Y-38350112D01*
X203835350Y-38350112D02*
X203911064Y-38350112D01*
X203911064Y-38350112D02*
X203986778Y-38387969D01*
X203986778Y-38387969D02*
X204024635Y-38425826D01*
X204024635Y-38425826D02*
X204062492Y-38501541D01*
X204062492Y-38501541D02*
X204062492Y-38690826D01*
X204062492Y-38690826D02*
X204024635Y-38804398D01*
X204062492Y-39031541D02*
X204062492Y-39485827D01*
X203267492Y-39258684D02*
X204062492Y-39258684D01*
X203683921Y-39750826D02*
X203683921Y-40015826D01*
X203267492Y-40129398D02*
X203267492Y-39750826D01*
X203267492Y-39750826D02*
X204062492Y-39750826D01*
X204062492Y-39750826D02*
X204062492Y-40129398D01*
X203267492Y-40470112D02*
X204062492Y-40470112D01*
X204062492Y-40470112D02*
X204062492Y-40772969D01*
X204062492Y-40772969D02*
X204024635Y-40848684D01*
X204024635Y-40848684D02*
X203986778Y-40886541D01*
X203986778Y-40886541D02*
X203911064Y-40924398D01*
X203911064Y-40924398D02*
X203797492Y-40924398D01*
X203797492Y-40924398D02*
X203721778Y-40886541D01*
X203721778Y-40886541D02*
X203683921Y-40848684D01*
X203683921Y-40848684D02*
X203646064Y-40772969D01*
X203646064Y-40772969D02*
X203646064Y-40470112D01*
X203986778Y-41227255D02*
X204024635Y-41265112D01*
X204024635Y-41265112D02*
X204062492Y-41340827D01*
X204062492Y-41340827D02*
X204062492Y-41530112D01*
X204062492Y-41530112D02*
X204024635Y-41605827D01*
X204024635Y-41605827D02*
X203986778Y-41643684D01*
X203986778Y-41643684D02*
X203911064Y-41681541D01*
X203911064Y-41681541D02*
X203835350Y-41681541D01*
X203835350Y-41681541D02*
X203721778Y-41643684D01*
X203721778Y-41643684D02*
X203267492Y-41189398D01*
X203267492Y-41189398D02*
X203267492Y-41681541D01*
X201124021Y-38387969D02*
X201124021Y-38652969D01*
X200707592Y-38766541D02*
X200707592Y-38387969D01*
X200707592Y-38387969D02*
X201502592Y-38387969D01*
X201502592Y-38387969D02*
X201502592Y-38766541D01*
X200707592Y-39107255D02*
X201502592Y-39107255D01*
X201502592Y-39107255D02*
X200707592Y-39561541D01*
X200707592Y-39561541D02*
X201502592Y-39561541D01*
X201426878Y-39902255D02*
X201464735Y-39940112D01*
X201464735Y-39940112D02*
X201502592Y-40015827D01*
X201502592Y-40015827D02*
X201502592Y-40205112D01*
X201502592Y-40205112D02*
X201464735Y-40280827D01*
X201464735Y-40280827D02*
X201426878Y-40318684D01*
X201426878Y-40318684D02*
X201351164Y-40356541D01*
X201351164Y-40356541D02*
X201275450Y-40356541D01*
X201275450Y-40356541D02*
X201161878Y-40318684D01*
X201161878Y-40318684D02*
X200707592Y-39864398D01*
X200707592Y-39864398D02*
X200707592Y-40356541D01*
X198147692Y-38387969D02*
X198942692Y-38387969D01*
X198942692Y-38387969D02*
X198942692Y-38577255D01*
X198942692Y-38577255D02*
X198904835Y-38690826D01*
X198904835Y-38690826D02*
X198829121Y-38766541D01*
X198829121Y-38766541D02*
X198753407Y-38804398D01*
X198753407Y-38804398D02*
X198601978Y-38842255D01*
X198601978Y-38842255D02*
X198488407Y-38842255D01*
X198488407Y-38842255D02*
X198336978Y-38804398D01*
X198336978Y-38804398D02*
X198261264Y-38766541D01*
X198261264Y-38766541D02*
X198185550Y-38690826D01*
X198185550Y-38690826D02*
X198147692Y-38577255D01*
X198147692Y-38577255D02*
X198147692Y-38387969D01*
X198147692Y-39182969D02*
X198942692Y-39182969D01*
X198147692Y-40015826D02*
X198526264Y-39750826D01*
X198147692Y-39561540D02*
X198942692Y-39561540D01*
X198942692Y-39561540D02*
X198942692Y-39864397D01*
X198942692Y-39864397D02*
X198904835Y-39940112D01*
X198904835Y-39940112D02*
X198866978Y-39977969D01*
X198866978Y-39977969D02*
X198791264Y-40015826D01*
X198791264Y-40015826D02*
X198677692Y-40015826D01*
X198677692Y-40015826D02*
X198601978Y-39977969D01*
X198601978Y-39977969D02*
X198564121Y-39940112D01*
X198564121Y-39940112D02*
X198526264Y-39864397D01*
X198526264Y-39864397D02*
X198526264Y-39561540D01*
X198147692Y-40772969D02*
X198147692Y-40318683D01*
X198147692Y-40545826D02*
X198942692Y-40545826D01*
X198942692Y-40545826D02*
X198829121Y-40470112D01*
X198829121Y-40470112D02*
X198753407Y-40394397D01*
X198753407Y-40394397D02*
X198715550Y-40318683D01*
X195625650Y-38350112D02*
X195587792Y-38463684D01*
X195587792Y-38463684D02*
X195587792Y-38652969D01*
X195587792Y-38652969D02*
X195625650Y-38728684D01*
X195625650Y-38728684D02*
X195663507Y-38766541D01*
X195663507Y-38766541D02*
X195739221Y-38804398D01*
X195739221Y-38804398D02*
X195814935Y-38804398D01*
X195814935Y-38804398D02*
X195890650Y-38766541D01*
X195890650Y-38766541D02*
X195928507Y-38728684D01*
X195928507Y-38728684D02*
X195966364Y-38652969D01*
X195966364Y-38652969D02*
X196004221Y-38501541D01*
X196004221Y-38501541D02*
X196042078Y-38425826D01*
X196042078Y-38425826D02*
X196079935Y-38387969D01*
X196079935Y-38387969D02*
X196155650Y-38350112D01*
X196155650Y-38350112D02*
X196231364Y-38350112D01*
X196231364Y-38350112D02*
X196307078Y-38387969D01*
X196307078Y-38387969D02*
X196344935Y-38425826D01*
X196344935Y-38425826D02*
X196382792Y-38501541D01*
X196382792Y-38501541D02*
X196382792Y-38690826D01*
X196382792Y-38690826D02*
X196344935Y-38804398D01*
X196382792Y-39031541D02*
X196382792Y-39485827D01*
X195587792Y-39258684D02*
X196382792Y-39258684D01*
X196004221Y-39750826D02*
X196004221Y-40015826D01*
X195587792Y-40129398D02*
X195587792Y-39750826D01*
X195587792Y-39750826D02*
X196382792Y-39750826D01*
X196382792Y-39750826D02*
X196382792Y-40129398D01*
X195587792Y-40470112D02*
X196382792Y-40470112D01*
X196382792Y-40470112D02*
X196382792Y-40772969D01*
X196382792Y-40772969D02*
X196344935Y-40848684D01*
X196344935Y-40848684D02*
X196307078Y-40886541D01*
X196307078Y-40886541D02*
X196231364Y-40924398D01*
X196231364Y-40924398D02*
X196117792Y-40924398D01*
X196117792Y-40924398D02*
X196042078Y-40886541D01*
X196042078Y-40886541D02*
X196004221Y-40848684D01*
X196004221Y-40848684D02*
X195966364Y-40772969D01*
X195966364Y-40772969D02*
X195966364Y-40470112D01*
X195587792Y-41681541D02*
X195587792Y-41227255D01*
X195587792Y-41454398D02*
X196382792Y-41454398D01*
X196382792Y-41454398D02*
X196269221Y-41378684D01*
X196269221Y-41378684D02*
X196193507Y-41302969D01*
X196193507Y-41302969D02*
X196155650Y-41227255D01*
X193444321Y-38387969D02*
X193444321Y-38652969D01*
X193027892Y-38766541D02*
X193027892Y-38387969D01*
X193027892Y-38387969D02*
X193822892Y-38387969D01*
X193822892Y-38387969D02*
X193822892Y-38766541D01*
X193027892Y-39107255D02*
X193822892Y-39107255D01*
X193822892Y-39107255D02*
X193027892Y-39561541D01*
X193027892Y-39561541D02*
X193822892Y-39561541D01*
X193027892Y-40356541D02*
X193027892Y-39902255D01*
X193027892Y-40129398D02*
X193822892Y-40129398D01*
X193822892Y-40129398D02*
X193709321Y-40053684D01*
X193709321Y-40053684D02*
X193633607Y-39977969D01*
X193633607Y-39977969D02*
X193595750Y-39902255D01*
X193860750Y-41265112D02*
X192838607Y-40583684D01*
X193822892Y-41454398D02*
X193822892Y-41946541D01*
X193822892Y-41946541D02*
X193520035Y-41681541D01*
X193520035Y-41681541D02*
X193520035Y-41795112D01*
X193520035Y-41795112D02*
X193482178Y-41870827D01*
X193482178Y-41870827D02*
X193444321Y-41908684D01*
X193444321Y-41908684D02*
X193368607Y-41946541D01*
X193368607Y-41946541D02*
X193179321Y-41946541D01*
X193179321Y-41946541D02*
X193103607Y-41908684D01*
X193103607Y-41908684D02*
X193065750Y-41870827D01*
X193065750Y-41870827D02*
X193027892Y-41795112D01*
X193027892Y-41795112D02*
X193027892Y-41567969D01*
X193027892Y-41567969D02*
X193065750Y-41492255D01*
X193065750Y-41492255D02*
X193103607Y-41454398D01*
X191262992Y-38274398D02*
X190467992Y-38539398D01*
X190467992Y-38539398D02*
X191262992Y-38804398D01*
X190467992Y-39069398D02*
X191262992Y-39069398D01*
X191262992Y-39069398D02*
X191262992Y-39258684D01*
X191262992Y-39258684D02*
X191225135Y-39372255D01*
X191225135Y-39372255D02*
X191149421Y-39447970D01*
X191149421Y-39447970D02*
X191073707Y-39485827D01*
X191073707Y-39485827D02*
X190922278Y-39523684D01*
X190922278Y-39523684D02*
X190808707Y-39523684D01*
X190808707Y-39523684D02*
X190657278Y-39485827D01*
X190657278Y-39485827D02*
X190581564Y-39447970D01*
X190581564Y-39447970D02*
X190505850Y-39372255D01*
X190505850Y-39372255D02*
X190467992Y-39258684D01*
X190467992Y-39258684D02*
X190467992Y-39069398D01*
X190467992Y-39864398D02*
X191262992Y-39864398D01*
X191262992Y-39864398D02*
X191262992Y-40053684D01*
X191262992Y-40053684D02*
X191225135Y-40167255D01*
X191225135Y-40167255D02*
X191149421Y-40242970D01*
X191149421Y-40242970D02*
X191073707Y-40280827D01*
X191073707Y-40280827D02*
X190922278Y-40318684D01*
X190922278Y-40318684D02*
X190808707Y-40318684D01*
X190808707Y-40318684D02*
X190657278Y-40280827D01*
X190657278Y-40280827D02*
X190581564Y-40242970D01*
X190581564Y-40242970D02*
X190505850Y-40167255D01*
X190505850Y-40167255D02*
X190467992Y-40053684D01*
X190467992Y-40053684D02*
X190467992Y-39864398D01*
X188665235Y-38804398D02*
X188703092Y-38728684D01*
X188703092Y-38728684D02*
X188703092Y-38615112D01*
X188703092Y-38615112D02*
X188665235Y-38501541D01*
X188665235Y-38501541D02*
X188589521Y-38425826D01*
X188589521Y-38425826D02*
X188513807Y-38387969D01*
X188513807Y-38387969D02*
X188362378Y-38350112D01*
X188362378Y-38350112D02*
X188248807Y-38350112D01*
X188248807Y-38350112D02*
X188097378Y-38387969D01*
X188097378Y-38387969D02*
X188021664Y-38425826D01*
X188021664Y-38425826D02*
X187945950Y-38501541D01*
X187945950Y-38501541D02*
X187908092Y-38615112D01*
X187908092Y-38615112D02*
X187908092Y-38690826D01*
X187908092Y-38690826D02*
X187945950Y-38804398D01*
X187945950Y-38804398D02*
X187983807Y-38842255D01*
X187983807Y-38842255D02*
X188248807Y-38842255D01*
X188248807Y-38842255D02*
X188248807Y-38690826D01*
X187908092Y-39182969D02*
X188703092Y-39182969D01*
X188703092Y-39182969D02*
X187908092Y-39637255D01*
X187908092Y-39637255D02*
X188703092Y-39637255D01*
X187908092Y-40015826D02*
X188703092Y-40015826D01*
X188703092Y-40015826D02*
X188703092Y-40205112D01*
X188703092Y-40205112D02*
X188665235Y-40318683D01*
X188665235Y-40318683D02*
X188589521Y-40394398D01*
X188589521Y-40394398D02*
X188513807Y-40432255D01*
X188513807Y-40432255D02*
X188362378Y-40470112D01*
X188362378Y-40470112D02*
X188248807Y-40470112D01*
X188248807Y-40470112D02*
X188097378Y-40432255D01*
X188097378Y-40432255D02*
X188021664Y-40394398D01*
X188021664Y-40394398D02*
X187945950Y-40318683D01*
X187945950Y-40318683D02*
X187908092Y-40205112D01*
X187908092Y-40205112D02*
X187908092Y-40015826D01*
X192059160Y-32842200D02*
X192202017Y-32889819D01*
X192202017Y-32889819D02*
X192440112Y-32889819D01*
X192440112Y-32889819D02*
X192535350Y-32842200D01*
X192535350Y-32842200D02*
X192582969Y-32794580D01*
X192582969Y-32794580D02*
X192630588Y-32699342D01*
X192630588Y-32699342D02*
X192630588Y-32604104D01*
X192630588Y-32604104D02*
X192582969Y-32508866D01*
X192582969Y-32508866D02*
X192535350Y-32461247D01*
X192535350Y-32461247D02*
X192440112Y-32413628D01*
X192440112Y-32413628D02*
X192249636Y-32366009D01*
X192249636Y-32366009D02*
X192154398Y-32318390D01*
X192154398Y-32318390D02*
X192106779Y-32270771D01*
X192106779Y-32270771D02*
X192059160Y-32175533D01*
X192059160Y-32175533D02*
X192059160Y-32080295D01*
X192059160Y-32080295D02*
X192106779Y-31985057D01*
X192106779Y-31985057D02*
X192154398Y-31937438D01*
X192154398Y-31937438D02*
X192249636Y-31889819D01*
X192249636Y-31889819D02*
X192487731Y-31889819D01*
X192487731Y-31889819D02*
X192630588Y-31937438D01*
X192916303Y-32223152D02*
X193297255Y-32223152D01*
X193059160Y-31889819D02*
X193059160Y-32746961D01*
X193059160Y-32746961D02*
X193106779Y-32842200D01*
X193106779Y-32842200D02*
X193202017Y-32889819D01*
X193202017Y-32889819D02*
X193297255Y-32889819D01*
X194011541Y-32842200D02*
X193916303Y-32889819D01*
X193916303Y-32889819D02*
X193725827Y-32889819D01*
X193725827Y-32889819D02*
X193630589Y-32842200D01*
X193630589Y-32842200D02*
X193582970Y-32746961D01*
X193582970Y-32746961D02*
X193582970Y-32366009D01*
X193582970Y-32366009D02*
X193630589Y-32270771D01*
X193630589Y-32270771D02*
X193725827Y-32223152D01*
X193725827Y-32223152D02*
X193916303Y-32223152D01*
X193916303Y-32223152D02*
X194011541Y-32270771D01*
X194011541Y-32270771D02*
X194059160Y-32366009D01*
X194059160Y-32366009D02*
X194059160Y-32461247D01*
X194059160Y-32461247D02*
X193582970Y-32556485D01*
X194487732Y-32223152D02*
X194487732Y-33223152D01*
X194487732Y-32270771D02*
X194582970Y-32223152D01*
X194582970Y-32223152D02*
X194773446Y-32223152D01*
X194773446Y-32223152D02*
X194868684Y-32270771D01*
X194868684Y-32270771D02*
X194916303Y-32318390D01*
X194916303Y-32318390D02*
X194963922Y-32413628D01*
X194963922Y-32413628D02*
X194963922Y-32699342D01*
X194963922Y-32699342D02*
X194916303Y-32794580D01*
X194916303Y-32794580D02*
X194868684Y-32842200D01*
X194868684Y-32842200D02*
X194773446Y-32889819D01*
X194773446Y-32889819D02*
X194582970Y-32889819D01*
X194582970Y-32889819D02*
X194487732Y-32842200D01*
X195392494Y-32223152D02*
X195392494Y-33223152D01*
X195392494Y-32270771D02*
X195487732Y-32223152D01*
X195487732Y-32223152D02*
X195678208Y-32223152D01*
X195678208Y-32223152D02*
X195773446Y-32270771D01*
X195773446Y-32270771D02*
X195821065Y-32318390D01*
X195821065Y-32318390D02*
X195868684Y-32413628D01*
X195868684Y-32413628D02*
X195868684Y-32699342D01*
X195868684Y-32699342D02*
X195821065Y-32794580D01*
X195821065Y-32794580D02*
X195773446Y-32842200D01*
X195773446Y-32842200D02*
X195678208Y-32889819D01*
X195678208Y-32889819D02*
X195487732Y-32889819D01*
X195487732Y-32889819D02*
X195392494Y-32842200D01*
X196678208Y-32842200D02*
X196582970Y-32889819D01*
X196582970Y-32889819D02*
X196392494Y-32889819D01*
X196392494Y-32889819D02*
X196297256Y-32842200D01*
X196297256Y-32842200D02*
X196249637Y-32746961D01*
X196249637Y-32746961D02*
X196249637Y-32366009D01*
X196249637Y-32366009D02*
X196297256Y-32270771D01*
X196297256Y-32270771D02*
X196392494Y-32223152D01*
X196392494Y-32223152D02*
X196582970Y-32223152D01*
X196582970Y-32223152D02*
X196678208Y-32270771D01*
X196678208Y-32270771D02*
X196725827Y-32366009D01*
X196725827Y-32366009D02*
X196725827Y-32461247D01*
X196725827Y-32461247D02*
X196249637Y-32556485D01*
X197154399Y-32889819D02*
X197154399Y-32223152D01*
X197154399Y-32413628D02*
X197202018Y-32318390D01*
X197202018Y-32318390D02*
X197249637Y-32270771D01*
X197249637Y-32270771D02*
X197344875Y-32223152D01*
X197344875Y-32223152D02*
X197440113Y-32223152D01*
X198963923Y-32889819D02*
X198963923Y-31889819D01*
X198963923Y-32842200D02*
X198868685Y-32889819D01*
X198868685Y-32889819D02*
X198678209Y-32889819D01*
X198678209Y-32889819D02*
X198582971Y-32842200D01*
X198582971Y-32842200D02*
X198535352Y-32794580D01*
X198535352Y-32794580D02*
X198487733Y-32699342D01*
X198487733Y-32699342D02*
X198487733Y-32413628D01*
X198487733Y-32413628D02*
X198535352Y-32318390D01*
X198535352Y-32318390D02*
X198582971Y-32270771D01*
X198582971Y-32270771D02*
X198678209Y-32223152D01*
X198678209Y-32223152D02*
X198868685Y-32223152D01*
X198868685Y-32223152D02*
X198963923Y-32270771D01*
X199440114Y-32889819D02*
X199440114Y-32223152D01*
X199440114Y-32413628D02*
X199487733Y-32318390D01*
X199487733Y-32318390D02*
X199535352Y-32270771D01*
X199535352Y-32270771D02*
X199630590Y-32223152D01*
X199630590Y-32223152D02*
X199725828Y-32223152D01*
X200059162Y-32889819D02*
X200059162Y-32223152D01*
X200059162Y-31889819D02*
X200011543Y-31937438D01*
X200011543Y-31937438D02*
X200059162Y-31985057D01*
X200059162Y-31985057D02*
X200106781Y-31937438D01*
X200106781Y-31937438D02*
X200059162Y-31889819D01*
X200059162Y-31889819D02*
X200059162Y-31985057D01*
X200440114Y-32223152D02*
X200678209Y-32889819D01*
X200678209Y-32889819D02*
X200916304Y-32223152D01*
X201678209Y-32842200D02*
X201582971Y-32889819D01*
X201582971Y-32889819D02*
X201392495Y-32889819D01*
X201392495Y-32889819D02*
X201297257Y-32842200D01*
X201297257Y-32842200D02*
X201249638Y-32746961D01*
X201249638Y-32746961D02*
X201249638Y-32366009D01*
X201249638Y-32366009D02*
X201297257Y-32270771D01*
X201297257Y-32270771D02*
X201392495Y-32223152D01*
X201392495Y-32223152D02*
X201582971Y-32223152D01*
X201582971Y-32223152D02*
X201678209Y-32270771D01*
X201678209Y-32270771D02*
X201725828Y-32366009D01*
X201725828Y-32366009D02*
X201725828Y-32461247D01*
X201725828Y-32461247D02*
X201249638Y-32556485D01*
X202154400Y-32889819D02*
X202154400Y-32223152D01*
X202154400Y-32413628D02*
X202202019Y-32318390D01*
X202202019Y-32318390D02*
X202249638Y-32270771D01*
X202249638Y-32270771D02*
X202344876Y-32223152D01*
X202344876Y-32223152D02*
X202440114Y-32223152D01*
X203535353Y-32889819D02*
X203535353Y-32223152D01*
X203535353Y-31889819D02*
X203487734Y-31937438D01*
X203487734Y-31937438D02*
X203535353Y-31985057D01*
X203535353Y-31985057D02*
X203582972Y-31937438D01*
X203582972Y-31937438D02*
X203535353Y-31889819D01*
X203535353Y-31889819D02*
X203535353Y-31985057D01*
X204011543Y-32223152D02*
X204011543Y-32889819D01*
X204011543Y-32318390D02*
X204059162Y-32270771D01*
X204059162Y-32270771D02*
X204154400Y-32223152D01*
X204154400Y-32223152D02*
X204297257Y-32223152D01*
X204297257Y-32223152D02*
X204392495Y-32270771D01*
X204392495Y-32270771D02*
X204440114Y-32366009D01*
X204440114Y-32366009D02*
X204440114Y-32889819D01*
X204773448Y-32223152D02*
X205154400Y-32223152D01*
X204916305Y-31889819D02*
X204916305Y-32746961D01*
X204916305Y-32746961D02*
X204963924Y-32842200D01*
X204963924Y-32842200D02*
X205059162Y-32889819D01*
X205059162Y-32889819D02*
X205154400Y-32889819D01*
X205868686Y-32842200D02*
X205773448Y-32889819D01*
X205773448Y-32889819D02*
X205582972Y-32889819D01*
X205582972Y-32889819D02*
X205487734Y-32842200D01*
X205487734Y-32842200D02*
X205440115Y-32746961D01*
X205440115Y-32746961D02*
X205440115Y-32366009D01*
X205440115Y-32366009D02*
X205487734Y-32270771D01*
X205487734Y-32270771D02*
X205582972Y-32223152D01*
X205582972Y-32223152D02*
X205773448Y-32223152D01*
X205773448Y-32223152D02*
X205868686Y-32270771D01*
X205868686Y-32270771D02*
X205916305Y-32366009D01*
X205916305Y-32366009D02*
X205916305Y-32461247D01*
X205916305Y-32461247D02*
X205440115Y-32556485D01*
X206344877Y-32889819D02*
X206344877Y-32223152D01*
X206344877Y-32413628D02*
X206392496Y-32318390D01*
X206392496Y-32318390D02*
X206440115Y-32270771D01*
X206440115Y-32270771D02*
X206535353Y-32223152D01*
X206535353Y-32223152D02*
X206630591Y-32223152D01*
X206821068Y-32223152D02*
X207202020Y-32223152D01*
X206963925Y-32889819D02*
X206963925Y-32032676D01*
X206963925Y-32032676D02*
X207011544Y-31937438D01*
X207011544Y-31937438D02*
X207106782Y-31889819D01*
X207106782Y-31889819D02*
X207202020Y-31889819D01*
X207963925Y-32889819D02*
X207963925Y-32366009D01*
X207963925Y-32366009D02*
X207916306Y-32270771D01*
X207916306Y-32270771D02*
X207821068Y-32223152D01*
X207821068Y-32223152D02*
X207630592Y-32223152D01*
X207630592Y-32223152D02*
X207535354Y-32270771D01*
X207963925Y-32842200D02*
X207868687Y-32889819D01*
X207868687Y-32889819D02*
X207630592Y-32889819D01*
X207630592Y-32889819D02*
X207535354Y-32842200D01*
X207535354Y-32842200D02*
X207487735Y-32746961D01*
X207487735Y-32746961D02*
X207487735Y-32651723D01*
X207487735Y-32651723D02*
X207535354Y-32556485D01*
X207535354Y-32556485D02*
X207630592Y-32508866D01*
X207630592Y-32508866D02*
X207868687Y-32508866D01*
X207868687Y-32508866D02*
X207963925Y-32461247D01*
X208868687Y-32842200D02*
X208773449Y-32889819D01*
X208773449Y-32889819D02*
X208582973Y-32889819D01*
X208582973Y-32889819D02*
X208487735Y-32842200D01*
X208487735Y-32842200D02*
X208440116Y-32794580D01*
X208440116Y-32794580D02*
X208392497Y-32699342D01*
X208392497Y-32699342D02*
X208392497Y-32413628D01*
X208392497Y-32413628D02*
X208440116Y-32318390D01*
X208440116Y-32318390D02*
X208487735Y-32270771D01*
X208487735Y-32270771D02*
X208582973Y-32223152D01*
X208582973Y-32223152D02*
X208773449Y-32223152D01*
X208773449Y-32223152D02*
X208868687Y-32270771D01*
X209678211Y-32842200D02*
X209582973Y-32889819D01*
X209582973Y-32889819D02*
X209392497Y-32889819D01*
X209392497Y-32889819D02*
X209297259Y-32842200D01*
X209297259Y-32842200D02*
X209249640Y-32746961D01*
X209249640Y-32746961D02*
X209249640Y-32366009D01*
X209249640Y-32366009D02*
X209297259Y-32270771D01*
X209297259Y-32270771D02*
X209392497Y-32223152D01*
X209392497Y-32223152D02*
X209582973Y-32223152D01*
X209582973Y-32223152D02*
X209678211Y-32270771D01*
X209678211Y-32270771D02*
X209725830Y-32366009D01*
X209725830Y-32366009D02*
X209725830Y-32461247D01*
X209725830Y-32461247D02*
X209249640Y-32556485D01*
D11*
X176899673Y-31998266D02*
X177661578Y-31998266D01*
X177280625Y-32379219D02*
X177280625Y-31617314D01*
X172073673Y-31998266D02*
X172835578Y-31998266D01*
D10*
X190836779Y-83054819D02*
X190836779Y-82054819D01*
X190836779Y-82054819D02*
X191217731Y-82054819D01*
X191217731Y-82054819D02*
X191312969Y-82102438D01*
X191312969Y-82102438D02*
X191360588Y-82150057D01*
X191360588Y-82150057D02*
X191408207Y-82245295D01*
X191408207Y-82245295D02*
X191408207Y-82388152D01*
X191408207Y-82388152D02*
X191360588Y-82483390D01*
X191360588Y-82483390D02*
X191312969Y-82531009D01*
X191312969Y-82531009D02*
X191217731Y-82578628D01*
X191217731Y-82578628D02*
X190836779Y-82578628D01*
X191836779Y-83054819D02*
X191836779Y-82054819D01*
X191836779Y-82054819D02*
X192170112Y-82769104D01*
X192170112Y-82769104D02*
X192503445Y-82054819D01*
X192503445Y-82054819D02*
X192503445Y-83054819D01*
X193170112Y-82054819D02*
X193360588Y-82054819D01*
X193360588Y-82054819D02*
X193455826Y-82102438D01*
X193455826Y-82102438D02*
X193551064Y-82197676D01*
X193551064Y-82197676D02*
X193598683Y-82388152D01*
X193598683Y-82388152D02*
X193598683Y-82721485D01*
X193598683Y-82721485D02*
X193551064Y-82911961D01*
X193551064Y-82911961D02*
X193455826Y-83007200D01*
X193455826Y-83007200D02*
X193360588Y-83054819D01*
X193360588Y-83054819D02*
X193170112Y-83054819D01*
X193170112Y-83054819D02*
X193074874Y-83007200D01*
X193074874Y-83007200D02*
X192979636Y-82911961D01*
X192979636Y-82911961D02*
X192932017Y-82721485D01*
X192932017Y-82721485D02*
X192932017Y-82388152D01*
X192932017Y-82388152D02*
X192979636Y-82197676D01*
X192979636Y-82197676D02*
X193074874Y-82102438D01*
X193074874Y-82102438D02*
X193170112Y-82054819D01*
X194027255Y-83054819D02*
X194027255Y-82054819D01*
X194027255Y-82054819D02*
X194265350Y-82054819D01*
X194265350Y-82054819D02*
X194408207Y-82102438D01*
X194408207Y-82102438D02*
X194503445Y-82197676D01*
X194503445Y-82197676D02*
X194551064Y-82292914D01*
X194551064Y-82292914D02*
X194598683Y-82483390D01*
X194598683Y-82483390D02*
X194598683Y-82626247D01*
X194598683Y-82626247D02*
X194551064Y-82816723D01*
X194551064Y-82816723D02*
X194503445Y-82911961D01*
X194503445Y-82911961D02*
X194408207Y-83007200D01*
X194408207Y-83007200D02*
X194265350Y-83054819D01*
X194265350Y-83054819D02*
X194027255Y-83054819D01*
X195789160Y-83054819D02*
X195789160Y-82054819D01*
X195789160Y-82054819D02*
X196360588Y-83054819D01*
X196360588Y-83054819D02*
X196360588Y-82054819D01*
X196789160Y-82769104D02*
X197265350Y-82769104D01*
X196693922Y-83054819D02*
X197027255Y-82054819D01*
X197027255Y-82054819D02*
X197360588Y-83054819D01*
X197551065Y-82054819D02*
X197884398Y-83054819D01*
X197884398Y-83054819D02*
X198217731Y-82054819D01*
X198551065Y-82673866D02*
X199312970Y-82673866D01*
X199741541Y-83007200D02*
X199884398Y-83054819D01*
X199884398Y-83054819D02*
X200122493Y-83054819D01*
X200122493Y-83054819D02*
X200217731Y-83007200D01*
X200217731Y-83007200D02*
X200265350Y-82959580D01*
X200265350Y-82959580D02*
X200312969Y-82864342D01*
X200312969Y-82864342D02*
X200312969Y-82769104D01*
X200312969Y-82769104D02*
X200265350Y-82673866D01*
X200265350Y-82673866D02*
X200217731Y-82626247D01*
X200217731Y-82626247D02*
X200122493Y-82578628D01*
X200122493Y-82578628D02*
X199932017Y-82531009D01*
X199932017Y-82531009D02*
X199836779Y-82483390D01*
X199836779Y-82483390D02*
X199789160Y-82435771D01*
X199789160Y-82435771D02*
X199741541Y-82340533D01*
X199741541Y-82340533D02*
X199741541Y-82245295D01*
X199741541Y-82245295D02*
X199789160Y-82150057D01*
X199789160Y-82150057D02*
X199836779Y-82102438D01*
X199836779Y-82102438D02*
X199932017Y-82054819D01*
X199932017Y-82054819D02*
X200170112Y-82054819D01*
X200170112Y-82054819D02*
X200312969Y-82102438D01*
X200741541Y-83054819D02*
X200741541Y-82054819D01*
X200741541Y-82054819D02*
X201122493Y-82054819D01*
X201122493Y-82054819D02*
X201217731Y-82102438D01*
X201217731Y-82102438D02*
X201265350Y-82150057D01*
X201265350Y-82150057D02*
X201312969Y-82245295D01*
X201312969Y-82245295D02*
X201312969Y-82388152D01*
X201312969Y-82388152D02*
X201265350Y-82483390D01*
X201265350Y-82483390D02*
X201217731Y-82531009D01*
X201217731Y-82531009D02*
X201122493Y-82578628D01*
X201122493Y-82578628D02*
X200741541Y-82578628D01*
X201741541Y-83054819D02*
X201741541Y-82054819D01*
X202979636Y-83054819D02*
X202979636Y-82388152D01*
X202979636Y-82054819D02*
X202932017Y-82102438D01*
X202932017Y-82102438D02*
X202979636Y-82150057D01*
X202979636Y-82150057D02*
X203027255Y-82102438D01*
X203027255Y-82102438D02*
X202979636Y-82054819D01*
X202979636Y-82054819D02*
X202979636Y-82150057D01*
X203455826Y-82388152D02*
X203455826Y-83054819D01*
X203455826Y-82483390D02*
X203503445Y-82435771D01*
X203503445Y-82435771D02*
X203598683Y-82388152D01*
X203598683Y-82388152D02*
X203741540Y-82388152D01*
X203741540Y-82388152D02*
X203836778Y-82435771D01*
X203836778Y-82435771D02*
X203884397Y-82531009D01*
X203884397Y-82531009D02*
X203884397Y-83054819D01*
X204217731Y-82388152D02*
X204598683Y-82388152D01*
X204360588Y-82054819D02*
X204360588Y-82911961D01*
X204360588Y-82911961D02*
X204408207Y-83007200D01*
X204408207Y-83007200D02*
X204503445Y-83054819D01*
X204503445Y-83054819D02*
X204598683Y-83054819D01*
X205312969Y-83007200D02*
X205217731Y-83054819D01*
X205217731Y-83054819D02*
X205027255Y-83054819D01*
X205027255Y-83054819D02*
X204932017Y-83007200D01*
X204932017Y-83007200D02*
X204884398Y-82911961D01*
X204884398Y-82911961D02*
X204884398Y-82531009D01*
X204884398Y-82531009D02*
X204932017Y-82435771D01*
X204932017Y-82435771D02*
X205027255Y-82388152D01*
X205027255Y-82388152D02*
X205217731Y-82388152D01*
X205217731Y-82388152D02*
X205312969Y-82435771D01*
X205312969Y-82435771D02*
X205360588Y-82531009D01*
X205360588Y-82531009D02*
X205360588Y-82626247D01*
X205360588Y-82626247D02*
X204884398Y-82721485D01*
X205789160Y-83054819D02*
X205789160Y-82388152D01*
X205789160Y-82578628D02*
X205836779Y-82483390D01*
X205836779Y-82483390D02*
X205884398Y-82435771D01*
X205884398Y-82435771D02*
X205979636Y-82388152D01*
X205979636Y-82388152D02*
X206074874Y-82388152D01*
X206265351Y-82388152D02*
X206646303Y-82388152D01*
X206408208Y-83054819D02*
X206408208Y-82197676D01*
X206408208Y-82197676D02*
X206455827Y-82102438D01*
X206455827Y-82102438D02*
X206551065Y-82054819D01*
X206551065Y-82054819D02*
X206646303Y-82054819D01*
X207408208Y-83054819D02*
X207408208Y-82531009D01*
X207408208Y-82531009D02*
X207360589Y-82435771D01*
X207360589Y-82435771D02*
X207265351Y-82388152D01*
X207265351Y-82388152D02*
X207074875Y-82388152D01*
X207074875Y-82388152D02*
X206979637Y-82435771D01*
X207408208Y-83007200D02*
X207312970Y-83054819D01*
X207312970Y-83054819D02*
X207074875Y-83054819D01*
X207074875Y-83054819D02*
X206979637Y-83007200D01*
X206979637Y-83007200D02*
X206932018Y-82911961D01*
X206932018Y-82911961D02*
X206932018Y-82816723D01*
X206932018Y-82816723D02*
X206979637Y-82721485D01*
X206979637Y-82721485D02*
X207074875Y-82673866D01*
X207074875Y-82673866D02*
X207312970Y-82673866D01*
X207312970Y-82673866D02*
X207408208Y-82626247D01*
X208312970Y-83007200D02*
X208217732Y-83054819D01*
X208217732Y-83054819D02*
X208027256Y-83054819D01*
X208027256Y-83054819D02*
X207932018Y-83007200D01*
X207932018Y-83007200D02*
X207884399Y-82959580D01*
X207884399Y-82959580D02*
X207836780Y-82864342D01*
X207836780Y-82864342D02*
X207836780Y-82578628D01*
X207836780Y-82578628D02*
X207884399Y-82483390D01*
X207884399Y-82483390D02*
X207932018Y-82435771D01*
X207932018Y-82435771D02*
X208027256Y-82388152D01*
X208027256Y-82388152D02*
X208217732Y-82388152D01*
X208217732Y-82388152D02*
X208312970Y-82435771D01*
X209122494Y-83007200D02*
X209027256Y-83054819D01*
X209027256Y-83054819D02*
X208836780Y-83054819D01*
X208836780Y-83054819D02*
X208741542Y-83007200D01*
X208741542Y-83007200D02*
X208693923Y-82911961D01*
X208693923Y-82911961D02*
X208693923Y-82531009D01*
X208693923Y-82531009D02*
X208741542Y-82435771D01*
X208741542Y-82435771D02*
X208836780Y-82388152D01*
X208836780Y-82388152D02*
X209027256Y-82388152D01*
X209027256Y-82388152D02*
X209122494Y-82435771D01*
X209122494Y-82435771D02*
X209170113Y-82531009D01*
X209170113Y-82531009D02*
X209170113Y-82626247D01*
X209170113Y-82626247D02*
X208693923Y-82721485D01*
X174213333Y-43630866D02*
X174213333Y-44764200D01*
X174213333Y-44764200D02*
X174280000Y-44897533D01*
X174280000Y-44897533D02*
X174346666Y-44964200D01*
X174346666Y-44964200D02*
X174480000Y-45030866D01*
X174480000Y-45030866D02*
X174746666Y-45030866D01*
X174746666Y-45030866D02*
X174880000Y-44964200D01*
X174880000Y-44964200D02*
X174946666Y-44897533D01*
X174946666Y-44897533D02*
X175013333Y-44764200D01*
X175013333Y-44764200D02*
X175013333Y-43630866D01*
X176413333Y-45030866D02*
X175613333Y-45030866D01*
X176013333Y-45030866D02*
X176013333Y-43630866D01*
X176013333Y-43630866D02*
X175880000Y-43830866D01*
X175880000Y-43830866D02*
X175746667Y-43964200D01*
X175746667Y-43964200D02*
X175613333Y-44030866D01*
X175053666Y-40602819D02*
X175053666Y-41317104D01*
X175053666Y-41317104D02*
X175006047Y-41459961D01*
X175006047Y-41459961D02*
X174910809Y-41555200D01*
X174910809Y-41555200D02*
X174767952Y-41602819D01*
X174767952Y-41602819D02*
X174672714Y-41602819D01*
X175434619Y-40602819D02*
X176053666Y-40602819D01*
X176053666Y-40602819D02*
X175720333Y-40983771D01*
X175720333Y-40983771D02*
X175863190Y-40983771D01*
X175863190Y-40983771D02*
X175958428Y-41031390D01*
X175958428Y-41031390D02*
X176006047Y-41079009D01*
X176006047Y-41079009D02*
X176053666Y-41174247D01*
X176053666Y-41174247D02*
X176053666Y-41412342D01*
X176053666Y-41412342D02*
X176006047Y-41507580D01*
X176006047Y-41507580D02*
X175958428Y-41555200D01*
X175958428Y-41555200D02*
X175863190Y-41602819D01*
X175863190Y-41602819D02*
X175577476Y-41602819D01*
X175577476Y-41602819D02*
X175482238Y-41555200D01*
X175482238Y-41555200D02*
X175434619Y-41507580D01*
X193339819Y-70818333D02*
X194054104Y-70818333D01*
X194054104Y-70818333D02*
X194196961Y-70865952D01*
X194196961Y-70865952D02*
X194292200Y-70961190D01*
X194292200Y-70961190D02*
X194339819Y-71104047D01*
X194339819Y-71104047D02*
X194339819Y-71199285D01*
X193673152Y-69913571D02*
X194339819Y-69913571D01*
X193292200Y-70151666D02*
X194006485Y-70389761D01*
X194006485Y-70389761D02*
X194006485Y-69770714D01*
X185592819Y-35893333D02*
X186307104Y-35893333D01*
X186307104Y-35893333D02*
X186449961Y-35940952D01*
X186449961Y-35940952D02*
X186545200Y-36036190D01*
X186545200Y-36036190D02*
X186592819Y-36179047D01*
X186592819Y-36179047D02*
X186592819Y-36274285D01*
X186592819Y-34893333D02*
X186592819Y-35464761D01*
X186592819Y-35179047D02*
X185592819Y-35179047D01*
X185592819Y-35179047D02*
X185735676Y-35274285D01*
X185735676Y-35274285D02*
X185830914Y-35369523D01*
X185830914Y-35369523D02*
X185878533Y-35464761D01*
X217393333Y-43630866D02*
X217393333Y-44764200D01*
X217393333Y-44764200D02*
X217460000Y-44897533D01*
X217460000Y-44897533D02*
X217526666Y-44964200D01*
X217526666Y-44964200D02*
X217660000Y-45030866D01*
X217660000Y-45030866D02*
X217926666Y-45030866D01*
X217926666Y-45030866D02*
X218060000Y-44964200D01*
X218060000Y-44964200D02*
X218126666Y-44897533D01*
X218126666Y-44897533D02*
X218193333Y-44764200D01*
X218193333Y-44764200D02*
X218193333Y-43630866D01*
X218726667Y-43630866D02*
X219593333Y-43630866D01*
X219593333Y-43630866D02*
X219126667Y-44164200D01*
X219126667Y-44164200D02*
X219326667Y-44164200D01*
X219326667Y-44164200D02*
X219460000Y-44230866D01*
X219460000Y-44230866D02*
X219526667Y-44297533D01*
X219526667Y-44297533D02*
X219593333Y-44430866D01*
X219593333Y-44430866D02*
X219593333Y-44764200D01*
X219593333Y-44764200D02*
X219526667Y-44897533D01*
X219526667Y-44897533D02*
X219460000Y-44964200D01*
X219460000Y-44964200D02*
X219326667Y-45030866D01*
X219326667Y-45030866D02*
X218926667Y-45030866D01*
X218926667Y-45030866D02*
X218793333Y-44964200D01*
X218793333Y-44964200D02*
X218726667Y-44897533D01*
X179369819Y-70818333D02*
X180084104Y-70818333D01*
X180084104Y-70818333D02*
X180226961Y-70865952D01*
X180226961Y-70865952D02*
X180322200Y-70961190D01*
X180322200Y-70961190D02*
X180369819Y-71104047D01*
X180369819Y-71104047D02*
X180369819Y-71199285D01*
X179465057Y-70389761D02*
X179417438Y-70342142D01*
X179417438Y-70342142D02*
X179369819Y-70246904D01*
X179369819Y-70246904D02*
X179369819Y-70008809D01*
X179369819Y-70008809D02*
X179417438Y-69913571D01*
X179417438Y-69913571D02*
X179465057Y-69865952D01*
X179465057Y-69865952D02*
X179560295Y-69818333D01*
X179560295Y-69818333D02*
X179655533Y-69818333D01*
X179655533Y-69818333D02*
X179798390Y-69865952D01*
X179798390Y-69865952D02*
X180369819Y-70437380D01*
X180369819Y-70437380D02*
X180369819Y-69818333D01*
X207309819Y-70818333D02*
X208024104Y-70818333D01*
X208024104Y-70818333D02*
X208166961Y-70865952D01*
X208166961Y-70865952D02*
X208262200Y-70961190D01*
X208262200Y-70961190D02*
X208309819Y-71104047D01*
X208309819Y-71104047D02*
X208309819Y-71199285D01*
X207309819Y-69865952D02*
X207309819Y-70342142D01*
X207309819Y-70342142D02*
X207786009Y-70389761D01*
X207786009Y-70389761D02*
X207738390Y-70342142D01*
X207738390Y-70342142D02*
X207690771Y-70246904D01*
X207690771Y-70246904D02*
X207690771Y-70008809D01*
X207690771Y-70008809D02*
X207738390Y-69913571D01*
X207738390Y-69913571D02*
X207786009Y-69865952D01*
X207786009Y-69865952D02*
X207881247Y-69818333D01*
X207881247Y-69818333D02*
X208119342Y-69818333D01*
X208119342Y-69818333D02*
X208214580Y-69865952D01*
X208214580Y-69865952D02*
X208262200Y-69913571D01*
X208262200Y-69913571D02*
X208309819Y-70008809D01*
X208309819Y-70008809D02*
X208309819Y-70246904D01*
X208309819Y-70246904D02*
X208262200Y-70342142D01*
X208262200Y-70342142D02*
X208214580Y-70389761D01*
X195803333Y-43630866D02*
X195803333Y-44764200D01*
X195803333Y-44764200D02*
X195870000Y-44897533D01*
X195870000Y-44897533D02*
X195936666Y-44964200D01*
X195936666Y-44964200D02*
X196070000Y-45030866D01*
X196070000Y-45030866D02*
X196336666Y-45030866D01*
X196336666Y-45030866D02*
X196470000Y-44964200D01*
X196470000Y-44964200D02*
X196536666Y-44897533D01*
X196536666Y-44897533D02*
X196603333Y-44764200D01*
X196603333Y-44764200D02*
X196603333Y-43630866D01*
X197203333Y-43764200D02*
X197270000Y-43697533D01*
X197270000Y-43697533D02*
X197403333Y-43630866D01*
X197403333Y-43630866D02*
X197736667Y-43630866D01*
X197736667Y-43630866D02*
X197870000Y-43697533D01*
X197870000Y-43697533D02*
X197936667Y-43764200D01*
X197936667Y-43764200D02*
X198003333Y-43897533D01*
X198003333Y-43897533D02*
X198003333Y-44030866D01*
X198003333Y-44030866D02*
X197936667Y-44230866D01*
X197936667Y-44230866D02*
X197136667Y-45030866D01*
X197136667Y-45030866D02*
X198003333Y-45030866D01*
D12*
X170815000Y-45720000D02*
X170815000Y-66040000D01*
X170815000Y-66040000D02*
X186055000Y-66040000D01*
X186055000Y-45720000D02*
X170815000Y-45720000D01*
X186055000Y-66040000D02*
X186055000Y-45720000D01*
D11*
X186745000Y-46990000D02*
G75*
G03*
X186745000Y-46990000I-100000J0D01*
G01*
D13*
X176530000Y-76394000D02*
X189290000Y-76394000D01*
X173930000Y-76394000D02*
X175260000Y-76394000D01*
X173930000Y-77724000D02*
X173930000Y-76394000D01*
X176530000Y-78994000D02*
X176530000Y-76394000D01*
X173930000Y-78994000D02*
X176530000Y-78994000D01*
X189290000Y-81594000D02*
X189290000Y-76394000D01*
X173930000Y-81594000D02*
X173930000Y-78994000D01*
X173930000Y-81594000D02*
X189290000Y-81594000D01*
X175035000Y-37465000D02*
G75*
G03*
X175035000Y-37465000I-1680000J0D01*
G01*
X176900000Y-36781000D02*
G75*
G03*
X176899574Y-38148042I1535000J-684000D01*
G01*
X178435000Y-35785001D02*
G75*
G03*
X177751682Y-35930245I0J-1679999D01*
G01*
X179119000Y-35930001D02*
G75*
G03*
X178406195Y-35784748I-683999J-1535000D01*
G01*
X177751001Y-38999999D02*
G75*
G03*
X179118042Y-39000426I684000J1534992D01*
G01*
X179969999Y-38148999D02*
G75*
G03*
X179970426Y-36781958I-1534992J684000D01*
G01*
X170755000Y-42726000D02*
X170755000Y-32805000D01*
X172080000Y-38534000D02*
X172127000Y-38488000D01*
X172285000Y-38740000D02*
X172320000Y-38704000D01*
X174389000Y-36226000D02*
X174424000Y-36191000D01*
X174582000Y-36442000D02*
X174629000Y-36396000D01*
X181035000Y-32805000D02*
X170755000Y-32805000D01*
X181035000Y-33365000D02*
X170755000Y-33365000D01*
X181035000Y-34865000D02*
X170755000Y-34865000D01*
X181035000Y-39766000D02*
X170755000Y-39766000D01*
X181035000Y-42726000D02*
X170755000Y-42726000D01*
X181035000Y-42726000D02*
X181035000Y-32805000D01*
X181275000Y-32565000D02*
X180775000Y-32565000D01*
X181275000Y-33305000D02*
X181275000Y-32565000D01*
X213360000Y-76394000D02*
X226120000Y-76394000D01*
X210760000Y-76394000D02*
X212090000Y-76394000D01*
X210760000Y-77724000D02*
X210760000Y-76394000D01*
X213360000Y-78994000D02*
X213360000Y-76394000D01*
X210760000Y-78994000D02*
X213360000Y-78994000D01*
X226120000Y-81594000D02*
X226120000Y-76394000D01*
X210760000Y-81594000D02*
X210760000Y-78994000D01*
X210760000Y-81594000D02*
X226120000Y-81594000D01*
X194885000Y-71815000D02*
X194885000Y-70485000D01*
X196215000Y-71815000D02*
X194885000Y-71815000D01*
X197485000Y-71815000D02*
X205165000Y-71815000D01*
X197485000Y-71815000D02*
X197485000Y-69155000D01*
X205165000Y-71815000D02*
X205165000Y-69155000D01*
X197485000Y-69155000D02*
X205165000Y-69155000D01*
X189738000Y-34230000D02*
X212658000Y-34230000D01*
X212658000Y-36890000D02*
X212658000Y-34230000D01*
X189738000Y-36890000D02*
X189738000Y-34230000D01*
X189738000Y-36890000D02*
X212658000Y-36890000D01*
X188468000Y-36890000D02*
X187138000Y-36890000D01*
X187138000Y-36890000D02*
X187138000Y-35560000D01*
D12*
X213995000Y-45720000D02*
X213995000Y-66040000D01*
X213995000Y-66040000D02*
X229235000Y-66040000D01*
X229235000Y-45720000D02*
X213995000Y-45720000D01*
X229235000Y-66040000D02*
X229235000Y-45720000D01*
D11*
X229925000Y-46990000D02*
G75*
G03*
X229925000Y-46990000I-100000J0D01*
G01*
D13*
X180915000Y-71815000D02*
X180915000Y-70485000D01*
X182245000Y-71815000D02*
X180915000Y-71815000D01*
X183515000Y-71815000D02*
X191195000Y-71815000D01*
X183515000Y-71815000D02*
X183515000Y-69155000D01*
X191195000Y-71815000D02*
X191195000Y-69155000D01*
X183515000Y-69155000D02*
X191195000Y-69155000D01*
X194945000Y-76394000D02*
X207705000Y-76394000D01*
X192345000Y-76394000D02*
X193675000Y-76394000D01*
X192345000Y-77724000D02*
X192345000Y-76394000D01*
X194945000Y-78994000D02*
X194945000Y-76394000D01*
X192345000Y-78994000D02*
X194945000Y-78994000D01*
X207705000Y-81594000D02*
X207705000Y-76394000D01*
X192345000Y-81594000D02*
X192345000Y-78994000D01*
X192345000Y-81594000D02*
X207705000Y-81594000D01*
X208855000Y-71815000D02*
X208855000Y-70485000D01*
X210185000Y-71815000D02*
X208855000Y-71815000D01*
X211455000Y-71815000D02*
X219135000Y-71815000D01*
X211455000Y-71815000D02*
X211455000Y-69155000D01*
X219135000Y-71815000D02*
X219135000Y-69155000D01*
X211455000Y-69155000D02*
X219135000Y-69155000D01*
D12*
X192405000Y-45720000D02*
X192405000Y-66040000D01*
X192405000Y-66040000D02*
X207645000Y-66040000D01*
X207645000Y-45720000D02*
X192405000Y-45720000D01*
X207645000Y-66040000D02*
X207645000Y-45720000D01*
D11*
X208335000Y-46990000D02*
G75*
G03*
X208335000Y-46990000I-100000J0D01*
G01*
%LPC*%
D14*
X206375000Y-93345000D03*
X206375000Y-90805000D03*
X203835000Y-93345000D03*
X203835000Y-90805000D03*
X201295000Y-93345000D03*
X201295000Y-90805000D03*
X198755000Y-93345000D03*
X198755000Y-90805000D03*
X196215000Y-93345000D03*
X196215000Y-90805000D03*
X193675000Y-93345000D03*
D15*
X193675000Y-90805000D03*
D16*
X227965000Y-70485000D03*
D17*
X227965000Y-70485000D03*
X172085000Y-70485000D03*
D16*
X172085000Y-70485000D03*
D17*
X227965000Y-34290000D03*
D16*
X227965000Y-34290000D03*
D18*
X184785000Y-46990000D03*
D19*
X184785000Y-49530000D03*
X184785000Y-52070000D03*
X184785000Y-54610000D03*
X184785000Y-57150000D03*
X184785000Y-59690000D03*
X184785000Y-62230000D03*
X184785000Y-64770000D03*
D18*
X172085000Y-64770000D03*
D19*
X172085000Y-62230000D03*
X172085000Y-59690000D03*
X172085000Y-57150000D03*
X172085000Y-54610000D03*
X172085000Y-52070000D03*
X172085000Y-49530000D03*
X172085000Y-46990000D03*
D14*
X187960000Y-80264000D03*
X187960000Y-77724000D03*
X185420000Y-80264000D03*
X185420000Y-77724000D03*
X182880000Y-80264000D03*
X182880000Y-77724000D03*
X180340000Y-80264000D03*
X180340000Y-77724000D03*
X177800000Y-80264000D03*
X177800000Y-77724000D03*
X175260000Y-80264000D03*
D15*
X175260000Y-77724000D03*
D20*
X173355000Y-37465000D03*
D21*
X178435000Y-37465000D03*
D14*
X224790000Y-80264000D03*
X224790000Y-77724000D03*
X222250000Y-80264000D03*
X222250000Y-77724000D03*
X219710000Y-80264000D03*
X219710000Y-77724000D03*
X217170000Y-80264000D03*
X217170000Y-77724000D03*
X214630000Y-80264000D03*
X214630000Y-77724000D03*
X212090000Y-80264000D03*
D15*
X212090000Y-77724000D03*
X196215000Y-70485000D03*
D14*
X198755000Y-70485000D03*
X201295000Y-70485000D03*
X203835000Y-70485000D03*
X211328000Y-35560000D03*
X208788000Y-35560000D03*
X206248000Y-35560000D03*
X203708000Y-35560000D03*
X201168000Y-35560000D03*
X198628000Y-35560000D03*
X196088000Y-35560000D03*
X193548000Y-35560000D03*
X191008000Y-35560000D03*
D15*
X188468000Y-35560000D03*
D18*
X227965000Y-46990000D03*
D19*
X227965000Y-49530000D03*
X227965000Y-52070000D03*
X227965000Y-54610000D03*
X227965000Y-57150000D03*
X227965000Y-59690000D03*
X227965000Y-62230000D03*
X227965000Y-64770000D03*
D18*
X215265000Y-64770000D03*
D19*
X215265000Y-62230000D03*
X215265000Y-59690000D03*
X215265000Y-57150000D03*
X215265000Y-54610000D03*
X215265000Y-52070000D03*
X215265000Y-49530000D03*
X215265000Y-46990000D03*
D15*
X182245000Y-70485000D03*
D14*
X184785000Y-70485000D03*
X187325000Y-70485000D03*
X189865000Y-70485000D03*
X206375000Y-80264000D03*
X206375000Y-77724000D03*
X203835000Y-80264000D03*
X203835000Y-77724000D03*
X201295000Y-80264000D03*
X201295000Y-77724000D03*
X198755000Y-80264000D03*
X198755000Y-77724000D03*
X196215000Y-80264000D03*
X196215000Y-77724000D03*
X193675000Y-80264000D03*
D15*
X193675000Y-77724000D03*
X210185000Y-70485000D03*
D14*
X212725000Y-70485000D03*
X215265000Y-70485000D03*
X217805000Y-70485000D03*
D18*
X206375000Y-46990000D03*
D19*
X206375000Y-49530000D03*
X206375000Y-52070000D03*
X206375000Y-54610000D03*
X206375000Y-57150000D03*
X206375000Y-59690000D03*
X206375000Y-62230000D03*
X206375000Y-64770000D03*
D18*
X193675000Y-64770000D03*
D19*
X193675000Y-62230000D03*
X193675000Y-59690000D03*
X193675000Y-57150000D03*
X193675000Y-54610000D03*
X193675000Y-52070000D03*
X193675000Y-49530000D03*
X193675000Y-46990000D03*
%LPD*%
M02*
