M48
; DRILL file {KiCad 7.0.8} date Wed Jan 31 22:10:33 2024
; FORMAT={-:-/ absolute / metric / decimal}
; #@! TF.CreationDate,2024-01-31T22:10:33+01:00
; #@! TF.GenerationSoftware,Kicad,Pcbnew,7.0.8
; #@! TF.FileFunction,Plated,1,2,PTH
FMAT,2
METRIC
; #@! TA.AperFunction,Plated,PTH,ViaDrill
T1C0.400
; #@! TA.AperFunction,Plated,PTH,ComponentDrill
T2C1.000
; #@! TA.AperFunction,Plated,PTH,ComponentDrill
T3C1.016
; #@! TA.AperFunction,Plated,PTH,ComponentDrill
T4C1.300
; #@! TA.AperFunction,Plated,PTH,ComponentDrill
T5C2.200
%
G90
G05
T1
X158.75Y-95.25
X160.02Y-95.25
X161.29Y-95.25
X162.56Y-97.79
X180.34Y-97.79
X180.34Y-99.06
T2
X135.88Y-71.12
X138.42Y-71.12
X140.96Y-71.12
X143.5Y-71.12
X152.4Y-103.505
X152.4Y-106.045
X154.94Y-103.505
X154.94Y-106.045
X157.48Y-71.12
X157.48Y-103.505
X157.48Y-106.045
X160.02Y-71.12
X160.02Y-103.505
X160.02Y-106.045
X162.56Y-71.12
X162.56Y-103.505
X162.56Y-106.045
X165.1Y-71.12
X165.1Y-103.505
X165.1Y-106.045
X179.06Y-71.12
X181.6Y-71.12
X184.14Y-71.12
X186.68Y-71.12
T3
X133.35Y-77.47
X133.35Y-80.01
X133.35Y-82.55
X133.35Y-85.09
X133.35Y-87.63
X133.35Y-90.17
X133.35Y-92.71
X133.35Y-95.25
X146.05Y-77.47
X146.05Y-80.01
X146.05Y-82.55
X146.05Y-85.09
X146.05Y-87.63
X146.05Y-90.17
X146.05Y-92.71
X146.05Y-95.25
X154.94Y-77.47
X154.94Y-80.01
X154.94Y-82.55
X154.94Y-85.09
X154.94Y-87.63
X154.94Y-90.17
X154.94Y-92.71
X154.94Y-95.25
X167.64Y-77.47
X167.64Y-80.01
X167.64Y-82.55
X167.64Y-85.09
X167.64Y-87.63
X167.64Y-90.17
X167.64Y-92.71
X167.64Y-95.25
X176.53Y-77.47
X176.53Y-80.01
X176.53Y-82.55
X176.53Y-85.09
X176.53Y-87.63
X176.53Y-90.17
X176.53Y-92.71
X176.53Y-95.25
X189.23Y-77.47
X189.23Y-80.01
X189.23Y-82.55
X189.23Y-85.09
X189.23Y-87.63
X189.23Y-90.17
X189.23Y-92.71
X189.23Y-95.25
T4
X138.43Y-103.175
X143.51Y-103.175
T5
X130.81Y-71.12
X130.81Y-106.68
X170.18Y-71.12
X170.18Y-71.12
X170.18Y-106.68
X191.77Y-71.12
X191.77Y-106.68
T0
M30
